<mxfile host="65bd71144e">
    <diagram id="IPXSwl4cwgU8Z3NzUrWb" name="OCI Multi-Server">
        <mxGraphModel dx="3742" dy="-4065" grid="1" gridSize="10" guides="1" tooltips="1" connect="1" arrows="1" fold="1" page="1" pageScale="1" pageWidth="1100" pageHeight="850" math="0" shadow="0">
            <root>
                <mxCell id="0"/>
                <mxCell id="1" parent="0"/>
                <mxCell id="ZklWYCbI00s5IHxO9I_W-3" value="&lt;b&gt;OCI Region&lt;/b&gt;" style="whiteSpace=wrap;html=1;align=left;fontFamily=Oracle Sans;verticalAlign=top;fillColor=#F5F4F2;fontColor=#312D2A;strokeColor=#9E9892;rounded=1;arcSize=2;fontSize=11;spacingRight=5;container=0;spacingLeft=3;" parent="1" vertex="1">
                    <mxGeometry x="-870" y="6000" width="810" height="790" as="geometry"/>
                </mxCell>
                <mxCell id="ZklWYCbI00s5IHxO9I_W-4" value="Availability Domain 1" style="whiteSpace=wrap;html=1;strokeWidth=1;align=center;fontFamily=Oracle Sans;verticalAlign=top;fillColor=#DFDCD8;fontColor=#312D2A;strokeColor=#9E9892;rounded=1;arcSize=5;fontStyle=1;container=0;" parent="1" vertex="1">
                    <mxGeometry x="-672.53" y="6050" width="168.06" height="730" as="geometry"/>
                </mxCell>
                <mxCell id="ZklWYCbI00s5IHxO9I_W-5" value="Availability Domain 2" style="whiteSpace=wrap;html=1;strokeWidth=1;align=center;fontFamily=Oracle Sans;verticalAlign=top;fillColor=#DFDCD8;fontColor=#312D2A;strokeColor=#9E9892;rounded=1;arcSize=6;fontStyle=1;container=0;" parent="1" vertex="1">
                    <mxGeometry x="-322" y="6050" width="172.03" height="731" as="geometry"/>
                </mxCell>
                <mxCell id="ZklWYCbI00s5IHxO9I_W-6" value="&lt;b&gt;&lt;font color=&quot;#bb511c&quot;&gt;Kasm VCN - 10.0.0.0/16&lt;br&gt;&lt;/font&gt;&lt;/b&gt;" style="whiteSpace=wrap;html=1;strokeWidth=2;dashed=1;align=left;fontFamily=Oracle Sans;verticalAlign=top;labelBackgroundColor=none;fillColor=none;fontColor=#AE562C;strokeColor=#AE562C;container=0;spacingLeft=3;" parent="1" vertex="1">
                    <mxGeometry x="-840" y="6080" width="750" height="690" as="geometry"/>
                </mxCell>
                <mxCell id="ZklWYCbI00s5IHxO9I_W-7" value="&lt;b&gt;&lt;font color=&quot;#bb511c&quot;&gt;Subnet C&lt;br&gt;&lt;/font&gt;&lt;/b&gt;&lt;font color=&quot;#312d2a&quot;&gt;10.0.2.0/24&lt;br&gt;Kasm DB&lt;br&gt;&lt;/font&gt;" style="whiteSpace=wrap;html=1;strokeWidth=1;dashed=1;align=left;fontFamily=Oracle Sans;verticalAlign=top;fillColor=none;fontColor=#AE562C;strokeColor=#AE562C;container=0;spacingLeft=3;" parent="1" vertex="1">
                    <mxGeometry x="-740" y="6278.7" width="246.62" height="141.3" as="geometry"/>
                </mxCell>
                <mxCell id="ZklWYCbI00s5IHxO9I_W-8" value="&lt;font color=&quot;#bb511c&quot;&gt;&lt;b&gt;Subnet D&lt;br&gt;&lt;/b&gt;&lt;/font&gt;&lt;font color=&quot;#312d2a&quot;&gt;10.0.3.0/24&lt;br&gt;Kasm Agent&lt;br&gt;&lt;/font&gt;" style="whiteSpace=wrap;html=1;strokeWidth=1;dashed=1;align=left;fontFamily=Oracle Sans;verticalAlign=top;fillColor=none;fontColor=#AE562C;strokeColor=#AE562C;container=0;spacingLeft=3;" parent="1" vertex="1">
                    <mxGeometry x="-740" y="6447.6" width="246.91" height="132.4" as="geometry"/>
                </mxCell>
                <mxCell id="ZklWYCbI00s5IHxO9I_W-9" value="&lt;font color=&quot;#bb511c&quot;&gt;&lt;b&gt;Subnet A&lt;br&gt;&lt;/b&gt;&lt;/font&gt;&lt;font color=&quot;#312d2a&quot;&gt;10.0.0.0/24&lt;br&gt;WebApp 1&lt;br&gt;Server&lt;br&gt;&lt;/font&gt;" style="whiteSpace=wrap;html=1;strokeWidth=1;dashed=1;align=left;fontFamily=Oracle Sans;verticalAlign=top;fillColor=none;fontColor=#AE562C;strokeColor=#AE562C;sketch=0;glass=0;rounded=0;container=0;spacingLeft=3;" parent="1" vertex="1">
                    <mxGeometry x="-740" y="6120" width="246.62" height="130" as="geometry"/>
                </mxCell>
                <mxCell id="ZklWYCbI00s5IHxO9I_W-10" value="" style="shape=image;verticalLabelPosition=bottom;verticalAlign=top;imageAspect=0;aspect=fixed;image=data:image/svg+xml,PHN2ZyB4bWxucz0iaHR0cDovL3d3dy53My5vcmcvMjAwMC9zdmciIHhtbG5zOnhsaW5rPSJodHRwOi8vd3d3LnczLm9yZy8xOTk5L3hsaW5rIiB2ZXJzaW9uPSIxLjEiIGlkPSJMYXllcl8xIiB4PSIwcHgiIHk9IjBweCIgdmlld0JveD0iMCAwIDQzLjUgNDIiIHN0eWxlPSJlbmFibGUtYmFja2dyb3VuZDpuZXcgMCAwIDQzLjUgNDI7IiB4bWw6c3BhY2U9InByZXNlcnZlIiB3aWR0aD0iNDMuNSIgaGVpZ2h0PSI0MiI+JiN4YTs8Zz4mI3hhOwk8Zz4mI3hhOwkJPHBhdGggc3R5bGU9ImZpbGw6I0ZGRkZGRjsiIGQ9Ik0zMS4yLDQxLjVjLTIuOCwwLTUuMy0yLTUuOS00LjhoLTcuMWMtMC42LDIuNy0zLDQuOC01LjksNC44Yy0zLjMsMC02LTIuNy02LTYmIzEwOyYjOTsmIzk7JiM5O2MwLTIuMSwxLjItNC4xLDMtNS4ybC0yLjItNi43Yy0wLjIsMC0wLjQsMC0wLjYsMGMtMy4zLDAtNi0yLjctNi02YzAtMy4zLDIuNy02LDYtNmMxLjUsMCwyLjksMC41LDQsMS42TDE2LjMsOSYjMTA7JiM5OyYjOTsmIzk7Yy0wLjMtMC44LTAuNS0xLjYtMC41LTIuNWMwLTMuMywyLjctNiw2LTZzNiwyLjcsNiw2YzAsMC44LTAuMiwxLjctMC41LDIuNWw1LjcsNC4yYzEuMS0xLDIuNS0xLjYsNC0xLjZjMy4zLDAsNiwyLjcsNiw2JiMxMDsmIzk7JiM5OyYjOTtzLTIuNyw2LTYsNmMtMC4yLDAtMC40LDAtMC42LDBsLTIuMiw2LjdjMS44LDEuMSwzLDMuMSwzLDUuMkMzNy4yLDM4LjgsMzQuNSw0MS41LDMxLjIsNDEuNXoiLz4mI3hhOwkJPHBhdGggc3R5bGU9ImZpbGw6I0ZGRkZGRjsiIGQ9Ik0yMS43LDFjMywwLDUuNSwyLjUsNS41LDUuNWMwLDAuOS0wLjIsMS44LTAuNywyLjZsNi40LDQuN2MxLTEuMSwyLjQtMS43LDQtMS43JiMxMDsmIzk7JiM5OyYjOTtjMywwLDUuNSwyLjUsNS41LDUuNWMwLDMtMi41LDUuNS01LjUsNS41Yy0wLjMsMC0wLjcsMC0xLTAuMWwtMi41LDcuNWMxLjgsMC45LDMuMSwyLjgsMy4xLDVjMCwzLTIuNSw1LjUtNS41LDUuNSYjMTA7JiM5OyYjOTsmIzk7Yy0yLjgsMC01LjEtMi4xLTUuNS00LjhoLTcuOWMtMC40LDIuNy0yLjcsNC44LTUuNSw0LjhjLTMsMC01LjUtMi41LTUuNS01LjVjMC0yLjIsMS4zLTQuMSwzLjEtNUw3LjUsMjNjLTAuMywwLjEtMC43LDAuMS0xLDAuMSYjMTA7JiM5OyYjOTsmIzk7Yy0zLDAtNS41LTIuNS01LjUtNS41czIuNS01LjUsNS41LTUuNWMxLjYsMCwzLDAuNyw0LDEuN2w2LjQtNC43Yy0wLjQtMC44LTAuNy0xLjctMC43LTIuNkMxNi4yLDMuNSwxOC43LDEsMjEuNywxIE0yMS43LDAmIzEwOyYjOTsmIzk7JiM5O2MtMy42LDAtNi41LDIuOS02LjUsNi41YzAsMC44LDAuMSwxLjYsMC40LDIuM2wtNS4xLDMuN2MtMS4xLTAuOS0yLjYtMS40LTQtMS40QzIuOSwxMS4xLDAsMTQsMCwxNy42czIuOSw2LjUsNi41LDYuNSYjMTA7JiM5OyYjOTsmIzk7YzAuMSwwLDAuMiwwLDAuMywwbDEuOSw2Yy0xLjgsMS4yLTIuOSwzLjItMi45LDUuNGMwLDMuNiwyLjksNi41LDYuNSw2LjVjMi45LDAsNS41LTIsNi4zLTQuOGg2LjNjMC44LDIuOCwzLjMsNC44LDYuMyw0LjgmIzEwOyYjOTsmIzk7JiM5O2MzLjYsMCw2LjUtMi45LDYuNS02LjVjMC0yLjItMS4xLTQuMi0yLjktNS40bDEuOS02YzAuMSwwLDAuMiwwLDAuMywwYzMuNiwwLDYuNS0yLjksNi41LTYuNWMwLTMuNi0yLjktNi41LTYuNS02LjUmIzEwOyYjOTsmIzk7JiM5O2MtMS41LDAtMi45LDAuNS00LjEsMS40bC01LjEtMy43YzAuMy0wLjcsMC40LTEuNSwwLjQtMi4zQzI4LjMsMi45LDI1LjMsMCwyMS43LDBMMjEuNywweiIvPiYjeGE7CTwvZz4mI3hhOwk8Zz4mI3hhOwkJPHBhdGggc3R5bGU9ImZpbGw6I0JCNTAxQzsiIGQ9Ik0zNywxMi4xYy0xLjYsMC0zLDAuNy00LDEuN2wtNi40LTQuN2MwLjQtMC44LDAuNy0xLjcsMC43LTIuNmMwLTMtMi41LTUuNS01LjUtNS41JiMxMDsmIzk7JiM5OyYjOTtzLTUuNSwyLjUtNS41LDUuNWMwLDAuOSwwLjIsMS44LDAuNywyLjZsLTYuNCw0LjdjLTEtMS0yLjQtMS43LTQtMS43Yy0zLDAtNS41LDIuNS01LjUsNS41czIuNSw1LjUsNS41LDUuNWMwLjMsMCwwLjcsMCwxLTAuMSYjMTA7JiM5OyYjOTsmIzk7bDIuNCw3LjVjLTEuOCwwLjktMy4xLDIuOC0zLjEsNWMwLDMsMi41LDUuNSw1LjUsNS41YzIuOCwwLDUuMS0yLjEsNS41LTQuOGg3LjljMC40LDIuNywyLjcsNC44LDUuNSw0LjhjMywwLDUuNS0yLjUsNS41LTUuNSYjMTA7JiM5OyYjOTsmIzk7YzAtMi4yLTEuMy00LjEtMy4xLTVMMzYsMjNjMC4zLDAuMSwwLjcsMC4xLDEsMC4xYzMsMCw1LjUtMi41LDUuNS01LjVTNDAsMTIuMSwzNywxMi4xeiBNMzEuMiwzOS41Yy0yLjIsMC00LTEuOC00LTQmIzEwOyYjOTsmIzk7JiM5O2MwLTIuMiwxLjgtNCw0LTRzNCwxLjgsNCw0QzM1LjIsMzcuNywzMy40LDM5LjUsMzEuMiwzOS41eiBNMTcuOCwzNC44Yy0wLjItMS4zLTAuOC0yLjQtMS43LTMuM2wzLTQuMmMwLjgsMC40LDEuNywwLjcsMi42LDAuNyYjMTA7JiM5OyYjOTsmIzk7YzAuOSwwLDEuOC0wLjIsMi42LTAuN2wzLDQuMmMtMC45LDAuOC0xLjUsMi0xLjcsMy4zSDE3Ljh6IE04LjMsMzUuNWMwLTIuMiwxLjgtNCw0LTRzNCwxLjgsNCw0YzAsMi4yLTEuOCw0LTQsNCYjMTA7JiM5OyYjOTsmIzk7UzguMywzNy43LDguMywzNS41eiBNNi41LDEzLjVjMi4yLDAsNCwxLjgsNCw0cy0xLjgsNC00LDRzLTQtMS44LTQtNFM0LjMsMTMuNSw2LjUsMTMuNXogTTE3LjcsNi41YzAtMi4yLDEuOC00LDQtNHM0LDEuOCw0LDQmIzEwOyYjOTsmIzk7JiM5O3MtMS44LDQtNCw0UzE3LjcsOC43LDE3LjcsNi41eiBNMzEuNiwxOC41bC00LjksMS42Yy0wLjgtMS42LTIuNC0yLjgtNC4yLTMuMVYxMmMxLjMtMC4yLDIuNC0wLjgsMy4yLTEuN2w2LjQsNC43JiMxMDsmIzk7JiM5OyYjOTtjLTAuNCwwLjgtMC43LDEuNy0wLjcsMi42QzMxLjUsMTcuOSwzMS41LDE4LjIsMzEuNiwxOC41eiBNMjUuOCwyMi41YzAsMi4yLTEuOCw0LTQsNHMtNC0xLjgtNC00czEuOC00LDQtNFMyNS44LDIwLjIsMjUuOCwyMi41eiYjMTA7JiM5OyYjOTsmIzk7IE0yMSwxMlYxN2MtMS45LDAuMy0zLjUsMS40LTQuMiwzLjFsLTQuOS0xLjZjMC4xLTAuMywwLjEtMC42LDAuMS0xYzAtMC45LTAuMi0xLjgtMC43LTIuNmw2LjQtNC43QzE4LjYsMTEuMiwxOS43LDExLjgsMjEsMTJ6JiMxMDsmIzk7JiM5OyYjOTsgTTExLjUsMTkuOWw0LjksMS42Yy0wLjEsMC4zLTAuMSwwLjYtMC4xLDFjMCwxLjYsMC43LDMsMS43LDRsLTMsNC4yYy0wLjgtMC40LTEuNy0wLjctMi42LTAuN2MtMC4zLDAtMC43LDAtMSwwLjFsLTIuNC03LjUmIzEwOyYjOTsmIzk7JiM5O0MxMCwyMiwxMC45LDIxLjEsMTEuNSwxOS45eiBNMzEuMiwzMGMtMC45LDAtMS44LDAuMi0yLjYsMC43bC0zLTQuMmMxLjEtMSwxLjctMi40LDEuNy00YzAtMC4zLDAtMC43LTAuMS0xbDQuOS0xLjYmIzEwOyYjOTsmIzk7JiM5O2MwLjUsMS4xLDEuNSwyLDIuNiwyLjZsLTIuNSw3LjVDMzEuOCwzMCwzMS41LDMwLDMxLjIsMzB6IE0zMywxNy42YzAtMi4yLDEuOC00LDQtNHM0LDEuOCw0LDRzLTEuOCw0LTQsNFMzMywxOS44LDMzLDE3LjZ6Ii8+JiN4YTsJPC9nPiYjeGE7PC9nPiYjeGE7PC9zdmc+;dashed=1;dashPattern=1 1;strokeColor=#bb511c;strokeWidth=3;fontColor=#312D2A;fillColor=#FCFBFA;container=0;" parent="1" vertex="1">
                    <mxGeometry x="-125.99721598002486" y="6062.995068158998" width="28.053723079225335" height="26.78195429963378" as="geometry"/>
                </mxCell>
                <mxCell id="ZklWYCbI00s5IHxO9I_W-14" value="&lt;b&gt;&lt;font color=&quot;#bb511c&quot;&gt;Subnet B&lt;br&gt;&lt;/font&gt;&lt;/b&gt;&lt;font color=&quot;#312d2a&quot;&gt;10.0.1.0/24&lt;br&gt;WebApp 2&lt;br&gt;Web Server&lt;br&gt;&lt;/font&gt;" style="whiteSpace=wrap;html=1;strokeWidth=1;dashed=1;align=left;fontFamily=Oracle Sans;verticalAlign=top;fillColor=none;fontColor=#AE562C;strokeColor=#AE562C;container=0;spacingLeft=3;" parent="1" vertex="1">
                    <mxGeometry x="-390" y="6120" width="250" height="130" as="geometry"/>
                </mxCell>
                <mxCell id="ZklWYCbI00s5IHxO9I_W-15" value="" style="shape=image;verticalLabelPosition=bottom;verticalAlign=top;imageAspect=0;aspect=fixed;image=data:image/svg+xml,PHN2ZyB4bWxucz0iaHR0cDovL3d3dy53My5vcmcvMjAwMC9zdmciIHhtbG5zOnhsaW5rPSJodHRwOi8vd3d3LnczLm9yZy8xOTk5L3hsaW5rIiB2ZXJzaW9uPSIxLjEiIGlkPSJMYXllcl8xIiB4PSIwcHgiIHk9IjBweCIgdmlld0JveD0iMCAwIDMyLjM5OTk5NzcxMTE4MTY0IDQyLjE5OTk5Njk0ODI0MjE5IiBzdHlsZT0iZW5hYmxlLWJhY2tncm91bmQ6bmV3IDAgMCAzMi4zIDQyLjI7IiB4bWw6c3BhY2U9InByZXNlcnZlIiB3aWR0aD0iMzIuMzk5OTk3NzExMTgxNjQiIGhlaWdodD0iNDIuMTk5OTk2OTQ4MjQyMTkiPiYjeGE7PGc+JiN4YTsJPGc+JiN4YTsJCTxwYXRoIHN0eWxlPSJmaWxsOiNGRkZGRkY7IiBkPSJNMTUuOCw0MS41QzgsMzguNiw0LjMsMzMuNiwyLjUsMjkuOGMtMi00LjMtMi03LjktMi04LjFWNy4zbDE1LjctNi43bDE1LjYsNi43djE0LjUmIzEwOyYjOTsmIzk7JiM5O2MwLDAuNi0wLjIsMTQuMi0xNS4xLDE5LjdsLTAuNCwwLjJMMTUuOCw0MS41eiIvPiYjeGE7CQk8cGF0aCBzdHlsZT0iZmlsbDojRkZGRkZGOyIgZD0iTTE2LjIsMS4xbDE1LjEsNi41djE0LjJjMCwwLjYtMC4yLDEzLjgtMTQuOCwxOS4ybC0wLjMsMC4xTDE2LDQxQzguMywzOC4yLDQuNywzMy4zLDMsMjkuNiYjMTA7JiM5OyYjOTsmIzk7Yy0xLjktNC4xLTItNy43LTItNy44VjcuNkwxNi4yLDEuMSBNMTYuMiwwbC0wLjQsMC4yTDAuNiw2LjdMMCw2Ljl2MC43djE0LjJjMCwwLjIsMCwzLjksMi4xLDguM2MxLjgsMy44LDUuNiw5LDEzLjYsMTEuOSYjMTA7JiM5OyYjOTsmIzk7bDAuMywwLjFsMC4zLDAuMWwwLjMtMC4xbDAuMy0wLjFjMTUuMy01LjYsMTUuNS0xOS42LDE1LjUtMjAuMlY3LjZWNi45bC0wLjYtMC4zTDE2LjYsMC4yTDE2LjIsMEwxNi4yLDB6Ii8+JiN4YTsJPC9nPiYjeGE7CTxnPiYjeGE7CQk8cGF0aCBzdHlsZT0iZmlsbDpub25lOyIgZD0iTTIuNSw4LjZ2MTMuMmMwLDAuMSwwLDMuNCwxLjgsNy4yYzIuMyw0LjksNi4zLDguNCwxMS45LDEwLjVjMTMuNC01LjEsMTMuNi0xNy4yLDEzLjYtMTcuN1Y4LjYmIzEwOyYjOTsmIzk7JiM5O0wxNi4yLDIuN0wyLjUsOC42eiBNMTYuMSwyOC4zSDd2LTEuNWg5LjFWMjguM3ogTTE2LjEsMjEuNUg3VjIwaDkuMVYyMS41eiBNMTYuMSwxNC4ySDd2LTEuNWg5LjFWMTQuMnogTTIwLjIsMTIuN2wxLjIsMS4ybDMtMyYjMTA7JiM5OyYjOTsmIzk7bDEsMWwtNCw0bC0yLjItMi4yTDIwLjIsMTIuN3ogTTI0LjgsMjIuMmwtMSwxbC0xLjUtMS41bC0xLjUsMS41bC0xLTFsMS41LTEuNWwtMS41LTEuNWwxLTFsMS41LDEuNWwxLjUtMS41bDEsMWwtMS41LDEuNSYjMTA7JiM5OyYjOTsmIzk7TDI0LjgsMjIuMnogTTIwLjIsMjYuOGwxLjIsMS4ybDMtM2wxLDFsLTQsNGwtMi4yLTIuMkwyMC4yLDI2Ljh6Ii8+JiN4YTsJCTxwYXRoIHN0eWxlPSJmaWxsOiNCQjUwMUM7IiBkPSJNMTYuMiwxLjFMMSw3LjZ2MTQuMmMwLDAuMSwwLDMuNywyLDcuOGMxLjcsMy43LDUuNCw4LjYsMTMsMTEuNGwwLjMsMC4xbDAuMy0wLjEmIzEwOyYjOTsmIzk7JiM5O2MxNC42LTUuNCwxNC44LTE4LjcsMTQuOC0xOS4yVjcuNkwxNi4yLDEuMXogTTI5LjgsMjEuOGMwLDAuNS0wLjIsMTIuNi0xMy42LDE3LjdDMTAuNiwzNy40LDYuNiwzMy45LDQuMywyOSYjMTA7JiM5OyYjOTsmIzk7Yy0xLjgtMy45LTEuOC03LjEtMS44LTcuMlY4LjZsMTMuNy01LjlsMTMuNiw1LjlWMjEuOHoiLz4mI3hhOwkJPHJlY3QgeD0iNyIgeT0iMTIuNyIgc3R5bGU9ImZpbGw6I0JCNTAxQzsiIHdpZHRoPSI5LjEiIGhlaWdodD0iMS41Ii8+JiN4YTsJCTxwb2x5Z29uIHN0eWxlPSJmaWxsOiNCQjUwMUM7IiBwb2ludHM9IjI1LjQsMTIgMjQuMywxMSAyMS40LDEzLjkgMjAuMiwxMi43IDE5LjEsMTMuOCAyMS40LDE2ICYjOTsmIzk7Ii8+JiN4YTsJCTxyZWN0IHg9IjciIHk9IjIwIiBzdHlsZT0iZmlsbDojQkI1MDFDOyIgd2lkdGg9IjkuMSIgaGVpZ2h0PSIxLjUiLz4mI3hhOwkJPHBvbHlnb24gc3R5bGU9ImZpbGw6I0JCNTAxQzsiIHBvaW50cz0iMjMuOCwxOC4xIDIyLjMsMTkuNyAyMC43LDE4LjEgMTkuNywxOS4yIDIxLjIsMjAuNyAxOS43LDIyLjIgMjAuNywyMy4zIDIyLjMsMjEuOCAmIzEwOyYjOTsmIzk7JiM5OzIzLjgsMjMuMyAyNC44LDIyLjIgMjMuMywyMC43IDI0LjgsMTkuMiAmIzk7JiM5OyIvPiYjeGE7CQk8cmVjdCB4PSI3IiB5PSIyNi44IiBzdHlsZT0iZmlsbDojQkI1MDFDOyIgd2lkdGg9IjkuMSIgaGVpZ2h0PSIxLjUiLz4mI3hhOwkJPHBvbHlnb24gc3R5bGU9ImZpbGw6I0JCNTAxQzsiIHBvaW50cz0iMjUuNCwyNi4xIDI0LjMsMjUuMSAyMS40LDI4IDIwLjIsMjYuOCAxOS4xLDI3LjkgMjEuNCwzMC4xICYjOTsmIzk7Ii8+JiN4YTsJPC9nPiYjeGE7PC9nPiYjeGE7PC9zdmc+;dashed=1;dashPattern=1 1;strokeColor=#bb511c;strokeWidth=3;fontColor=#312D2A;fillColor=#FCFBFA;container=0;" parent="1" vertex="1">
                    <mxGeometry x="-220.0040948813982" y="6102.158924205379" width="21.3769369863697" height="28.053723079225335" as="geometry"/>
                </mxCell>
                <mxCell id="ZklWYCbI00s5IHxO9I_W-16" value="" style="shape=image;verticalLabelPosition=bottom;verticalAlign=top;imageAspect=0;aspect=fixed;image=data:image/svg+xml,PHN2ZyB4bWxucz0iaHR0cDovL3d3dy53My5vcmcvMjAwMC9zdmciIHhtbG5zOnhsaW5rPSJodHRwOi8vd3d3LnczLm9yZy8xOTk5L3hsaW5rIiB2ZXJzaW9uPSIxLjEiIGlkPSJMYXllcl8xIiB4PSIwcHgiIHk9IjBweCIgdmlld0JveD0iMCAwIDQyIDQyIiBzdHlsZT0iZW5hYmxlLWJhY2tncm91bmQ6bmV3IDAgMCA0MiA0MjsiIHhtbDpzcGFjZT0icHJlc2VydmUiIHdpZHRoPSI0MiIgaGVpZ2h0PSI0MiI+JiN4YTs8Zz4mI3hhOwk8Zz4mI3hhOwkJPHJlY3QgeD0iMC41IiB5PSIwLjUiIHN0eWxlPSJmaWxsOiNGRkZGRkY7IiB3aWR0aD0iNDEiIGhlaWdodD0iNDEiLz4mI3hhOwkJPHBhdGggc3R5bGU9ImZpbGw6I0ZGRkZGRjsiIGQ9Ik00MSwxdjQwSDFWMUg0MSBNNDIsMGgtMUgxSDB2MXY0MHYxaDFoNDBoMXYtMVYxVjBMNDIsMHoiLz4mI3hhOwk8L2c+JiN4YTsJPGc+JiN4YTsJCTxwYXRoIHN0eWxlPSJmaWxsOiNCQjUwMUM7IiBkPSJNMSwxdjQwaDQwVjFIMXogTTM5LjUsMTMuOEgxMy42VjIuNWgyNS45VjEzLjh6IE0yLjUsMjguMmg5LjZ2MTEuNEgyLjVWMjguMnogTTEyLjEsMi41djExLjRIMi41JiMxMDsmIzk7JiM5OyYjOTtWMi41SDEyLjF6IE0xMi4xLDE1LjN2MTEuNEgyLjVWMTUuM0gxMi4xeiBNMTMuNiwzOS41VjI4LjJoMjUuOXYxMS40SDEzLjZ6IE0xMy42LDI2LjdWMTUuM2gyNS45djExLjRIMTMuNnoiLz4mI3hhOwkJPHBvbHlnb24gc3R5bGU9ImZpbGw6I0JCNTAxQzsiIHBvaW50cz0iMTUsMTIuMyAxNi43LDEyLjMgMTcuNiwxMC42IDE4LjUsMTIuMyAyMC4xLDEyLjMgMTguNiw5LjYgMjAsNy4xIDE4LjQsNy4xIDE3LjYsOC43ICYjMTA7JiM5OyYjOTsmIzk7MTYuNyw3LjEgMTUuMSw3LjEgMTYuNiw5LjYgJiM5OyYjOTsiLz4mI3hhOwkJPHJlY3QgeD0iMjAuOSIgeT0iMTEuMSIgc3R5bGU9ImZpbGw6I0JCNTAxQzsiIHdpZHRoPSIxLjQiIGhlaWdodD0iMS4yIi8+JiN4YTsJCTxwb2x5Z29uIHN0eWxlPSJmaWxsOiNCQjUwMUM7IiBwb2ludHM9IjI1LDEyLjMgMjUuOSwxMC42IDI2LjgsMTIuMyAyOC40LDEyLjMgMjYuOCw5LjYgMjguMyw3LjEgMjYuOCw3LjEgMjUuOSw4LjcgMjUsNy4xICYjMTA7JiM5OyYjOTsmIzk7MjMuNCw3LjEgMjQuOSw5LjYgMjMuNCwxMi4zICYjOTsmIzk7Ii8+JiN4YTsJCTxyZWN0IHg9IjI4LjkiIHk9IjExLjEiIHN0eWxlPSJmaWxsOiNCQjUwMUM7IiB3aWR0aD0iMS40IiBoZWlnaHQ9IjEuMiIvPiYjeGE7CQk8cG9seWdvbiBzdHlsZT0iZmlsbDojQkI1MDFDOyIgcG9pbnRzPSIzMi43LDEyLjMgMzMuNiwxMC42IDM0LjYsMTIuMyAzNi4xLDEyLjMgMzQuNiw5LjYgMzYsNy4xIDM0LjUsNy4xIDMzLjYsOC43IDMyLjcsNy4xICYjMTA7JiM5OyYjOTsmIzk7MzEuMiw3LjEgMzIuNiw5LjYgMzEuMSwxMi4zICYjOTsmIzk7Ii8+JiN4YTsJCTxyZWN0IHg9IjM2LjYiIHk9IjExLjEiIHN0eWxlPSJmaWxsOiNCQjUwMUM7IiB3aWR0aD0iMS40IiBoZWlnaHQ9IjEuMiIvPiYjeGE7CQk8cG9seWdvbiBzdHlsZT0iZmlsbDojQkI1MDFDOyIgcG9pbnRzPSIyMCwyMC4xIDE4LjQsMjAuMSAxNy42LDIxLjcgMTYuNywyMC4xIDE1LjEsMjAuMSAxNi42LDIyLjYgMTUsMjUuMyAxNi43LDI1LjMgMTcuNiwyMy42ICYjMTA7JiM5OyYjOTsmIzk7MTguNSwyNS4zIDIwLjEsMjUuMyAxOC42LDIyLjYgJiM5OyYjOTsiLz4mI3hhOwkJPHJlY3QgeD0iMjAuOSIgeT0iMjQiIHN0eWxlPSJmaWxsOiNCQjUwMUM7IiB3aWR0aD0iMS40IiBoZWlnaHQ9IjEuMiIvPiYjeGE7CQk8cG9seWdvbiBzdHlsZT0iZmlsbDojQkI1MDFDOyIgcG9pbnRzPSIyOC4zLDIwLjEgMjYuOCwyMC4xIDI1LjksMjEuNyAyNSwyMC4xIDIzLjQsMjAuMSAyNC45LDIyLjYgMjMuNCwyNS4zIDI1LDI1LjMgMjUuOSwyMy42ICYjMTA7JiM5OyYjOTsmIzk7MjYuOCwyNS4zIDI4LjQsMjUuMyAyNi44LDIyLjYgJiM5OyYjOTsiLz4mI3hhOwkJPHJlY3QgeD0iMjguOSIgeT0iMjQiIHN0eWxlPSJmaWxsOiNCQjUwMUM7IiB3aWR0aD0iMS40IiBoZWlnaHQ9IjEuMiIvPiYjeGE7CQk8cG9seWdvbiBzdHlsZT0iZmlsbDojQkI1MDFDOyIgcG9pbnRzPSIzNiwyMC4xIDM0LjUsMjAuMSAzMy42LDIxLjcgMzIuNywyMC4xIDMxLjIsMjAuMSAzMi42LDIyLjYgMzEuMSwyNS4zIDMyLjcsMjUuMyAmIzEwOyYjOTsmIzk7JiM5OzMzLjYsMjMuNiAzNC42LDI1LjMgMzYuMSwyNS4zIDM0LjYsMjIuNiAmIzk7JiM5OyIvPiYjeGE7CQk8cmVjdCB4PSIzNi42IiB5PSIyNCIgc3R5bGU9ImZpbGw6I0JCNTAxQzsiIHdpZHRoPSIxLjQiIGhlaWdodD0iMS4yIi8+JiN4YTsJCTxwb2x5Z29uIHN0eWxlPSJmaWxsOiNCQjUwMUM7IiBwb2ludHM9IjIwLDMyLjkgMTguNCwzMi45IDE3LjYsMzQuNCAxNi43LDMyLjkgMTUuMSwzMi45IDE2LjYsMzUuMyAxNSwzOCAxNi43LDM4IDE3LjYsMzYuMyAmIzEwOyYjOTsmIzk7JiM5OzE4LjUsMzggMjAuMSwzOCAxOC42LDM1LjQgJiM5OyYjOTsiLz4mI3hhOwkJPHJlY3QgeD0iMjAuOSIgeT0iMzYuOCIgc3R5bGU9ImZpbGw6I0JCNTAxQzsiIHdpZHRoPSIxLjQiIGhlaWdodD0iMS4yIi8+JiN4YTsJCTxwb2x5Z29uIHN0eWxlPSJmaWxsOiNCQjUwMUM7IiBwb2ludHM9IjI4LjMsMzIuOSAyNi44LDMyLjkgMjUuOSwzNC40IDI1LDMyLjkgMjMuNCwzMi45IDI0LjksMzUuMyAyMy40LDM4IDI1LDM4IDI1LjksMzYuMyAmIzEwOyYjOTsmIzk7JiM5OzI2LjgsMzggMjguNCwzOCAyNi44LDM1LjQgJiM5OyYjOTsiLz4mI3hhOwkJPHJlY3QgeD0iMjguOSIgeT0iMzYuOCIgc3R5bGU9ImZpbGw6I0JCNTAxQzsiIHdpZHRoPSIxLjQiIGhlaWdodD0iMS4yIi8+JiN4YTsJCTxwb2x5Z29uIHN0eWxlPSJmaWxsOiNCQjUwMUM7IiBwb2ludHM9IjM2LDMyLjkgMzQuNSwzMi45IDMzLjYsMzQuNCAzMi43LDMyLjkgMzEuMiwzMi45IDMyLjYsMzUuMyAzMS4xLDM4IDMyLjcsMzggMzMuNiwzNi4zICYjMTA7JiM5OyYjOTsmIzk7MzQuNiwzOCAzNi4xLDM4IDM0LjYsMzUuNCAmIzk7JiM5OyIvPiYjeGE7CQk8cmVjdCB4PSIzNi42IiB5PSIzNi44IiBzdHlsZT0iZmlsbDojQkI1MDFDOyIgd2lkdGg9IjEuNCIgaGVpZ2h0PSIxLjIiLz4mI3hhOwk8L2c+JiN4YTs8L2c+JiN4YTs8L3N2Zz4=;fontColor=#312D2A;strokeColor=#AE562C;fillColor=#FCFBFA;container=0;" parent="1" vertex="1">
                    <mxGeometry x="-189.99930087390743" y="6102.758924205379" width="28.053723079225335" height="28.053723079225335" as="geometry"/>
                </mxCell>
                <mxCell id="ZklWYCbI00s5IHxO9I_W-17" value="" style="shape=image;verticalLabelPosition=bottom;verticalAlign=top;imageAspect=0;aspect=fixed;image=data:image/svg+xml,PHN2ZyB4bWxucz0iaHR0cDovL3d3dy53My5vcmcvMjAwMC9zdmciIHhtbG5zOnhsaW5rPSJodHRwOi8vd3d3LnczLm9yZy8xOTk5L3hsaW5rIiB2ZXJzaW9uPSIxLjEiIGlkPSJMYXllcl8xIiB4PSIwcHgiIHk9IjBweCIgdmlld0JveD0iMCAwIDQyIDQyIiBzdHlsZT0iZW5hYmxlLWJhY2tncm91bmQ6bmV3IDAgMCA0MiA0MjsiIHhtbDpzcGFjZT0icHJlc2VydmUiIHdpZHRoPSI0MiIgaGVpZ2h0PSI0MiI+JiN4YTs8Zz4mI3hhOwk8Zz4mI3hhOwkJPHJlY3QgeD0iMC41IiB5PSIwLjUiIHN0eWxlPSJmaWxsOiNGRkZGRkY7IiB3aWR0aD0iNDEiIGhlaWdodD0iNDEiLz4mI3hhOwkJPHBhdGggc3R5bGU9ImZpbGw6I0ZGRkZGRjsiIGQ9Ik00MSwxdjQwSDFWMUg0MSBNNDIsMGgtMUgxSDB2MXY0MHYxaDFoNDBoMXYtMVYxVjBMNDIsMHoiLz4mI3hhOwk8L2c+JiN4YTsJPGc+JiN4YTsJCTxwYXRoIHN0eWxlPSJmaWxsOiNCQjUwMUM7IiBkPSJNMSwxdjQwaDQwVjFIMXogTTM5LjUsMTMuOEgxMy42VjIuNWgyNS45VjEzLjh6IE0yLjUsMjguMmg5LjZ2MTEuNEgyLjVWMjguMnogTTEyLjEsMi41djExLjRIMi41JiMxMDsmIzk7JiM5OyYjOTtWMi41SDEyLjF6IE0xMi4xLDE1LjN2MTEuNEgyLjVWMTUuM0gxMi4xeiBNMTMuNiwzOS41VjI4LjJoMjUuOXYxMS40SDEzLjZ6IE0xMy42LDI2LjdWMTUuM2gyNS45djExLjRIMTMuNnoiLz4mI3hhOwkJPHBvbHlnb24gc3R5bGU9ImZpbGw6I0JCNTAxQzsiIHBvaW50cz0iMTUsMTIuMyAxNi43LDEyLjMgMTcuNiwxMC42IDE4LjUsMTIuMyAyMC4xLDEyLjMgMTguNiw5LjYgMjAsNy4xIDE4LjQsNy4xIDE3LjYsOC43ICYjMTA7JiM5OyYjOTsmIzk7MTYuNyw3LjEgMTUuMSw3LjEgMTYuNiw5LjYgJiM5OyYjOTsiLz4mI3hhOwkJPHJlY3QgeD0iMjAuOSIgeT0iMTEuMSIgc3R5bGU9ImZpbGw6I0JCNTAxQzsiIHdpZHRoPSIxLjQiIGhlaWdodD0iMS4yIi8+JiN4YTsJCTxwb2x5Z29uIHN0eWxlPSJmaWxsOiNCQjUwMUM7IiBwb2ludHM9IjI1LDEyLjMgMjUuOSwxMC42IDI2LjgsMTIuMyAyOC40LDEyLjMgMjYuOCw5LjYgMjguMyw3LjEgMjYuOCw3LjEgMjUuOSw4LjcgMjUsNy4xICYjMTA7JiM5OyYjOTsmIzk7MjMuNCw3LjEgMjQuOSw5LjYgMjMuNCwxMi4zICYjOTsmIzk7Ii8+JiN4YTsJCTxyZWN0IHg9IjI4LjkiIHk9IjExLjEiIHN0eWxlPSJmaWxsOiNCQjUwMUM7IiB3aWR0aD0iMS40IiBoZWlnaHQ9IjEuMiIvPiYjeGE7CQk8cG9seWdvbiBzdHlsZT0iZmlsbDojQkI1MDFDOyIgcG9pbnRzPSIzMi43LDEyLjMgMzMuNiwxMC42IDM0LjYsMTIuMyAzNi4xLDEyLjMgMzQuNiw5LjYgMzYsNy4xIDM0LjUsNy4xIDMzLjYsOC43IDMyLjcsNy4xICYjMTA7JiM5OyYjOTsmIzk7MzEuMiw3LjEgMzIuNiw5LjYgMzEuMSwxMi4zICYjOTsmIzk7Ii8+JiN4YTsJCTxyZWN0IHg9IjM2LjYiIHk9IjExLjEiIHN0eWxlPSJmaWxsOiNCQjUwMUM7IiB3aWR0aD0iMS40IiBoZWlnaHQ9IjEuMiIvPiYjeGE7CQk8cG9seWdvbiBzdHlsZT0iZmlsbDojQkI1MDFDOyIgcG9pbnRzPSIyMCwyMC4xIDE4LjQsMjAuMSAxNy42LDIxLjcgMTYuNywyMC4xIDE1LjEsMjAuMSAxNi42LDIyLjYgMTUsMjUuMyAxNi43LDI1LjMgMTcuNiwyMy42ICYjMTA7JiM5OyYjOTsmIzk7MTguNSwyNS4zIDIwLjEsMjUuMyAxOC42LDIyLjYgJiM5OyYjOTsiLz4mI3hhOwkJPHJlY3QgeD0iMjAuOSIgeT0iMjQiIHN0eWxlPSJmaWxsOiNCQjUwMUM7IiB3aWR0aD0iMS40IiBoZWlnaHQ9IjEuMiIvPiYjeGE7CQk8cG9seWdvbiBzdHlsZT0iZmlsbDojQkI1MDFDOyIgcG9pbnRzPSIyOC4zLDIwLjEgMjYuOCwyMC4xIDI1LjksMjEuNyAyNSwyMC4xIDIzLjQsMjAuMSAyNC45LDIyLjYgMjMuNCwyNS4zIDI1LDI1LjMgMjUuOSwyMy42ICYjMTA7JiM5OyYjOTsmIzk7MjYuOCwyNS4zIDI4LjQsMjUuMyAyNi44LDIyLjYgJiM5OyYjOTsiLz4mI3hhOwkJPHJlY3QgeD0iMjguOSIgeT0iMjQiIHN0eWxlPSJmaWxsOiNCQjUwMUM7IiB3aWR0aD0iMS40IiBoZWlnaHQ9IjEuMiIvPiYjeGE7CQk8cG9seWdvbiBzdHlsZT0iZmlsbDojQkI1MDFDOyIgcG9pbnRzPSIzNiwyMC4xIDM0LjUsMjAuMSAzMy42LDIxLjcgMzIuNywyMC4xIDMxLjIsMjAuMSAzMi42LDIyLjYgMzEuMSwyNS4zIDMyLjcsMjUuMyAmIzEwOyYjOTsmIzk7JiM5OzMzLjYsMjMuNiAzNC42LDI1LjMgMzYuMSwyNS4zIDM0LjYsMjIuNiAmIzk7JiM5OyIvPiYjeGE7CQk8cmVjdCB4PSIzNi42IiB5PSIyNCIgc3R5bGU9ImZpbGw6I0JCNTAxQzsiIHdpZHRoPSIxLjQiIGhlaWdodD0iMS4yIi8+JiN4YTsJCTxwb2x5Z29uIHN0eWxlPSJmaWxsOiNCQjUwMUM7IiBwb2ludHM9IjIwLDMyLjkgMTguNCwzMi45IDE3LjYsMzQuNCAxNi43LDMyLjkgMTUuMSwzMi45IDE2LjYsMzUuMyAxNSwzOCAxNi43LDM4IDE3LjYsMzYuMyAmIzEwOyYjOTsmIzk7JiM5OzE4LjUsMzggMjAuMSwzOCAxOC42LDM1LjQgJiM5OyYjOTsiLz4mI3hhOwkJPHJlY3QgeD0iMjAuOSIgeT0iMzYuOCIgc3R5bGU9ImZpbGw6I0JCNTAxQzsiIHdpZHRoPSIxLjQiIGhlaWdodD0iMS4yIi8+JiN4YTsJCTxwb2x5Z29uIHN0eWxlPSJmaWxsOiNCQjUwMUM7IiBwb2ludHM9IjI4LjMsMzIuOSAyNi44LDMyLjkgMjUuOSwzNC40IDI1LDMyLjkgMjMuNCwzMi45IDI0LjksMzUuMyAyMy40LDM4IDI1LDM4IDI1LjksMzYuMyAmIzEwOyYjOTsmIzk7JiM5OzI2LjgsMzggMjguNCwzOCAyNi44LDM1LjQgJiM5OyYjOTsiLz4mI3hhOwkJPHJlY3QgeD0iMjguOSIgeT0iMzYuOCIgc3R5bGU9ImZpbGw6I0JCNTAxQzsiIHdpZHRoPSIxLjQiIGhlaWdodD0iMS4yIi8+JiN4YTsJCTxwb2x5Z29uIHN0eWxlPSJmaWxsOiNCQjUwMUM7IiBwb2ludHM9IjM2LDMyLjkgMzQuNSwzMi45IDMzLjYsMzQuNCAzMi43LDMyLjkgMzEuMiwzMi45IDMyLjYsMzUuMyAzMS4xLDM4IDMyLjcsMzggMzMuNiwzNi4zICYjMTA7JiM5OyYjOTsmIzk7MzQuNiwzOCAzNi4xLDM4IDM0LjYsMzUuNCAmIzk7JiM5OyIvPiYjeGE7CQk8cmVjdCB4PSIzNi42IiB5PSIzNi44IiBzdHlsZT0iZmlsbDojQkI1MDFDOyIgd2lkdGg9IjEuNCIgaGVpZ2h0PSIxLjIiLz4mI3hhOwk8L2c+JiN4YTs8L2c+JiN4YTs8L3N2Zz4=;fontColor=#312D2A;strokeColor=#AE562C;fillColor=#FCFBFA;container=0;" parent="1" vertex="1">
                    <mxGeometry x="-537.5193008739075" y="6430.000244498777" width="28.053723079225335" height="28.053723079225335" as="geometry"/>
                </mxCell>
                <mxCell id="ZklWYCbI00s5IHxO9I_W-18" value="" style="shape=image;verticalLabelPosition=bottom;verticalAlign=top;imageAspect=0;aspect=fixed;image=data:image/svg+xml,PHN2ZyB4bWxucz0iaHR0cDovL3d3dy53My5vcmcvMjAwMC9zdmciIHhtbG5zOnhsaW5rPSJodHRwOi8vd3d3LnczLm9yZy8xOTk5L3hsaW5rIiB2ZXJzaW9uPSIxLjEiIGlkPSJMYXllcl8xIiB4PSIwcHgiIHk9IjBweCIgdmlld0JveD0iMCAwIDMyLjM5OTk5NzcxMTE4MTY0IDQyLjE5OTk5Njk0ODI0MjE5IiBzdHlsZT0iZW5hYmxlLWJhY2tncm91bmQ6bmV3IDAgMCAzMi4zIDQyLjI7IiB4bWw6c3BhY2U9InByZXNlcnZlIiB3aWR0aD0iMzIuMzk5OTk3NzExMTgxNjQiIGhlaWdodD0iNDIuMTk5OTk2OTQ4MjQyMTkiPiYjeGE7PGc+JiN4YTsJPGc+JiN4YTsJCTxwYXRoIHN0eWxlPSJmaWxsOiNGRkZGRkY7IiBkPSJNMTUuOCw0MS41QzgsMzguNiw0LjMsMzMuNiwyLjUsMjkuOGMtMi00LjMtMi03LjktMi04LjFWNy4zbDE1LjctNi43bDE1LjYsNi43djE0LjUmIzEwOyYjOTsmIzk7JiM5O2MwLDAuNi0wLjIsMTQuMi0xNS4xLDE5LjdsLTAuNCwwLjJMMTUuOCw0MS41eiIvPiYjeGE7CQk8cGF0aCBzdHlsZT0iZmlsbDojRkZGRkZGOyIgZD0iTTE2LjIsMS4xbDE1LjEsNi41djE0LjJjMCwwLjYtMC4yLDEzLjgtMTQuOCwxOS4ybC0wLjMsMC4xTDE2LDQxQzguMywzOC4yLDQuNywzMy4zLDMsMjkuNiYjMTA7JiM5OyYjOTsmIzk7Yy0xLjktNC4xLTItNy43LTItNy44VjcuNkwxNi4yLDEuMSBNMTYuMiwwbC0wLjQsMC4yTDAuNiw2LjdMMCw2Ljl2MC43djE0LjJjMCwwLjIsMCwzLjksMi4xLDguM2MxLjgsMy44LDUuNiw5LDEzLjYsMTEuOSYjMTA7JiM5OyYjOTsmIzk7bDAuMywwLjFsMC4zLDAuMWwwLjMtMC4xbDAuMy0wLjFjMTUuMy01LjYsMTUuNS0xOS42LDE1LjUtMjAuMlY3LjZWNi45bC0wLjYtMC4zTDE2LjYsMC4yTDE2LjIsMEwxNi4yLDB6Ii8+JiN4YTsJPC9nPiYjeGE7CTxnPiYjeGE7CQk8cGF0aCBzdHlsZT0iZmlsbDpub25lOyIgZD0iTTIuNSw4LjZ2MTMuMmMwLDAuMSwwLDMuNCwxLjgsNy4yYzIuMyw0LjksNi4zLDguNCwxMS45LDEwLjVjMTMuNC01LjEsMTMuNi0xNy4yLDEzLjYtMTcuN1Y4LjYmIzEwOyYjOTsmIzk7JiM5O0wxNi4yLDIuN0wyLjUsOC42eiBNMTYuMSwyOC4zSDd2LTEuNWg5LjFWMjguM3ogTTE2LjEsMjEuNUg3VjIwaDkuMVYyMS41eiBNMTYuMSwxNC4ySDd2LTEuNWg5LjFWMTQuMnogTTIwLjIsMTIuN2wxLjIsMS4ybDMtMyYjMTA7JiM5OyYjOTsmIzk7bDEsMWwtNCw0bC0yLjItMi4yTDIwLjIsMTIuN3ogTTI0LjgsMjIuMmwtMSwxbC0xLjUtMS41bC0xLjUsMS41bC0xLTFsMS41LTEuNWwtMS41LTEuNWwxLTFsMS41LDEuNWwxLjUtMS41bDEsMWwtMS41LDEuNSYjMTA7JiM5OyYjOTsmIzk7TDI0LjgsMjIuMnogTTIwLjIsMjYuOGwxLjIsMS4ybDMtM2wxLDFsLTQsNGwtMi4yLTIuMkwyMC4yLDI2Ljh6Ii8+JiN4YTsJCTxwYXRoIHN0eWxlPSJmaWxsOiNCQjUwMUM7IiBkPSJNMTYuMiwxLjFMMSw3LjZ2MTQuMmMwLDAuMSwwLDMuNywyLDcuOGMxLjcsMy43LDUuNCw4LjYsMTMsMTEuNGwwLjMsMC4xbDAuMy0wLjEmIzEwOyYjOTsmIzk7JiM5O2MxNC42LTUuNCwxNC44LTE4LjcsMTQuOC0xOS4yVjcuNkwxNi4yLDEuMXogTTI5LjgsMjEuOGMwLDAuNS0wLjIsMTIuNi0xMy42LDE3LjdDMTAuNiwzNy40LDYuNiwzMy45LDQuMywyOSYjMTA7JiM5OyYjOTsmIzk7Yy0xLjgtMy45LTEuOC03LjEtMS44LTcuMlY4LjZsMTMuNy01LjlsMTMuNiw1LjlWMjEuOHoiLz4mI3hhOwkJPHJlY3QgeD0iNyIgeT0iMTIuNyIgc3R5bGU9ImZpbGw6I0JCNTAxQzsiIHdpZHRoPSI5LjEiIGhlaWdodD0iMS41Ii8+JiN4YTsJCTxwb2x5Z29uIHN0eWxlPSJmaWxsOiNCQjUwMUM7IiBwb2ludHM9IjI1LjQsMTIgMjQuMywxMSAyMS40LDEzLjkgMjAuMiwxMi43IDE5LjEsMTMuOCAyMS40LDE2ICYjOTsmIzk7Ii8+JiN4YTsJCTxyZWN0IHg9IjciIHk9IjIwIiBzdHlsZT0iZmlsbDojQkI1MDFDOyIgd2lkdGg9IjkuMSIgaGVpZ2h0PSIxLjUiLz4mI3hhOwkJPHBvbHlnb24gc3R5bGU9ImZpbGw6I0JCNTAxQzsiIHBvaW50cz0iMjMuOCwxOC4xIDIyLjMsMTkuNyAyMC43LDE4LjEgMTkuNywxOS4yIDIxLjIsMjAuNyAxOS43LDIyLjIgMjAuNywyMy4zIDIyLjMsMjEuOCAmIzEwOyYjOTsmIzk7JiM5OzIzLjgsMjMuMyAyNC44LDIyLjIgMjMuMywyMC43IDI0LjgsMTkuMiAmIzk7JiM5OyIvPiYjeGE7CQk8cmVjdCB4PSI3IiB5PSIyNi44IiBzdHlsZT0iZmlsbDojQkI1MDFDOyIgd2lkdGg9IjkuMSIgaGVpZ2h0PSIxLjUiLz4mI3hhOwkJPHBvbHlnb24gc3R5bGU9ImZpbGw6I0JCNTAxQzsiIHBvaW50cz0iMjUuNCwyNi4xIDI0LjMsMjUuMSAyMS40LDI4IDIwLjIsMjYuOCAxOS4xLDI3LjkgMjEuNCwzMC4xICYjOTsmIzk7Ii8+JiN4YTsJPC9nPiYjeGE7PC9nPiYjeGE7PC9zdmc+;dashed=1;dashPattern=1 1;strokeColor=#bb511c;strokeWidth=3;fontColor=#312D2A;fillColor=#FCFBFA;container=0;" parent="1" vertex="1">
                    <mxGeometry x="-568.6840948813982" y="6430.000244498777" width="21.3769369863697" height="28.053723079225335" as="geometry"/>
                </mxCell>
                <mxCell id="ZklWYCbI00s5IHxO9I_W-23" value="" style="shape=image;verticalLabelPosition=bottom;verticalAlign=top;imageAspect=0;aspect=fixed;image=data:image/svg+xml,PHN2ZyB4bWxucz0iaHR0cDovL3d3dy53My5vcmcvMjAwMC9zdmciIHhtbG5zOnhsaW5rPSJodHRwOi8vd3d3LnczLm9yZy8xOTk5L3hsaW5rIiB2ZXJzaW9uPSIxLjEiIGlkPSJMYXllcl8xIiB4PSIwcHgiIHk9IjBweCIgdmlld0JveD0iMCAwIDMyLjM5OTk5NzcxMTE4MTY0IDQyLjE5OTk5Njk0ODI0MjE5IiBzdHlsZT0iZW5hYmxlLWJhY2tncm91bmQ6bmV3IDAgMCAzMi4zIDQyLjI7IiB4bWw6c3BhY2U9InByZXNlcnZlIiB3aWR0aD0iMzIuMzk5OTk3NzExMTgxNjQiIGhlaWdodD0iNDIuMTk5OTk2OTQ4MjQyMTkiPiYjeGE7PGc+JiN4YTsJPGc+JiN4YTsJCTxwYXRoIHN0eWxlPSJmaWxsOiNGRkZGRkY7IiBkPSJNMTUuOCw0MS41QzgsMzguNiw0LjMsMzMuNiwyLjUsMjkuOGMtMi00LjMtMi03LjktMi04LjFWNy4zbDE1LjctNi43bDE1LjYsNi43djE0LjUmIzEwOyYjOTsmIzk7JiM5O2MwLDAuNi0wLjIsMTQuMi0xNS4xLDE5LjdsLTAuNCwwLjJMMTUuOCw0MS41eiIvPiYjeGE7CQk8cGF0aCBzdHlsZT0iZmlsbDojRkZGRkZGOyIgZD0iTTE2LjIsMS4xbDE1LjEsNi41djE0LjJjMCwwLjYtMC4yLDEzLjgtMTQuOCwxOS4ybC0wLjMsMC4xTDE2LDQxQzguMywzOC4yLDQuNywzMy4zLDMsMjkuNiYjMTA7JiM5OyYjOTsmIzk7Yy0xLjktNC4xLTItNy43LTItNy44VjcuNkwxNi4yLDEuMSBNMTYuMiwwbC0wLjQsMC4yTDAuNiw2LjdMMCw2Ljl2MC43djE0LjJjMCwwLjIsMCwzLjksMi4xLDguM2MxLjgsMy44LDUuNiw5LDEzLjYsMTEuOSYjMTA7JiM5OyYjOTsmIzk7bDAuMywwLjFsMC4zLDAuMWwwLjMtMC4xbDAuMy0wLjFjMTUuMy01LjYsMTUuNS0xOS42LDE1LjUtMjAuMlY3LjZWNi45bC0wLjYtMC4zTDE2LjYsMC4yTDE2LjIsMEwxNi4yLDB6Ii8+JiN4YTsJPC9nPiYjeGE7CTxnPiYjeGE7CQk8cGF0aCBzdHlsZT0iZmlsbDpub25lOyIgZD0iTTIuNSw4LjZ2MTMuMmMwLDAuMSwwLDMuNCwxLjgsNy4yYzIuMyw0LjksNi4zLDguNCwxMS45LDEwLjVjMTMuNC01LjEsMTMuNi0xNy4yLDEzLjYtMTcuN1Y4LjYmIzEwOyYjOTsmIzk7JiM5O0wxNi4yLDIuN0wyLjUsOC42eiBNMTYuMSwyOC4zSDd2LTEuNWg5LjFWMjguM3ogTTE2LjEsMjEuNUg3VjIwaDkuMVYyMS41eiBNMTYuMSwxNC4ySDd2LTEuNWg5LjFWMTQuMnogTTIwLjIsMTIuN2wxLjIsMS4ybDMtMyYjMTA7JiM5OyYjOTsmIzk7bDEsMWwtNCw0bC0yLjItMi4yTDIwLjIsMTIuN3ogTTI0LjgsMjIuMmwtMSwxbC0xLjUtMS41bC0xLjUsMS41bC0xLTFsMS41LTEuNWwtMS41LTEuNWwxLTFsMS41LDEuNWwxLjUtMS41bDEsMWwtMS41LDEuNSYjMTA7JiM5OyYjOTsmIzk7TDI0LjgsMjIuMnogTTIwLjIsMjYuOGwxLjIsMS4ybDMtM2wxLDFsLTQsNGwtMi4yLTIuMkwyMC4yLDI2Ljh6Ii8+JiN4YTsJCTxwYXRoIHN0eWxlPSJmaWxsOiNCQjUwMUM7IiBkPSJNMTYuMiwxLjFMMSw3LjZ2MTQuMmMwLDAuMSwwLDMuNywyLDcuOGMxLjcsMy43LDUuNCw4LjYsMTMsMTEuNGwwLjMsMC4xbDAuMy0wLjEmIzEwOyYjOTsmIzk7JiM5O2MxNC42LTUuNCwxNC44LTE4LjcsMTQuOC0xOS4yVjcuNkwxNi4yLDEuMXogTTI5LjgsMjEuOGMwLDAuNS0wLjIsMTIuNi0xMy42LDE3LjdDMTAuNiwzNy40LDYuNiwzMy45LDQuMywyOSYjMTA7JiM5OyYjOTsmIzk7Yy0xLjgtMy45LTEuOC03LjEtMS44LTcuMlY4LjZsMTMuNy01LjlsMTMuNiw1LjlWMjEuOHoiLz4mI3hhOwkJPHJlY3QgeD0iNyIgeT0iMTIuNyIgc3R5bGU9ImZpbGw6I0JCNTAxQzsiIHdpZHRoPSI5LjEiIGhlaWdodD0iMS41Ii8+JiN4YTsJCTxwb2x5Z29uIHN0eWxlPSJmaWxsOiNCQjUwMUM7IiBwb2ludHM9IjI1LjQsMTIgMjQuMywxMSAyMS40LDEzLjkgMjAuMiwxMi43IDE5LjEsMTMuOCAyMS40LDE2ICYjOTsmIzk7Ii8+JiN4YTsJCTxyZWN0IHg9IjciIHk9IjIwIiBzdHlsZT0iZmlsbDojQkI1MDFDOyIgd2lkdGg9IjkuMSIgaGVpZ2h0PSIxLjUiLz4mI3hhOwkJPHBvbHlnb24gc3R5bGU9ImZpbGw6I0JCNTAxQzsiIHBvaW50cz0iMjMuOCwxOC4xIDIyLjMsMTkuNyAyMC43LDE4LjEgMTkuNywxOS4yIDIxLjIsMjAuNyAxOS43LDIyLjIgMjAuNywyMy4zIDIyLjMsMjEuOCAmIzEwOyYjOTsmIzk7JiM5OzIzLjgsMjMuMyAyNC44LDIyLjIgMjMuMywyMC43IDI0LjgsMTkuMiAmIzk7JiM5OyIvPiYjeGE7CQk8cmVjdCB4PSI3IiB5PSIyNi44IiBzdHlsZT0iZmlsbDojQkI1MDFDOyIgd2lkdGg9IjkuMSIgaGVpZ2h0PSIxLjUiLz4mI3hhOwkJPHBvbHlnb24gc3R5bGU9ImZpbGw6I0JCNTAxQzsiIHBvaW50cz0iMjUuNCwyNi4xIDI0LjMsMjUuMSAyMS40LDI4IDIwLjIsMjYuOCAxOS4xLDI3LjkgMjEuNCwzMC4xICYjOTsmIzk7Ii8+JiN4YTsJPC9nPiYjeGE7PC9nPiYjeGE7PC9zdmc+;dashed=1;dashPattern=1 1;strokeColor=#bb511c;strokeWidth=3;fontColor=#312D2A;fillColor=#FCFBFA;container=0;" parent="1" vertex="1">
                    <mxGeometry x="-568.6623096129838" y="6102.758924205379" width="21.3769369863697" height="28.053723079225335" as="geometry"/>
                </mxCell>
                <mxCell id="ZklWYCbI00s5IHxO9I_W-24" value="" style="shape=image;verticalLabelPosition=bottom;verticalAlign=top;imageAspect=0;aspect=fixed;image=data:image/svg+xml,PHN2ZyB4bWxucz0iaHR0cDovL3d3dy53My5vcmcvMjAwMC9zdmciIHhtbG5zOnhsaW5rPSJodHRwOi8vd3d3LnczLm9yZy8xOTk5L3hsaW5rIiB2ZXJzaW9uPSIxLjEiIGlkPSJMYXllcl8xIiB4PSIwcHgiIHk9IjBweCIgdmlld0JveD0iMCAwIDQyIDQyIiBzdHlsZT0iZW5hYmxlLWJhY2tncm91bmQ6bmV3IDAgMCA0MiA0MjsiIHhtbDpzcGFjZT0icHJlc2VydmUiIHdpZHRoPSI0MiIgaGVpZ2h0PSI0MiI+JiN4YTs8Zz4mI3hhOwk8Zz4mI3hhOwkJPHJlY3QgeD0iMC41IiB5PSIwLjUiIHN0eWxlPSJmaWxsOiNGRkZGRkY7IiB3aWR0aD0iNDEiIGhlaWdodD0iNDEiLz4mI3hhOwkJPHBhdGggc3R5bGU9ImZpbGw6I0ZGRkZGRjsiIGQ9Ik00MSwxdjQwSDFWMUg0MSBNNDIsMGgtMUgxSDB2MXY0MHYxaDFoNDBoMXYtMVYxVjBMNDIsMHoiLz4mI3hhOwk8L2c+JiN4YTsJPGc+JiN4YTsJCTxwYXRoIHN0eWxlPSJmaWxsOiNCQjUwMUM7IiBkPSJNMSwxdjQwaDQwVjFIMXogTTM5LjUsMTMuOEgxMy42VjIuNWgyNS45VjEzLjh6IE0yLjUsMjguMmg5LjZ2MTEuNEgyLjVWMjguMnogTTEyLjEsMi41djExLjRIMi41JiMxMDsmIzk7JiM5OyYjOTtWMi41SDEyLjF6IE0xMi4xLDE1LjN2MTEuNEgyLjVWMTUuM0gxMi4xeiBNMTMuNiwzOS41VjI4LjJoMjUuOXYxMS40SDEzLjZ6IE0xMy42LDI2LjdWMTUuM2gyNS45djExLjRIMTMuNnoiLz4mI3hhOwkJPHBvbHlnb24gc3R5bGU9ImZpbGw6I0JCNTAxQzsiIHBvaW50cz0iMTUsMTIuMyAxNi43LDEyLjMgMTcuNiwxMC42IDE4LjUsMTIuMyAyMC4xLDEyLjMgMTguNiw5LjYgMjAsNy4xIDE4LjQsNy4xIDE3LjYsOC43ICYjMTA7JiM5OyYjOTsmIzk7MTYuNyw3LjEgMTUuMSw3LjEgMTYuNiw5LjYgJiM5OyYjOTsiLz4mI3hhOwkJPHJlY3QgeD0iMjAuOSIgeT0iMTEuMSIgc3R5bGU9ImZpbGw6I0JCNTAxQzsiIHdpZHRoPSIxLjQiIGhlaWdodD0iMS4yIi8+JiN4YTsJCTxwb2x5Z29uIHN0eWxlPSJmaWxsOiNCQjUwMUM7IiBwb2ludHM9IjI1LDEyLjMgMjUuOSwxMC42IDI2LjgsMTIuMyAyOC40LDEyLjMgMjYuOCw5LjYgMjguMyw3LjEgMjYuOCw3LjEgMjUuOSw4LjcgMjUsNy4xICYjMTA7JiM5OyYjOTsmIzk7MjMuNCw3LjEgMjQuOSw5LjYgMjMuNCwxMi4zICYjOTsmIzk7Ii8+JiN4YTsJCTxyZWN0IHg9IjI4LjkiIHk9IjExLjEiIHN0eWxlPSJmaWxsOiNCQjUwMUM7IiB3aWR0aD0iMS40IiBoZWlnaHQ9IjEuMiIvPiYjeGE7CQk8cG9seWdvbiBzdHlsZT0iZmlsbDojQkI1MDFDOyIgcG9pbnRzPSIzMi43LDEyLjMgMzMuNiwxMC42IDM0LjYsMTIuMyAzNi4xLDEyLjMgMzQuNiw5LjYgMzYsNy4xIDM0LjUsNy4xIDMzLjYsOC43IDMyLjcsNy4xICYjMTA7JiM5OyYjOTsmIzk7MzEuMiw3LjEgMzIuNiw5LjYgMzEuMSwxMi4zICYjOTsmIzk7Ii8+JiN4YTsJCTxyZWN0IHg9IjM2LjYiIHk9IjExLjEiIHN0eWxlPSJmaWxsOiNCQjUwMUM7IiB3aWR0aD0iMS40IiBoZWlnaHQ9IjEuMiIvPiYjeGE7CQk8cG9seWdvbiBzdHlsZT0iZmlsbDojQkI1MDFDOyIgcG9pbnRzPSIyMCwyMC4xIDE4LjQsMjAuMSAxNy42LDIxLjcgMTYuNywyMC4xIDE1LjEsMjAuMSAxNi42LDIyLjYgMTUsMjUuMyAxNi43LDI1LjMgMTcuNiwyMy42ICYjMTA7JiM5OyYjOTsmIzk7MTguNSwyNS4zIDIwLjEsMjUuMyAxOC42LDIyLjYgJiM5OyYjOTsiLz4mI3hhOwkJPHJlY3QgeD0iMjAuOSIgeT0iMjQiIHN0eWxlPSJmaWxsOiNCQjUwMUM7IiB3aWR0aD0iMS40IiBoZWlnaHQ9IjEuMiIvPiYjeGE7CQk8cG9seWdvbiBzdHlsZT0iZmlsbDojQkI1MDFDOyIgcG9pbnRzPSIyOC4zLDIwLjEgMjYuOCwyMC4xIDI1LjksMjEuNyAyNSwyMC4xIDIzLjQsMjAuMSAyNC45LDIyLjYgMjMuNCwyNS4zIDI1LDI1LjMgMjUuOSwyMy42ICYjMTA7JiM5OyYjOTsmIzk7MjYuOCwyNS4zIDI4LjQsMjUuMyAyNi44LDIyLjYgJiM5OyYjOTsiLz4mI3hhOwkJPHJlY3QgeD0iMjguOSIgeT0iMjQiIHN0eWxlPSJmaWxsOiNCQjUwMUM7IiB3aWR0aD0iMS40IiBoZWlnaHQ9IjEuMiIvPiYjeGE7CQk8cG9seWdvbiBzdHlsZT0iZmlsbDojQkI1MDFDOyIgcG9pbnRzPSIzNiwyMC4xIDM0LjUsMjAuMSAzMy42LDIxLjcgMzIuNywyMC4xIDMxLjIsMjAuMSAzMi42LDIyLjYgMzEuMSwyNS4zIDMyLjcsMjUuMyAmIzEwOyYjOTsmIzk7JiM5OzMzLjYsMjMuNiAzNC42LDI1LjMgMzYuMSwyNS4zIDM0LjYsMjIuNiAmIzk7JiM5OyIvPiYjeGE7CQk8cmVjdCB4PSIzNi42IiB5PSIyNCIgc3R5bGU9ImZpbGw6I0JCNTAxQzsiIHdpZHRoPSIxLjQiIGhlaWdodD0iMS4yIi8+JiN4YTsJCTxwb2x5Z29uIHN0eWxlPSJmaWxsOiNCQjUwMUM7IiBwb2ludHM9IjIwLDMyLjkgMTguNCwzMi45IDE3LjYsMzQuNCAxNi43LDMyLjkgMTUuMSwzMi45IDE2LjYsMzUuMyAxNSwzOCAxNi43LDM4IDE3LjYsMzYuMyAmIzEwOyYjOTsmIzk7JiM5OzE4LjUsMzggMjAuMSwzOCAxOC42LDM1LjQgJiM5OyYjOTsiLz4mI3hhOwkJPHJlY3QgeD0iMjAuOSIgeT0iMzYuOCIgc3R5bGU9ImZpbGw6I0JCNTAxQzsiIHdpZHRoPSIxLjQiIGhlaWdodD0iMS4yIi8+JiN4YTsJCTxwb2x5Z29uIHN0eWxlPSJmaWxsOiNCQjUwMUM7IiBwb2ludHM9IjI4LjMsMzIuOSAyNi44LDMyLjkgMjUuOSwzNC40IDI1LDMyLjkgMjMuNCwzMi45IDI0LjksMzUuMyAyMy40LDM4IDI1LDM4IDI1LjksMzYuMyAmIzEwOyYjOTsmIzk7JiM5OzI2LjgsMzggMjguNCwzOCAyNi44LDM1LjQgJiM5OyYjOTsiLz4mI3hhOwkJPHJlY3QgeD0iMjguOSIgeT0iMzYuOCIgc3R5bGU9ImZpbGw6I0JCNTAxQzsiIHdpZHRoPSIxLjQiIGhlaWdodD0iMS4yIi8+JiN4YTsJCTxwb2x5Z29uIHN0eWxlPSJmaWxsOiNCQjUwMUM7IiBwb2ludHM9IjM2LDMyLjkgMzQuNSwzMi45IDMzLjYsMzQuNCAzMi43LDMyLjkgMzEuMiwzMi45IDMyLjYsMzUuMyAzMS4xLDM4IDMyLjcsMzggMzMuNiwzNi4zICYjMTA7JiM5OyYjOTsmIzk7MzQuNiwzOCAzNi4xLDM4IDM0LjYsMzUuNCAmIzk7JiM5OyIvPiYjeGE7CQk8cmVjdCB4PSIzNi42IiB5PSIzNi44IiBzdHlsZT0iZmlsbDojQkI1MDFDOyIgd2lkdGg9IjEuNCIgaGVpZ2h0PSIxLjIiLz4mI3hhOwk8L2c+JiN4YTs8L2c+JiN4YTs8L3N2Zz4=;fontColor=#312D2A;strokeColor=#AE562C;fillColor=#FCFBFA;container=0;" parent="1" vertex="1">
                    <mxGeometry x="-538.2253558052432" y="6102.758924205379" width="28.053723079225335" height="28.053723079225335" as="geometry"/>
                </mxCell>
                <mxCell id="ZklWYCbI00s5IHxO9I_W-25" value="" style="shape=image;verticalLabelPosition=bottom;verticalAlign=top;imageAspect=0;aspect=fixed;image=data:image/svg+xml,PHN2ZyB4bWxucz0iaHR0cDovL3d3dy53My5vcmcvMjAwMC9zdmciIHhtbG5zOnhsaW5rPSJodHRwOi8vd3d3LnczLm9yZy8xOTk5L3hsaW5rIiB2ZXJzaW9uPSIxLjEiIGlkPSJMYXllcl8xIiB4PSIwcHgiIHk9IjBweCIgdmlld0JveD0iMCAwIDQyIDQyIiBzdHlsZT0iZW5hYmxlLWJhY2tncm91bmQ6bmV3IDAgMCA0MiA0MjsiIHhtbDpzcGFjZT0icHJlc2VydmUiIHdpZHRoPSI0MiIgaGVpZ2h0PSI0MiI+JiN4YTs8Zz4mI3hhOwk8Zz4mI3hhOwkJPHJlY3QgeD0iMC41IiB5PSIwLjUiIHN0eWxlPSJmaWxsOiNGRkZGRkY7IiB3aWR0aD0iNDEiIGhlaWdodD0iNDEiLz4mI3hhOwkJPHBhdGggc3R5bGU9ImZpbGw6I0ZGRkZGRjsiIGQ9Ik00MSwxdjQwSDFWMUg0MSBNNDIsMGgtMUgxSDB2MXY0MHYxaDFoNDBoMXYtMVYxVjBMNDIsMHoiLz4mI3hhOwk8L2c+JiN4YTsJPGc+JiN4YTsJCTxwYXRoIHN0eWxlPSJmaWxsOiNCQjUwMUM7IiBkPSJNMSwxdjQwaDQwVjFIMXogTTM5LjUsMTMuOEgxMy42VjIuNWgyNS45VjEzLjh6IE0yLjUsMjguMmg5LjZ2MTEuNEgyLjVWMjguMnogTTEyLjEsMi41djExLjRIMi41JiMxMDsmIzk7JiM5OyYjOTtWMi41SDEyLjF6IE0xMi4xLDE1LjN2MTEuNEgyLjVWMTUuM0gxMi4xeiBNMTMuNiwzOS41VjI4LjJoMjUuOXYxMS40SDEzLjZ6IE0xMy42LDI2LjdWMTUuM2gyNS45djExLjRIMTMuNnoiLz4mI3hhOwkJPHBvbHlnb24gc3R5bGU9ImZpbGw6I0JCNTAxQzsiIHBvaW50cz0iMTUsMTIuMyAxNi43LDEyLjMgMTcuNiwxMC42IDE4LjUsMTIuMyAyMC4xLDEyLjMgMTguNiw5LjYgMjAsNy4xIDE4LjQsNy4xIDE3LjYsOC43ICYjMTA7JiM5OyYjOTsmIzk7MTYuNyw3LjEgMTUuMSw3LjEgMTYuNiw5LjYgJiM5OyYjOTsiLz4mI3hhOwkJPHJlY3QgeD0iMjAuOSIgeT0iMTEuMSIgc3R5bGU9ImZpbGw6I0JCNTAxQzsiIHdpZHRoPSIxLjQiIGhlaWdodD0iMS4yIi8+JiN4YTsJCTxwb2x5Z29uIHN0eWxlPSJmaWxsOiNCQjUwMUM7IiBwb2ludHM9IjI1LDEyLjMgMjUuOSwxMC42IDI2LjgsMTIuMyAyOC40LDEyLjMgMjYuOCw5LjYgMjguMyw3LjEgMjYuOCw3LjEgMjUuOSw4LjcgMjUsNy4xICYjMTA7JiM5OyYjOTsmIzk7MjMuNCw3LjEgMjQuOSw5LjYgMjMuNCwxMi4zICYjOTsmIzk7Ii8+JiN4YTsJCTxyZWN0IHg9IjI4LjkiIHk9IjExLjEiIHN0eWxlPSJmaWxsOiNCQjUwMUM7IiB3aWR0aD0iMS40IiBoZWlnaHQ9IjEuMiIvPiYjeGE7CQk8cG9seWdvbiBzdHlsZT0iZmlsbDojQkI1MDFDOyIgcG9pbnRzPSIzMi43LDEyLjMgMzMuNiwxMC42IDM0LjYsMTIuMyAzNi4xLDEyLjMgMzQuNiw5LjYgMzYsNy4xIDM0LjUsNy4xIDMzLjYsOC43IDMyLjcsNy4xICYjMTA7JiM5OyYjOTsmIzk7MzEuMiw3LjEgMzIuNiw5LjYgMzEuMSwxMi4zICYjOTsmIzk7Ii8+JiN4YTsJCTxyZWN0IHg9IjM2LjYiIHk9IjExLjEiIHN0eWxlPSJmaWxsOiNCQjUwMUM7IiB3aWR0aD0iMS40IiBoZWlnaHQ9IjEuMiIvPiYjeGE7CQk8cG9seWdvbiBzdHlsZT0iZmlsbDojQkI1MDFDOyIgcG9pbnRzPSIyMCwyMC4xIDE4LjQsMjAuMSAxNy42LDIxLjcgMTYuNywyMC4xIDE1LjEsMjAuMSAxNi42LDIyLjYgMTUsMjUuMyAxNi43LDI1LjMgMTcuNiwyMy42ICYjMTA7JiM5OyYjOTsmIzk7MTguNSwyNS4zIDIwLjEsMjUuMyAxOC42LDIyLjYgJiM5OyYjOTsiLz4mI3hhOwkJPHJlY3QgeD0iMjAuOSIgeT0iMjQiIHN0eWxlPSJmaWxsOiNCQjUwMUM7IiB3aWR0aD0iMS40IiBoZWlnaHQ9IjEuMiIvPiYjeGE7CQk8cG9seWdvbiBzdHlsZT0iZmlsbDojQkI1MDFDOyIgcG9pbnRzPSIyOC4zLDIwLjEgMjYuOCwyMC4xIDI1LjksMjEuNyAyNSwyMC4xIDIzLjQsMjAuMSAyNC45LDIyLjYgMjMuNCwyNS4zIDI1LDI1LjMgMjUuOSwyMy42ICYjMTA7JiM5OyYjOTsmIzk7MjYuOCwyNS4zIDI4LjQsMjUuMyAyNi44LDIyLjYgJiM5OyYjOTsiLz4mI3hhOwkJPHJlY3QgeD0iMjguOSIgeT0iMjQiIHN0eWxlPSJmaWxsOiNCQjUwMUM7IiB3aWR0aD0iMS40IiBoZWlnaHQ9IjEuMiIvPiYjeGE7CQk8cG9seWdvbiBzdHlsZT0iZmlsbDojQkI1MDFDOyIgcG9pbnRzPSIzNiwyMC4xIDM0LjUsMjAuMSAzMy42LDIxLjcgMzIuNywyMC4xIDMxLjIsMjAuMSAzMi42LDIyLjYgMzEuMSwyNS4zIDMyLjcsMjUuMyAmIzEwOyYjOTsmIzk7JiM5OzMzLjYsMjMuNiAzNC42LDI1LjMgMzYuMSwyNS4zIDM0LjYsMjIuNiAmIzk7JiM5OyIvPiYjeGE7CQk8cmVjdCB4PSIzNi42IiB5PSIyNCIgc3R5bGU9ImZpbGw6I0JCNTAxQzsiIHdpZHRoPSIxLjQiIGhlaWdodD0iMS4yIi8+JiN4YTsJCTxwb2x5Z29uIHN0eWxlPSJmaWxsOiNCQjUwMUM7IiBwb2ludHM9IjIwLDMyLjkgMTguNCwzMi45IDE3LjYsMzQuNCAxNi43LDMyLjkgMTUuMSwzMi45IDE2LjYsMzUuMyAxNSwzOCAxNi43LDM4IDE3LjYsMzYuMyAmIzEwOyYjOTsmIzk7JiM5OzE4LjUsMzggMjAuMSwzOCAxOC42LDM1LjQgJiM5OyYjOTsiLz4mI3hhOwkJPHJlY3QgeD0iMjAuOSIgeT0iMzYuOCIgc3R5bGU9ImZpbGw6I0JCNTAxQzsiIHdpZHRoPSIxLjQiIGhlaWdodD0iMS4yIi8+JiN4YTsJCTxwb2x5Z29uIHN0eWxlPSJmaWxsOiNCQjUwMUM7IiBwb2ludHM9IjI4LjMsMzIuOSAyNi44LDMyLjkgMjUuOSwzNC40IDI1LDMyLjkgMjMuNCwzMi45IDI0LjksMzUuMyAyMy40LDM4IDI1LDM4IDI1LjksMzYuMyAmIzEwOyYjOTsmIzk7JiM5OzI2LjgsMzggMjguNCwzOCAyNi44LDM1LjQgJiM5OyYjOTsiLz4mI3hhOwkJPHJlY3QgeD0iMjguOSIgeT0iMzYuOCIgc3R5bGU9ImZpbGw6I0JCNTAxQzsiIHdpZHRoPSIxLjQiIGhlaWdodD0iMS4yIi8+JiN4YTsJCTxwb2x5Z29uIHN0eWxlPSJmaWxsOiNCQjUwMUM7IiBwb2ludHM9IjM2LDMyLjkgMzQuNSwzMi45IDMzLjYsMzQuNCAzMi43LDMyLjkgMzEuMiwzMi45IDMyLjYsMzUuMyAzMS4xLDM4IDMyLjcsMzggMzMuNiwzNi4zICYjMTA7JiM5OyYjOTsmIzk7MzQuNiwzOCAzNi4xLDM4IDM0LjYsMzUuNCAmIzk7JiM5OyIvPiYjeGE7CQk8cmVjdCB4PSIzNi42IiB5PSIzNi44IiBzdHlsZT0iZmlsbDojQkI1MDFDOyIgd2lkdGg9IjEuNCIgaGVpZ2h0PSIxLjIiLz4mI3hhOwk8L2c+JiN4YTs8L2c+JiN4YTs8L3N2Zz4=;fontColor=#312D2A;strokeColor=#AE562C;fillColor=#FCFBFA;container=0;" parent="1" vertex="1">
                    <mxGeometry x="-538.3753558052432" y="6261.100244498777" width="28.053723079225335" height="28.053723079225335" as="geometry"/>
                </mxCell>
                <mxCell id="ZklWYCbI00s5IHxO9I_W-26" value="" style="shape=image;verticalLabelPosition=bottom;verticalAlign=top;imageAspect=0;aspect=fixed;image=data:image/svg+xml,PHN2ZyB4bWxucz0iaHR0cDovL3d3dy53My5vcmcvMjAwMC9zdmciIHhtbG5zOnhsaW5rPSJodHRwOi8vd3d3LnczLm9yZy8xOTk5L3hsaW5rIiB2ZXJzaW9uPSIxLjEiIGlkPSJMYXllcl8xIiB4PSIwcHgiIHk9IjBweCIgdmlld0JveD0iMCAwIDMyLjM5OTk5NzcxMTE4MTY0IDQyLjE5OTk5Njk0ODI0MjE5IiBzdHlsZT0iZW5hYmxlLWJhY2tncm91bmQ6bmV3IDAgMCAzMi4zIDQyLjI7IiB4bWw6c3BhY2U9InByZXNlcnZlIiB3aWR0aD0iMzIuMzk5OTk3NzExMTgxNjQiIGhlaWdodD0iNDIuMTk5OTk2OTQ4MjQyMTkiPiYjeGE7PGc+JiN4YTsJPGc+JiN4YTsJCTxwYXRoIHN0eWxlPSJmaWxsOiNGRkZGRkY7IiBkPSJNMTUuOCw0MS41QzgsMzguNiw0LjMsMzMuNiwyLjUsMjkuOGMtMi00LjMtMi03LjktMi04LjFWNy4zbDE1LjctNi43bDE1LjYsNi43djE0LjUmIzEwOyYjOTsmIzk7JiM5O2MwLDAuNi0wLjIsMTQuMi0xNS4xLDE5LjdsLTAuNCwwLjJMMTUuOCw0MS41eiIvPiYjeGE7CQk8cGF0aCBzdHlsZT0iZmlsbDojRkZGRkZGOyIgZD0iTTE2LjIsMS4xbDE1LjEsNi41djE0LjJjMCwwLjYtMC4yLDEzLjgtMTQuOCwxOS4ybC0wLjMsMC4xTDE2LDQxQzguMywzOC4yLDQuNywzMy4zLDMsMjkuNiYjMTA7JiM5OyYjOTsmIzk7Yy0xLjktNC4xLTItNy43LTItNy44VjcuNkwxNi4yLDEuMSBNMTYuMiwwbC0wLjQsMC4yTDAuNiw2LjdMMCw2Ljl2MC43djE0LjJjMCwwLjIsMCwzLjksMi4xLDguM2MxLjgsMy44LDUuNiw5LDEzLjYsMTEuOSYjMTA7JiM5OyYjOTsmIzk7bDAuMywwLjFsMC4zLDAuMWwwLjMtMC4xbDAuMy0wLjFjMTUuMy01LjYsMTUuNS0xOS42LDE1LjUtMjAuMlY3LjZWNi45bC0wLjYtMC4zTDE2LjYsMC4yTDE2LjIsMEwxNi4yLDB6Ii8+JiN4YTsJPC9nPiYjeGE7CTxnPiYjeGE7CQk8cGF0aCBzdHlsZT0iZmlsbDpub25lOyIgZD0iTTIuNSw4LjZ2MTMuMmMwLDAuMSwwLDMuNCwxLjgsNy4yYzIuMyw0LjksNi4zLDguNCwxMS45LDEwLjVjMTMuNC01LjEsMTMuNi0xNy4yLDEzLjYtMTcuN1Y4LjYmIzEwOyYjOTsmIzk7JiM5O0wxNi4yLDIuN0wyLjUsOC42eiBNMTYuMSwyOC4zSDd2LTEuNWg5LjFWMjguM3ogTTE2LjEsMjEuNUg3VjIwaDkuMVYyMS41eiBNMTYuMSwxNC4ySDd2LTEuNWg5LjFWMTQuMnogTTIwLjIsMTIuN2wxLjIsMS4ybDMtMyYjMTA7JiM5OyYjOTsmIzk7bDEsMWwtNCw0bC0yLjItMi4yTDIwLjIsMTIuN3ogTTI0LjgsMjIuMmwtMSwxbC0xLjUtMS41bC0xLjUsMS41bC0xLTFsMS41LTEuNWwtMS41LTEuNWwxLTFsMS41LDEuNWwxLjUtMS41bDEsMWwtMS41LDEuNSYjMTA7JiM5OyYjOTsmIzk7TDI0LjgsMjIuMnogTTIwLjIsMjYuOGwxLjIsMS4ybDMtM2wxLDFsLTQsNGwtMi4yLTIuMkwyMC4yLDI2Ljh6Ii8+JiN4YTsJCTxwYXRoIHN0eWxlPSJmaWxsOiNCQjUwMUM7IiBkPSJNMTYuMiwxLjFMMSw3LjZ2MTQuMmMwLDAuMSwwLDMuNywyLDcuOGMxLjcsMy43LDUuNCw4LjYsMTMsMTEuNGwwLjMsMC4xbDAuMy0wLjEmIzEwOyYjOTsmIzk7JiM5O2MxNC42LTUuNCwxNC44LTE4LjcsMTQuOC0xOS4yVjcuNkwxNi4yLDEuMXogTTI5LjgsMjEuOGMwLDAuNS0wLjIsMTIuNi0xMy42LDE3LjdDMTAuNiwzNy40LDYuNiwzMy45LDQuMywyOSYjMTA7JiM5OyYjOTsmIzk7Yy0xLjgtMy45LTEuOC03LjEtMS44LTcuMlY4LjZsMTMuNy01LjlsMTMuNiw1LjlWMjEuOHoiLz4mI3hhOwkJPHJlY3QgeD0iNyIgeT0iMTIuNyIgc3R5bGU9ImZpbGw6I0JCNTAxQzsiIHdpZHRoPSI5LjEiIGhlaWdodD0iMS41Ii8+JiN4YTsJCTxwb2x5Z29uIHN0eWxlPSJmaWxsOiNCQjUwMUM7IiBwb2ludHM9IjI1LjQsMTIgMjQuMywxMSAyMS40LDEzLjkgMjAuMiwxMi43IDE5LjEsMTMuOCAyMS40LDE2ICYjOTsmIzk7Ii8+JiN4YTsJCTxyZWN0IHg9IjciIHk9IjIwIiBzdHlsZT0iZmlsbDojQkI1MDFDOyIgd2lkdGg9IjkuMSIgaGVpZ2h0PSIxLjUiLz4mI3hhOwkJPHBvbHlnb24gc3R5bGU9ImZpbGw6I0JCNTAxQzsiIHBvaW50cz0iMjMuOCwxOC4xIDIyLjMsMTkuNyAyMC43LDE4LjEgMTkuNywxOS4yIDIxLjIsMjAuNyAxOS43LDIyLjIgMjAuNywyMy4zIDIyLjMsMjEuOCAmIzEwOyYjOTsmIzk7JiM5OzIzLjgsMjMuMyAyNC44LDIyLjIgMjMuMywyMC43IDI0LjgsMTkuMiAmIzk7JiM5OyIvPiYjeGE7CQk8cmVjdCB4PSI3IiB5PSIyNi44IiBzdHlsZT0iZmlsbDojQkI1MDFDOyIgd2lkdGg9IjkuMSIgaGVpZ2h0PSIxLjUiLz4mI3hhOwkJPHBvbHlnb24gc3R5bGU9ImZpbGw6I0JCNTAxQzsiIHBvaW50cz0iMjUuNCwyNi4xIDI0LjMsMjUuMSAyMS40LDI4IDIwLjIsMjYuOCAxOS4xLDI3LjkgMjEuNCwzMC4xICYjOTsmIzk7Ii8+JiN4YTsJPC9nPiYjeGE7PC9nPiYjeGE7PC9zdmc+;dashed=1;dashPattern=1 1;strokeColor=#bb511c;strokeWidth=3;fontColor=#312D2A;fillColor=#FCFBFA;container=0;" parent="1" vertex="1">
                    <mxGeometry x="-568.8123096129838" y="6261.100244498777" width="21.3769369863697" height="28.053723079225335" as="geometry"/>
                </mxCell>
                <mxCell id="ZklWYCbI00s5IHxO9I_W-58" value="&lt;font color=&quot;#bb511c&quot;&gt;&lt;b&gt;Subnet E&lt;br&gt;&lt;/b&gt;&lt;/font&gt;&lt;font color=&quot;#312d2a&quot;&gt;10.0.4.0/24&lt;br&gt;Kasm Guac&lt;br&gt;&lt;/font&gt;" style="whiteSpace=wrap;html=1;strokeWidth=1;dashed=1;align=left;fontFamily=Oracle Sans;verticalAlign=top;fillColor=none;fontColor=#AE562C;strokeColor=#AE562C;container=0;spacingLeft=3;" parent="1" vertex="1">
                    <mxGeometry x="-740" y="6607.6" width="247" height="132.4" as="geometry"/>
                </mxCell>
                <mxCell id="ZklWYCbI00s5IHxO9I_W-59" value="" style="shape=image;verticalLabelPosition=bottom;verticalAlign=top;imageAspect=0;aspect=fixed;image=data:image/svg+xml,PHN2ZyB4bWxucz0iaHR0cDovL3d3dy53My5vcmcvMjAwMC9zdmciIHhtbG5zOnhsaW5rPSJodHRwOi8vd3d3LnczLm9yZy8xOTk5L3hsaW5rIiB2ZXJzaW9uPSIxLjEiIGlkPSJMYXllcl8xIiB4PSIwcHgiIHk9IjBweCIgdmlld0JveD0iMCAwIDQyIDQyIiBzdHlsZT0iZW5hYmxlLWJhY2tncm91bmQ6bmV3IDAgMCA0MiA0MjsiIHhtbDpzcGFjZT0icHJlc2VydmUiIHdpZHRoPSI0MiIgaGVpZ2h0PSI0MiI+JiN4YTs8Zz4mI3hhOwk8Zz4mI3hhOwkJPHJlY3QgeD0iMC41IiB5PSIwLjUiIHN0eWxlPSJmaWxsOiNGRkZGRkY7IiB3aWR0aD0iNDEiIGhlaWdodD0iNDEiLz4mI3hhOwkJPHBhdGggc3R5bGU9ImZpbGw6I0ZGRkZGRjsiIGQ9Ik00MSwxdjQwSDFWMUg0MSBNNDIsMGgtMUgxSDB2MXY0MHYxaDFoNDBoMXYtMVYxVjBMNDIsMHoiLz4mI3hhOwk8L2c+JiN4YTsJPGc+JiN4YTsJCTxwYXRoIHN0eWxlPSJmaWxsOiNCQjUwMUM7IiBkPSJNMSwxdjQwaDQwVjFIMXogTTM5LjUsMTMuOEgxMy42VjIuNWgyNS45VjEzLjh6IE0yLjUsMjguMmg5LjZ2MTEuNEgyLjVWMjguMnogTTEyLjEsMi41djExLjRIMi41JiMxMDsmIzk7JiM5OyYjOTtWMi41SDEyLjF6IE0xMi4xLDE1LjN2MTEuNEgyLjVWMTUuM0gxMi4xeiBNMTMuNiwzOS41VjI4LjJoMjUuOXYxMS40SDEzLjZ6IE0xMy42LDI2LjdWMTUuM2gyNS45djExLjRIMTMuNnoiLz4mI3hhOwkJPHBvbHlnb24gc3R5bGU9ImZpbGw6I0JCNTAxQzsiIHBvaW50cz0iMTUsMTIuMyAxNi43LDEyLjMgMTcuNiwxMC42IDE4LjUsMTIuMyAyMC4xLDEyLjMgMTguNiw5LjYgMjAsNy4xIDE4LjQsNy4xIDE3LjYsOC43ICYjMTA7JiM5OyYjOTsmIzk7MTYuNyw3LjEgMTUuMSw3LjEgMTYuNiw5LjYgJiM5OyYjOTsiLz4mI3hhOwkJPHJlY3QgeD0iMjAuOSIgeT0iMTEuMSIgc3R5bGU9ImZpbGw6I0JCNTAxQzsiIHdpZHRoPSIxLjQiIGhlaWdodD0iMS4yIi8+JiN4YTsJCTxwb2x5Z29uIHN0eWxlPSJmaWxsOiNCQjUwMUM7IiBwb2ludHM9IjI1LDEyLjMgMjUuOSwxMC42IDI2LjgsMTIuMyAyOC40LDEyLjMgMjYuOCw5LjYgMjguMyw3LjEgMjYuOCw3LjEgMjUuOSw4LjcgMjUsNy4xICYjMTA7JiM5OyYjOTsmIzk7MjMuNCw3LjEgMjQuOSw5LjYgMjMuNCwxMi4zICYjOTsmIzk7Ii8+JiN4YTsJCTxyZWN0IHg9IjI4LjkiIHk9IjExLjEiIHN0eWxlPSJmaWxsOiNCQjUwMUM7IiB3aWR0aD0iMS40IiBoZWlnaHQ9IjEuMiIvPiYjeGE7CQk8cG9seWdvbiBzdHlsZT0iZmlsbDojQkI1MDFDOyIgcG9pbnRzPSIzMi43LDEyLjMgMzMuNiwxMC42IDM0LjYsMTIuMyAzNi4xLDEyLjMgMzQuNiw5LjYgMzYsNy4xIDM0LjUsNy4xIDMzLjYsOC43IDMyLjcsNy4xICYjMTA7JiM5OyYjOTsmIzk7MzEuMiw3LjEgMzIuNiw5LjYgMzEuMSwxMi4zICYjOTsmIzk7Ii8+JiN4YTsJCTxyZWN0IHg9IjM2LjYiIHk9IjExLjEiIHN0eWxlPSJmaWxsOiNCQjUwMUM7IiB3aWR0aD0iMS40IiBoZWlnaHQ9IjEuMiIvPiYjeGE7CQk8cG9seWdvbiBzdHlsZT0iZmlsbDojQkI1MDFDOyIgcG9pbnRzPSIyMCwyMC4xIDE4LjQsMjAuMSAxNy42LDIxLjcgMTYuNywyMC4xIDE1LjEsMjAuMSAxNi42LDIyLjYgMTUsMjUuMyAxNi43LDI1LjMgMTcuNiwyMy42ICYjMTA7JiM5OyYjOTsmIzk7MTguNSwyNS4zIDIwLjEsMjUuMyAxOC42LDIyLjYgJiM5OyYjOTsiLz4mI3hhOwkJPHJlY3QgeD0iMjAuOSIgeT0iMjQiIHN0eWxlPSJmaWxsOiNCQjUwMUM7IiB3aWR0aD0iMS40IiBoZWlnaHQ9IjEuMiIvPiYjeGE7CQk8cG9seWdvbiBzdHlsZT0iZmlsbDojQkI1MDFDOyIgcG9pbnRzPSIyOC4zLDIwLjEgMjYuOCwyMC4xIDI1LjksMjEuNyAyNSwyMC4xIDIzLjQsMjAuMSAyNC45LDIyLjYgMjMuNCwyNS4zIDI1LDI1LjMgMjUuOSwyMy42ICYjMTA7JiM5OyYjOTsmIzk7MjYuOCwyNS4zIDI4LjQsMjUuMyAyNi44LDIyLjYgJiM5OyYjOTsiLz4mI3hhOwkJPHJlY3QgeD0iMjguOSIgeT0iMjQiIHN0eWxlPSJmaWxsOiNCQjUwMUM7IiB3aWR0aD0iMS40IiBoZWlnaHQ9IjEuMiIvPiYjeGE7CQk8cG9seWdvbiBzdHlsZT0iZmlsbDojQkI1MDFDOyIgcG9pbnRzPSIzNiwyMC4xIDM0LjUsMjAuMSAzMy42LDIxLjcgMzIuNywyMC4xIDMxLjIsMjAuMSAzMi42LDIyLjYgMzEuMSwyNS4zIDMyLjcsMjUuMyAmIzEwOyYjOTsmIzk7JiM5OzMzLjYsMjMuNiAzNC42LDI1LjMgMzYuMSwyNS4zIDM0LjYsMjIuNiAmIzk7JiM5OyIvPiYjeGE7CQk8cmVjdCB4PSIzNi42IiB5PSIyNCIgc3R5bGU9ImZpbGw6I0JCNTAxQzsiIHdpZHRoPSIxLjQiIGhlaWdodD0iMS4yIi8+JiN4YTsJCTxwb2x5Z29uIHN0eWxlPSJmaWxsOiNCQjUwMUM7IiBwb2ludHM9IjIwLDMyLjkgMTguNCwzMi45IDE3LjYsMzQuNCAxNi43LDMyLjkgMTUuMSwzMi45IDE2LjYsMzUuMyAxNSwzOCAxNi43LDM4IDE3LjYsMzYuMyAmIzEwOyYjOTsmIzk7JiM5OzE4LjUsMzggMjAuMSwzOCAxOC42LDM1LjQgJiM5OyYjOTsiLz4mI3hhOwkJPHJlY3QgeD0iMjAuOSIgeT0iMzYuOCIgc3R5bGU9ImZpbGw6I0JCNTAxQzsiIHdpZHRoPSIxLjQiIGhlaWdodD0iMS4yIi8+JiN4YTsJCTxwb2x5Z29uIHN0eWxlPSJmaWxsOiNCQjUwMUM7IiBwb2ludHM9IjI4LjMsMzIuOSAyNi44LDMyLjkgMjUuOSwzNC40IDI1LDMyLjkgMjMuNCwzMi45IDI0LjksMzUuMyAyMy40LDM4IDI1LDM4IDI1LjksMzYuMyAmIzEwOyYjOTsmIzk7JiM5OzI2LjgsMzggMjguNCwzOCAyNi44LDM1LjQgJiM5OyYjOTsiLz4mI3hhOwkJPHJlY3QgeD0iMjguOSIgeT0iMzYuOCIgc3R5bGU9ImZpbGw6I0JCNTAxQzsiIHdpZHRoPSIxLjQiIGhlaWdodD0iMS4yIi8+JiN4YTsJCTxwb2x5Z29uIHN0eWxlPSJmaWxsOiNCQjUwMUM7IiBwb2ludHM9IjM2LDMyLjkgMzQuNSwzMi45IDMzLjYsMzQuNCAzMi43LDMyLjkgMzEuMiwzMi45IDMyLjYsMzUuMyAzMS4xLDM4IDMyLjcsMzggMzMuNiwzNi4zICYjMTA7JiM5OyYjOTsmIzk7MzQuNiwzOCAzNi4xLDM4IDM0LjYsMzUuNCAmIzk7JiM5OyIvPiYjeGE7CQk8cmVjdCB4PSIzNi42IiB5PSIzNi44IiBzdHlsZT0iZmlsbDojQkI1MDFDOyIgd2lkdGg9IjEuNCIgaGVpZ2h0PSIxLjIiLz4mI3hhOwk8L2c+JiN4YTs8L2c+JiN4YTs8L3N2Zz4=;fontColor=#312D2A;strokeColor=#AE562C;fillColor=#FCFBFA;container=0;" parent="1" vertex="1">
                    <mxGeometry x="-536.5493008739074" y="6590.000244498777" width="28.053723079225335" height="28.053723079225335" as="geometry"/>
                </mxCell>
                <mxCell id="ZklWYCbI00s5IHxO9I_W-60" value="" style="shape=image;verticalLabelPosition=bottom;verticalAlign=top;imageAspect=0;aspect=fixed;image=data:image/svg+xml,PHN2ZyB4bWxucz0iaHR0cDovL3d3dy53My5vcmcvMjAwMC9zdmciIHhtbG5zOnhsaW5rPSJodHRwOi8vd3d3LnczLm9yZy8xOTk5L3hsaW5rIiB2ZXJzaW9uPSIxLjEiIGlkPSJMYXllcl8xIiB4PSIwcHgiIHk9IjBweCIgdmlld0JveD0iMCAwIDMyLjM5OTk5NzcxMTE4MTY0IDQyLjE5OTk5Njk0ODI0MjE5IiBzdHlsZT0iZW5hYmxlLWJhY2tncm91bmQ6bmV3IDAgMCAzMi4zIDQyLjI7IiB4bWw6c3BhY2U9InByZXNlcnZlIiB3aWR0aD0iMzIuMzk5OTk3NzExMTgxNjQiIGhlaWdodD0iNDIuMTk5OTk2OTQ4MjQyMTkiPiYjeGE7PGc+JiN4YTsJPGc+JiN4YTsJCTxwYXRoIHN0eWxlPSJmaWxsOiNGRkZGRkY7IiBkPSJNMTUuOCw0MS41QzgsMzguNiw0LjMsMzMuNiwyLjUsMjkuOGMtMi00LjMtMi03LjktMi04LjFWNy4zbDE1LjctNi43bDE1LjYsNi43djE0LjUmIzEwOyYjOTsmIzk7JiM5O2MwLDAuNi0wLjIsMTQuMi0xNS4xLDE5LjdsLTAuNCwwLjJMMTUuOCw0MS41eiIvPiYjeGE7CQk8cGF0aCBzdHlsZT0iZmlsbDojRkZGRkZGOyIgZD0iTTE2LjIsMS4xbDE1LjEsNi41djE0LjJjMCwwLjYtMC4yLDEzLjgtMTQuOCwxOS4ybC0wLjMsMC4xTDE2LDQxQzguMywzOC4yLDQuNywzMy4zLDMsMjkuNiYjMTA7JiM5OyYjOTsmIzk7Yy0xLjktNC4xLTItNy43LTItNy44VjcuNkwxNi4yLDEuMSBNMTYuMiwwbC0wLjQsMC4yTDAuNiw2LjdMMCw2Ljl2MC43djE0LjJjMCwwLjIsMCwzLjksMi4xLDguM2MxLjgsMy44LDUuNiw5LDEzLjYsMTEuOSYjMTA7JiM5OyYjOTsmIzk7bDAuMywwLjFsMC4zLDAuMWwwLjMtMC4xbDAuMy0wLjFjMTUuMy01LjYsMTUuNS0xOS42LDE1LjUtMjAuMlY3LjZWNi45bC0wLjYtMC4zTDE2LjYsMC4yTDE2LjIsMEwxNi4yLDB6Ii8+JiN4YTsJPC9nPiYjeGE7CTxnPiYjeGE7CQk8cGF0aCBzdHlsZT0iZmlsbDpub25lOyIgZD0iTTIuNSw4LjZ2MTMuMmMwLDAuMSwwLDMuNCwxLjgsNy4yYzIuMyw0LjksNi4zLDguNCwxMS45LDEwLjVjMTMuNC01LjEsMTMuNi0xNy4yLDEzLjYtMTcuN1Y4LjYmIzEwOyYjOTsmIzk7JiM5O0wxNi4yLDIuN0wyLjUsOC42eiBNMTYuMSwyOC4zSDd2LTEuNWg5LjFWMjguM3ogTTE2LjEsMjEuNUg3VjIwaDkuMVYyMS41eiBNMTYuMSwxNC4ySDd2LTEuNWg5LjFWMTQuMnogTTIwLjIsMTIuN2wxLjIsMS4ybDMtMyYjMTA7JiM5OyYjOTsmIzk7bDEsMWwtNCw0bC0yLjItMi4yTDIwLjIsMTIuN3ogTTI0LjgsMjIuMmwtMSwxbC0xLjUtMS41bC0xLjUsMS41bC0xLTFsMS41LTEuNWwtMS41LTEuNWwxLTFsMS41LDEuNWwxLjUtMS41bDEsMWwtMS41LDEuNSYjMTA7JiM5OyYjOTsmIzk7TDI0LjgsMjIuMnogTTIwLjIsMjYuOGwxLjIsMS4ybDMtM2wxLDFsLTQsNGwtMi4yLTIuMkwyMC4yLDI2Ljh6Ii8+JiN4YTsJCTxwYXRoIHN0eWxlPSJmaWxsOiNCQjUwMUM7IiBkPSJNMTYuMiwxLjFMMSw3LjZ2MTQuMmMwLDAuMSwwLDMuNywyLDcuOGMxLjcsMy43LDUuNCw4LjYsMTMsMTEuNGwwLjMsMC4xbDAuMy0wLjEmIzEwOyYjOTsmIzk7JiM5O2MxNC42LTUuNCwxNC44LTE4LjcsMTQuOC0xOS4yVjcuNkwxNi4yLDEuMXogTTI5LjgsMjEuOGMwLDAuNS0wLjIsMTIuNi0xMy42LDE3LjdDMTAuNiwzNy40LDYuNiwzMy45LDQuMywyOSYjMTA7JiM5OyYjOTsmIzk7Yy0xLjgtMy45LTEuOC03LjEtMS44LTcuMlY4LjZsMTMuNy01LjlsMTMuNiw1LjlWMjEuOHoiLz4mI3hhOwkJPHJlY3QgeD0iNyIgeT0iMTIuNyIgc3R5bGU9ImZpbGw6I0JCNTAxQzsiIHdpZHRoPSI5LjEiIGhlaWdodD0iMS41Ii8+JiN4YTsJCTxwb2x5Z29uIHN0eWxlPSJmaWxsOiNCQjUwMUM7IiBwb2ludHM9IjI1LjQsMTIgMjQuMywxMSAyMS40LDEzLjkgMjAuMiwxMi43IDE5LjEsMTMuOCAyMS40LDE2ICYjOTsmIzk7Ii8+JiN4YTsJCTxyZWN0IHg9IjciIHk9IjIwIiBzdHlsZT0iZmlsbDojQkI1MDFDOyIgd2lkdGg9IjkuMSIgaGVpZ2h0PSIxLjUiLz4mI3hhOwkJPHBvbHlnb24gc3R5bGU9ImZpbGw6I0JCNTAxQzsiIHBvaW50cz0iMjMuOCwxOC4xIDIyLjMsMTkuNyAyMC43LDE4LjEgMTkuNywxOS4yIDIxLjIsMjAuNyAxOS43LDIyLjIgMjAuNywyMy4zIDIyLjMsMjEuOCAmIzEwOyYjOTsmIzk7JiM5OzIzLjgsMjMuMyAyNC44LDIyLjIgMjMuMywyMC43IDI0LjgsMTkuMiAmIzk7JiM5OyIvPiYjeGE7CQk8cmVjdCB4PSI3IiB5PSIyNi44IiBzdHlsZT0iZmlsbDojQkI1MDFDOyIgd2lkdGg9IjkuMSIgaGVpZ2h0PSIxLjUiLz4mI3hhOwkJPHBvbHlnb24gc3R5bGU9ImZpbGw6I0JCNTAxQzsiIHBvaW50cz0iMjUuNCwyNi4xIDI0LjMsMjUuMSAyMS40LDI4IDIwLjIsMjYuOCAxOS4xLDI3LjkgMjEuNCwzMC4xICYjOTsmIzk7Ii8+JiN4YTsJPC9nPiYjeGE7PC9nPiYjeGE7PC9zdmc+;dashed=1;dashPattern=1 1;strokeColor=#bb511c;strokeWidth=3;fontColor=#312D2A;fillColor=#FCFBFA;container=0;" parent="1" vertex="1">
                    <mxGeometry x="-567.7140948813982" y="6590.000244498777" width="21.3769369863697" height="28.053723079225335" as="geometry"/>
                </mxCell>
                <mxCell id="ZklWYCbI00s5IHxO9I_W-71" value="" style="group" parent="1" vertex="1" connectable="0">
                    <mxGeometry x="-613.4000000000001" y="6629.12" width="80.88" height="110.88000000000011" as="geometry"/>
                </mxCell>
                <mxCell id="ZklWYCbI00s5IHxO9I_W-66" value="" style="shape=image;verticalLabelPosition=bottom;verticalAlign=top;imageAspect=0;aspect=fixed;image=data:image/svg+xml,PHN2ZyB4bWxucz0iaHR0cDovL3d3dy53My5vcmcvMjAwMC9zdmciIHhtbG5zOnhsaW5rPSJodHRwOi8vd3d3LnczLm9yZy8xOTk5L3hsaW5rIiB2ZXJzaW9uPSIxLjEiIGlkPSJMYXllcl8xIiB4PSIwcHgiIHk9IjBweCIgdmlld0JveD0iMCAwIDQyIDQyIiBzdHlsZT0iZW5hYmxlLWJhY2tncm91bmQ6bmV3IDAgMCA0MiA0MjsiIHhtbDpzcGFjZT0icHJlc2VydmUiIHdpZHRoPSI0MiIgaGVpZ2h0PSI0MiI+JiN4YTs8c3R5bGUgdHlwZT0idGV4dC9jc3MiPiYjeGE7CS5zdDB7ZmlsbDojRkZGRkZGO30mI3hhOwkuc3Qxe2ZpbGw6IzJDNTk2Nzt9JiN4YTs8L3N0eWxlPiYjeGE7PGc+JiN4YTsJPGc+JiN4YTsJCTxwYXRoIGNsYXNzPSJzdDAiIGQ9Ik0yLjY3LDQxLjVjLTEuMTksMC0yLjE3LTAuOTctMi4xNy0yLjE3VjIuNjdjMC0xLjE5LDAuOTctMi4xNywyLjE3LTIuMTdoMzYuNjdjMS4xOSwwLDIuMTcsMC45NywyLjE3LDIuMTcmIzEwOyYjOTsmIzk7JiM5O3YzNi42N2MwLDEuMTktMC45NywyLjE3LTIuMTcsMi4xN0gyLjY3eiIvPiYjeGE7CQk8cGF0aCBjbGFzcz0ic3QwIiBkPSJNMzkuMzMsMUM0MC4yNSwxLDQxLDEuNzUsNDEsMi42N3YzNi42N2MwLDAuOTItMC43NSwxLjY3LTEuNjcsMS42N0gyLjY3QzEuNzUsNDEsMSw0MC4yNSwxLDM5LjMzVjIuNjcmIzEwOyYjOTsmIzk7JiM5O0MxLDEuNzUsMS43NSwxLDIuNjcsMUgzOS4zMyBNMzkuMzMsMEgyLjY3QzEuMiwwLDAsMS4yLDAsMi42N3YzNi42N0MwLDQwLjgsMS4yLDQyLDIuNjcsNDJoMzYuNjdDNDAuOCw0Miw0Miw0MC44LDQyLDM5LjMzVjIuNjcmIzEwOyYjOTsmIzk7JiM5O0M0MiwxLjIsNDAuOCwwLDM5LjMzLDBMMzkuMzMsMHoiLz4mI3hhOwk8L2c+JiN4YTsJPGc+JiN4YTsJCTxwYXRoIGNsYXNzPSJzdDEiIGQ9Ik0zOS4zMywxSDIuNjdDMS43NSwxLDEsMS43NSwxLDIuNjd2MzYuNjdDMSw0MC4yNSwxLjc1LDQxLDIuNjcsNDFoMzYuNjdjMC45MiwwLDEuNjctMC43NSwxLjY3LTEuNjdWMi42NyYjMTA7JiM5OyYjOTsmIzk7QzQxLDEuNzUsNDAuMjUsMSwzOS4zMywxeiBNMzkuNTIsMzkuMzNjMCwwLjEtMC4wOCwwLjE5LTAuMTksMC4xOUgyLjY3Yy0wLjEsMC0wLjE5LTAuMDgtMC4xOS0wLjE5VjIuNjcmIzEwOyYjOTsmIzk7JiM5O2MwLTAuMSwwLjA4LTAuMTksMC4xOS0wLjE5aDM2LjY3YzAuMSwwLDAuMTksMC4wOCwwLjE5LDAuMTlWMzkuMzN6Ii8+JiN4YTsJCTxwYXRoIGNsYXNzPSJzdDEiIGQ9Ik02LjU2LDM1LjQ0aDI5LjA3di04Ljg5SDYuNTZWMzUuNDR6IE04LjA0LDI4LjA0aDI2LjExdjUuOTNIOC4wNFYyOC4wNHoiLz4mI3hhOwkJPGNpcmNsZSBjbGFzcz0ic3QxIiBjeD0iMzAuODEiIGN5PSIzMSIgcj0iMS4xMSIvPiYjeGE7CQk8cGF0aCBjbGFzcz0ic3QxIiBkPSJNMTUuNDQsNi41Nkg2LjU2djguODloOC44OVY2LjU2eiBNMTMuOTYsMTMuOTZIOC4wNFY4LjA0aDUuOTNWMTMuOTZ6Ii8+JiN4YTsJCTxwYXRoIGNsYXNzPSJzdDEiIGQ9Ik0yNS40NCw2LjU2aC04Ljg5djguODloOC44OVY2LjU2eiBNMjMuOTYsMTMuOTZoLTUuOTNWOC4wNGg1LjkzVjEzLjk2eiIvPiYjeGE7CQk8cGF0aCBjbGFzcz0ic3QxIiBkPSJNMTUuNDQsMTYuNTZINi41NnY4Ljg5aDguODlWMTYuNTZ6IE0xMy45NiwyMy45Nkg4LjA0di01LjkzaDUuOTNWMjMuOTZ6Ii8+JiN4YTsJCTxwYXRoIGNsYXNzPSJzdDEiIGQ9Ik0yNS40NCwxNi41NmgtOC44OXY4Ljg5aDguODlWMTYuNTZ6IE0yMy45NiwyMy45NmgtNS45M3YtNS45M2g1LjkzVjIzLjk2eiIvPiYjeGE7CQk8cGF0aCBjbGFzcz0ic3QxIiBkPSJNMzUuNDQsNi41NmgtOC44OXY4Ljg5aDguODlWNi41NnogTTMzLjk2LDEzLjk2aC01LjkzVjguMDRoNS45M1YxMy45NnoiLz4mI3hhOwkJPHBhdGggY2xhc3M9InN0MSIgZD0iTTM1LjQ0LDE2LjU2aC04Ljg5djguODloOC44OVYxNi41NnogTTMzLjk2LDIzLjk2aC01Ljkzdi01LjkzaDUuOTNWMjMuOTZ6Ii8+JiN4YTsJPC9nPiYjeGE7PC9nPiYjeGE7PC9zdmc+;fontColor=#312D2A;strokeColor=#9E9892;fillColor=#FCFBFA;container=0;" parent="ZklWYCbI00s5IHxO9I_W-71" vertex="1">
                    <mxGeometry width="60.88" height="60.88" as="geometry"/>
                </mxCell>
                <mxCell id="ZklWYCbI00s5IHxO9I_W-67" value="" style="shape=image;verticalLabelPosition=bottom;verticalAlign=top;imageAspect=0;aspect=fixed;image=data:image/svg+xml,PHN2ZyB4bWxucz0iaHR0cDovL3d3dy53My5vcmcvMjAwMC9zdmciIHhtbG5zOnhsaW5rPSJodHRwOi8vd3d3LnczLm9yZy8xOTk5L3hsaW5rIiB2ZXJzaW9uPSIxLjEiIGlkPSJMYXllcl8xIiB4PSIwcHgiIHk9IjBweCIgdmlld0JveD0iMCAwIDQyIDQyIiBzdHlsZT0iZW5hYmxlLWJhY2tncm91bmQ6bmV3IDAgMCA0MiA0MjsiIHhtbDpzcGFjZT0icHJlc2VydmUiIHdpZHRoPSI0MiIgaGVpZ2h0PSI0MiI+JiN4YTs8c3R5bGUgdHlwZT0idGV4dC9jc3MiPiYjeGE7CS5zdDB7ZmlsbDojRkZGRkZGO30mI3hhOwkuc3Qxe2ZpbGw6IzJDNTk2Nzt9JiN4YTs8L3N0eWxlPiYjeGE7PGc+JiN4YTsJPGc+JiN4YTsJCTxwYXRoIGNsYXNzPSJzdDAiIGQ9Ik0yLjY3LDQxLjVjLTEuMTksMC0yLjE3LTAuOTctMi4xNy0yLjE3VjIuNjdjMC0xLjE5LDAuOTctMi4xNywyLjE3LTIuMTdoMzYuNjdjMS4xOSwwLDIuMTcsMC45NywyLjE3LDIuMTcmIzEwOyYjOTsmIzk7JiM5O3YzNi42N2MwLDEuMTktMC45NywyLjE3LTIuMTcsMi4xN0gyLjY3eiIvPiYjeGE7CQk8cGF0aCBjbGFzcz0ic3QwIiBkPSJNMzkuMzMsMUM0MC4yNSwxLDQxLDEuNzUsNDEsMi42N3YzNi42N2MwLDAuOTItMC43NSwxLjY3LTEuNjcsMS42N0gyLjY3QzEuNzUsNDEsMSw0MC4yNSwxLDM5LjMzVjIuNjcmIzEwOyYjOTsmIzk7JiM5O0MxLDEuNzUsMS43NSwxLDIuNjcsMUgzOS4zMyBNMzkuMzMsMEgyLjY3QzEuMiwwLDAsMS4yLDAsMi42N3YzNi42N0MwLDQwLjgsMS4yLDQyLDIuNjcsNDJoMzYuNjdDNDAuOCw0Miw0Miw0MC44LDQyLDM5LjMzVjIuNjcmIzEwOyYjOTsmIzk7JiM5O0M0MiwxLjIsNDAuOCwwLDM5LjMzLDBMMzkuMzMsMHoiLz4mI3hhOwk8L2c+JiN4YTsJPGc+JiN4YTsJCTxwYXRoIGNsYXNzPSJzdDEiIGQ9Ik0zOS4zMywxSDIuNjdDMS43NSwxLDEsMS43NSwxLDIuNjd2MzYuNjdDMSw0MC4yNSwxLjc1LDQxLDIuNjcsNDFoMzYuNjdjMC45MiwwLDEuNjctMC43NSwxLjY3LTEuNjdWMi42NyYjMTA7JiM5OyYjOTsmIzk7QzQxLDEuNzUsNDAuMjUsMSwzOS4zMywxeiBNMzkuNTIsMzkuMzNjMCwwLjEtMC4wOCwwLjE5LTAuMTksMC4xOUgyLjY3Yy0wLjEsMC0wLjE5LTAuMDgtMC4xOS0wLjE5VjIuNjcmIzEwOyYjOTsmIzk7JiM5O2MwLTAuMSwwLjA4LTAuMTksMC4xOS0wLjE5aDM2LjY3YzAuMSwwLDAuMTksMC4wOCwwLjE5LDAuMTlWMzkuMzN6Ii8+JiN4YTsJCTxwYXRoIGNsYXNzPSJzdDEiIGQ9Ik02LjU2LDM1LjQ0aDI5LjA3di04Ljg5SDYuNTZWMzUuNDR6IE04LjA0LDI4LjA0aDI2LjExdjUuOTNIOC4wNFYyOC4wNHoiLz4mI3hhOwkJPGNpcmNsZSBjbGFzcz0ic3QxIiBjeD0iMzAuODEiIGN5PSIzMSIgcj0iMS4xMSIvPiYjeGE7CQk8cGF0aCBjbGFzcz0ic3QxIiBkPSJNMTUuNDQsNi41Nkg2LjU2djguODloOC44OVY2LjU2eiBNMTMuOTYsMTMuOTZIOC4wNFY4LjA0aDUuOTNWMTMuOTZ6Ii8+JiN4YTsJCTxwYXRoIGNsYXNzPSJzdDEiIGQ9Ik0yNS40NCw2LjU2aC04Ljg5djguODloOC44OVY2LjU2eiBNMjMuOTYsMTMuOTZoLTUuOTNWOC4wNGg1LjkzVjEzLjk2eiIvPiYjeGE7CQk8cGF0aCBjbGFzcz0ic3QxIiBkPSJNMTUuNDQsMTYuNTZINi41NnY4Ljg5aDguODlWMTYuNTZ6IE0xMy45NiwyMy45Nkg4LjA0di01LjkzaDUuOTNWMjMuOTZ6Ii8+JiN4YTsJCTxwYXRoIGNsYXNzPSJzdDEiIGQ9Ik0yNS40NCwxNi41NmgtOC44OXY4Ljg5aDguODlWMTYuNTZ6IE0yMy45NiwyMy45NmgtNS45M3YtNS45M2g1LjkzVjIzLjk2eiIvPiYjeGE7CQk8cGF0aCBjbGFzcz0ic3QxIiBkPSJNMzUuNDQsNi41NmgtOC44OXY4Ljg5aDguODlWNi41NnogTTMzLjk2LDEzLjk2aC01LjkzVjguMDRoNS45M1YxMy45NnoiLz4mI3hhOwkJPHBhdGggY2xhc3M9InN0MSIgZD0iTTM1LjQ0LDE2LjU2aC04Ljg5djguODloOC44OVYxNi41NnogTTMzLjk2LDIzLjk2aC01Ljkzdi01LjkzaDUuOTNWMjMuOTZ6Ii8+JiN4YTsJPC9nPiYjeGE7PC9nPiYjeGE7PC9zdmc+;fontColor=#312D2A;strokeColor=#9E9892;fillColor=#FCFBFA;container=0;" parent="ZklWYCbI00s5IHxO9I_W-71" vertex="1">
                    <mxGeometry x="10" y="10" width="60.88" height="60.88" as="geometry"/>
                </mxCell>
                <mxCell id="ZklWYCbI00s5IHxO9I_W-68" value="" style="shape=image;verticalLabelPosition=bottom;verticalAlign=top;imageAspect=0;aspect=fixed;image=data:image/svg+xml,PHN2ZyB4bWxucz0iaHR0cDovL3d3dy53My5vcmcvMjAwMC9zdmciIHhtbG5zOnhsaW5rPSJodHRwOi8vd3d3LnczLm9yZy8xOTk5L3hsaW5rIiB2ZXJzaW9uPSIxLjEiIGlkPSJMYXllcl8xIiB4PSIwcHgiIHk9IjBweCIgdmlld0JveD0iMCAwIDQyIDQyIiBzdHlsZT0iZW5hYmxlLWJhY2tncm91bmQ6bmV3IDAgMCA0MiA0MjsiIHhtbDpzcGFjZT0icHJlc2VydmUiIHdpZHRoPSI0MiIgaGVpZ2h0PSI0MiI+JiN4YTs8c3R5bGUgdHlwZT0idGV4dC9jc3MiPiYjeGE7CS5zdDB7ZmlsbDojRkZGRkZGO30mI3hhOwkuc3Qxe2ZpbGw6IzJDNTk2Nzt9JiN4YTs8L3N0eWxlPiYjeGE7PGc+JiN4YTsJPGc+JiN4YTsJCTxwYXRoIGNsYXNzPSJzdDAiIGQ9Ik0yLjY3LDQxLjVjLTEuMTksMC0yLjE3LTAuOTctMi4xNy0yLjE3VjIuNjdjMC0xLjE5LDAuOTctMi4xNywyLjE3LTIuMTdoMzYuNjdjMS4xOSwwLDIuMTcsMC45NywyLjE3LDIuMTcmIzEwOyYjOTsmIzk7JiM5O3YzNi42N2MwLDEuMTktMC45NywyLjE3LTIuMTcsMi4xN0gyLjY3eiIvPiYjeGE7CQk8cGF0aCBjbGFzcz0ic3QwIiBkPSJNMzkuMzMsMUM0MC4yNSwxLDQxLDEuNzUsNDEsMi42N3YzNi42N2MwLDAuOTItMC43NSwxLjY3LTEuNjcsMS42N0gyLjY3QzEuNzUsNDEsMSw0MC4yNSwxLDM5LjMzVjIuNjcmIzEwOyYjOTsmIzk7JiM5O0MxLDEuNzUsMS43NSwxLDIuNjcsMUgzOS4zMyBNMzkuMzMsMEgyLjY3QzEuMiwwLDAsMS4yLDAsMi42N3YzNi42N0MwLDQwLjgsMS4yLDQyLDIuNjcsNDJoMzYuNjdDNDAuOCw0Miw0Miw0MC44LDQyLDM5LjMzVjIuNjcmIzEwOyYjOTsmIzk7JiM5O0M0MiwxLjIsNDAuOCwwLDM5LjMzLDBMMzkuMzMsMHoiLz4mI3hhOwk8L2c+JiN4YTsJPGc+JiN4YTsJCTxwYXRoIGNsYXNzPSJzdDEiIGQ9Ik0zOS4zMywxSDIuNjdDMS43NSwxLDEsMS43NSwxLDIuNjd2MzYuNjdDMSw0MC4yNSwxLjc1LDQxLDIuNjcsNDFoMzYuNjdjMC45MiwwLDEuNjctMC43NSwxLjY3LTEuNjdWMi42NyYjMTA7JiM5OyYjOTsmIzk7QzQxLDEuNzUsNDAuMjUsMSwzOS4zMywxeiBNMzkuNTIsMzkuMzNjMCwwLjEtMC4wOCwwLjE5LTAuMTksMC4xOUgyLjY3Yy0wLjEsMC0wLjE5LTAuMDgtMC4xOS0wLjE5VjIuNjcmIzEwOyYjOTsmIzk7JiM5O2MwLTAuMSwwLjA4LTAuMTksMC4xOS0wLjE5aDM2LjY3YzAuMSwwLDAuMTksMC4wOCwwLjE5LDAuMTlWMzkuMzN6Ii8+JiN4YTsJCTxwYXRoIGNsYXNzPSJzdDEiIGQ9Ik02LjU2LDM1LjQ0aDI5LjA3di04Ljg5SDYuNTZWMzUuNDR6IE04LjA0LDI4LjA0aDI2LjExdjUuOTNIOC4wNFYyOC4wNHoiLz4mI3hhOwkJPGNpcmNsZSBjbGFzcz0ic3QxIiBjeD0iMzAuODEiIGN5PSIzMSIgcj0iMS4xMSIvPiYjeGE7CQk8cGF0aCBjbGFzcz0ic3QxIiBkPSJNMTUuNDQsNi41Nkg2LjU2djguODloOC44OVY2LjU2eiBNMTMuOTYsMTMuOTZIOC4wNFY4LjA0aDUuOTNWMTMuOTZ6Ii8+JiN4YTsJCTxwYXRoIGNsYXNzPSJzdDEiIGQ9Ik0yNS40NCw2LjU2aC04Ljg5djguODloOC44OVY2LjU2eiBNMjMuOTYsMTMuOTZoLTUuOTNWOC4wNGg1LjkzVjEzLjk2eiIvPiYjeGE7CQk8cGF0aCBjbGFzcz0ic3QxIiBkPSJNMTUuNDQsMTYuNTZINi41NnY4Ljg5aDguODlWMTYuNTZ6IE0xMy45NiwyMy45Nkg4LjA0di01LjkzaDUuOTNWMjMuOTZ6Ii8+JiN4YTsJCTxwYXRoIGNsYXNzPSJzdDEiIGQ9Ik0yNS40NCwxNi41NmgtOC44OXY4Ljg5aDguODlWMTYuNTZ6IE0yMy45NiwyMy45NmgtNS45M3YtNS45M2g1LjkzVjIzLjk2eiIvPiYjeGE7CQk8cGF0aCBjbGFzcz0ic3QxIiBkPSJNMzUuNDQsNi41NmgtOC44OXY4Ljg5aDguODlWNi41NnogTTMzLjk2LDEzLjk2aC01LjkzVjguMDRoNS45M1YxMy45NnoiLz4mI3hhOwkJPHBhdGggY2xhc3M9InN0MSIgZD0iTTM1LjQ0LDE2LjU2aC04Ljg5djguODloOC44OVYxNi41NnogTTMzLjk2LDIzLjk2aC01Ljkzdi01LjkzaDUuOTNWMjMuOTZ6Ii8+JiN4YTsJPC9nPiYjeGE7PC9nPiYjeGE7PC9zdmc+;fontColor=#312D2A;strokeColor=#9E9892;fillColor=#FCFBFA;container=0;" parent="ZklWYCbI00s5IHxO9I_W-71" vertex="1">
                    <mxGeometry x="20" y="20" width="60.88" height="60.88" as="geometry"/>
                </mxCell>
                <mxCell id="ZklWYCbI00s5IHxO9I_W-69" value="Kasm Guac RDP" style="text;html=1;strokeColor=none;fillColor=none;align=center;verticalAlign=middle;whiteSpace=wrap;rounded=0;" parent="ZklWYCbI00s5IHxO9I_W-71" vertex="1">
                    <mxGeometry x="6.470000000000027" y="80.88000000000011" width="60" height="30" as="geometry"/>
                </mxCell>
                <mxCell id="ZklWYCbI00s5IHxO9I_W-74" value="" style="group" parent="1" vertex="1" connectable="0">
                    <mxGeometry x="-613.4000000000001" y="6466" width="80.88" height="110.88000000000011" as="geometry"/>
                </mxCell>
                <mxCell id="ZklWYCbI00s5IHxO9I_W-65" value="" style="shape=image;verticalLabelPosition=bottom;verticalAlign=top;imageAspect=0;aspect=fixed;image=data:image/svg+xml,PHN2ZyB4bWxucz0iaHR0cDovL3d3dy53My5vcmcvMjAwMC9zdmciIHhtbG5zOnhsaW5rPSJodHRwOi8vd3d3LnczLm9yZy8xOTk5L3hsaW5rIiB2ZXJzaW9uPSIxLjEiIGlkPSJMYXllcl8xIiB4PSIwcHgiIHk9IjBweCIgdmlld0JveD0iMCAwIDQyIDQyIiBzdHlsZT0iZW5hYmxlLWJhY2tncm91bmQ6bmV3IDAgMCA0MiA0MjsiIHhtbDpzcGFjZT0icHJlc2VydmUiIHdpZHRoPSI0MiIgaGVpZ2h0PSI0MiI+JiN4YTs8c3R5bGUgdHlwZT0idGV4dC9jc3MiPiYjeGE7CS5zdDB7ZmlsbDojRkZGRkZGO30mI3hhOwkuc3Qxe2ZpbGw6IzJDNTk2Nzt9JiN4YTs8L3N0eWxlPiYjeGE7PGc+JiN4YTsJPGc+JiN4YTsJCTxwYXRoIGNsYXNzPSJzdDAiIGQ9Ik0yLjY3LDQxLjVjLTEuMTksMC0yLjE3LTAuOTctMi4xNy0yLjE3VjIuNjdjMC0xLjE5LDAuOTctMi4xNywyLjE3LTIuMTdoMzYuNjdjMS4xOSwwLDIuMTcsMC45NywyLjE3LDIuMTcmIzEwOyYjOTsmIzk7JiM5O3YzNi42N2MwLDEuMTktMC45NywyLjE3LTIuMTcsMi4xN0gyLjY3eiIvPiYjeGE7CQk8cGF0aCBjbGFzcz0ic3QwIiBkPSJNMzkuMzMsMUM0MC4yNSwxLDQxLDEuNzUsNDEsMi42N3YzNi42N2MwLDAuOTItMC43NSwxLjY3LTEuNjcsMS42N0gyLjY3QzEuNzUsNDEsMSw0MC4yNSwxLDM5LjMzVjIuNjcmIzEwOyYjOTsmIzk7JiM5O0MxLDEuNzUsMS43NSwxLDIuNjcsMUgzOS4zMyBNMzkuMzMsMEgyLjY3QzEuMiwwLDAsMS4yLDAsMi42N3YzNi42N0MwLDQwLjgsMS4yLDQyLDIuNjcsNDJoMzYuNjdDNDAuOCw0Miw0Miw0MC44LDQyLDM5LjMzVjIuNjcmIzEwOyYjOTsmIzk7JiM5O0M0MiwxLjIsNDAuOCwwLDM5LjMzLDBMMzkuMzMsMHoiLz4mI3hhOwk8L2c+JiN4YTsJPGc+JiN4YTsJCTxwYXRoIGNsYXNzPSJzdDEiIGQ9Ik0zOS4zMywxSDIuNjdDMS43NSwxLDEsMS43NSwxLDIuNjd2MzYuNjdDMSw0MC4yNSwxLjc1LDQxLDIuNjcsNDFoMzYuNjdjMC45MiwwLDEuNjctMC43NSwxLjY3LTEuNjdWMi42NyYjMTA7JiM5OyYjOTsmIzk7QzQxLDEuNzUsNDAuMjUsMSwzOS4zMywxeiBNMzkuNTIsMzkuMzNjMCwwLjEtMC4wOCwwLjE5LTAuMTksMC4xOUgyLjY3Yy0wLjEsMC0wLjE5LTAuMDgtMC4xOS0wLjE5VjIuNjcmIzEwOyYjOTsmIzk7JiM5O2MwLTAuMSwwLjA4LTAuMTksMC4xOS0wLjE5aDM2LjY3YzAuMSwwLDAuMTksMC4wOCwwLjE5LDAuMTlWMzkuMzN6Ii8+JiN4YTsJCTxwYXRoIGNsYXNzPSJzdDEiIGQ9Ik02LjU2LDM1LjQ0aDI5LjA3di04Ljg5SDYuNTZWMzUuNDR6IE04LjA0LDI4LjA0aDI2LjExdjUuOTNIOC4wNFYyOC4wNHoiLz4mI3hhOwkJPGNpcmNsZSBjbGFzcz0ic3QxIiBjeD0iMzAuODEiIGN5PSIzMSIgcj0iMS4xMSIvPiYjeGE7CQk8cGF0aCBjbGFzcz0ic3QxIiBkPSJNMTUuNDQsNi41Nkg2LjU2djguODloOC44OVY2LjU2eiBNMTMuOTYsMTMuOTZIOC4wNFY4LjA0aDUuOTNWMTMuOTZ6Ii8+JiN4YTsJCTxwYXRoIGNsYXNzPSJzdDEiIGQ9Ik0yNS40NCw2LjU2aC04Ljg5djguODloOC44OVY2LjU2eiBNMjMuOTYsMTMuOTZoLTUuOTNWOC4wNGg1LjkzVjEzLjk2eiIvPiYjeGE7CQk8cGF0aCBjbGFzcz0ic3QxIiBkPSJNMTUuNDQsMTYuNTZINi41NnY4Ljg5aDguODlWMTYuNTZ6IE0xMy45NiwyMy45Nkg4LjA0di01LjkzaDUuOTNWMjMuOTZ6Ii8+JiN4YTsJCTxwYXRoIGNsYXNzPSJzdDEiIGQ9Ik0yNS40NCwxNi41NmgtOC44OXY4Ljg5aDguODlWMTYuNTZ6IE0yMy45NiwyMy45NmgtNS45M3YtNS45M2g1LjkzVjIzLjk2eiIvPiYjeGE7CQk8cGF0aCBjbGFzcz0ic3QxIiBkPSJNMzUuNDQsNi41NmgtOC44OXY4Ljg5aDguODlWNi41NnogTTMzLjk2LDEzLjk2aC01LjkzVjguMDRoNS45M1YxMy45NnoiLz4mI3hhOwkJPHBhdGggY2xhc3M9InN0MSIgZD0iTTM1LjQ0LDE2LjU2aC04Ljg5djguODloOC44OVYxNi41NnogTTMzLjk2LDIzLjk2aC01Ljkzdi01LjkzaDUuOTNWMjMuOTZ6Ii8+JiN4YTsJPC9nPiYjeGE7PC9nPiYjeGE7PC9zdmc+;fontColor=#312D2A;strokeColor=#9E9892;fillColor=#FCFBFA;container=0;" parent="ZklWYCbI00s5IHxO9I_W-74" vertex="1">
                    <mxGeometry width="60.88" height="60.88" as="geometry"/>
                </mxCell>
                <mxCell id="ZklWYCbI00s5IHxO9I_W-70" value="Kasm Agent" style="text;html=1;strokeColor=none;fillColor=none;align=center;verticalAlign=middle;whiteSpace=wrap;rounded=0;" parent="ZklWYCbI00s5IHxO9I_W-74" vertex="1">
                    <mxGeometry x="6.470000000000027" y="80.88000000000011" width="60" height="30" as="geometry"/>
                </mxCell>
                <mxCell id="ZklWYCbI00s5IHxO9I_W-72" value="" style="shape=image;verticalLabelPosition=bottom;verticalAlign=top;imageAspect=0;aspect=fixed;image=data:image/svg+xml,PHN2ZyB4bWxucz0iaHR0cDovL3d3dy53My5vcmcvMjAwMC9zdmciIHhtbG5zOnhsaW5rPSJodHRwOi8vd3d3LnczLm9yZy8xOTk5L3hsaW5rIiB2ZXJzaW9uPSIxLjEiIGlkPSJMYXllcl8xIiB4PSIwcHgiIHk9IjBweCIgdmlld0JveD0iMCAwIDQyIDQyIiBzdHlsZT0iZW5hYmxlLWJhY2tncm91bmQ6bmV3IDAgMCA0MiA0MjsiIHhtbDpzcGFjZT0icHJlc2VydmUiIHdpZHRoPSI0MiIgaGVpZ2h0PSI0MiI+JiN4YTs8c3R5bGUgdHlwZT0idGV4dC9jc3MiPiYjeGE7CS5zdDB7ZmlsbDojRkZGRkZGO30mI3hhOwkuc3Qxe2ZpbGw6IzJDNTk2Nzt9JiN4YTs8L3N0eWxlPiYjeGE7PGc+JiN4YTsJPGc+JiN4YTsJCTxwYXRoIGNsYXNzPSJzdDAiIGQ9Ik0yLjY3LDQxLjVjLTEuMTksMC0yLjE3LTAuOTctMi4xNy0yLjE3VjIuNjdjMC0xLjE5LDAuOTctMi4xNywyLjE3LTIuMTdoMzYuNjdjMS4xOSwwLDIuMTcsMC45NywyLjE3LDIuMTcmIzEwOyYjOTsmIzk7JiM5O3YzNi42N2MwLDEuMTktMC45NywyLjE3LTIuMTcsMi4xN0gyLjY3eiIvPiYjeGE7CQk8cGF0aCBjbGFzcz0ic3QwIiBkPSJNMzkuMzMsMUM0MC4yNSwxLDQxLDEuNzUsNDEsMi42N3YzNi42N2MwLDAuOTItMC43NSwxLjY3LTEuNjcsMS42N0gyLjY3QzEuNzUsNDEsMSw0MC4yNSwxLDM5LjMzVjIuNjcmIzEwOyYjOTsmIzk7JiM5O0MxLDEuNzUsMS43NSwxLDIuNjcsMUgzOS4zMyBNMzkuMzMsMEgyLjY3QzEuMiwwLDAsMS4yLDAsMi42N3YzNi42N0MwLDQwLjgsMS4yLDQyLDIuNjcsNDJoMzYuNjdDNDAuOCw0Miw0Miw0MC44LDQyLDM5LjMzVjIuNjcmIzEwOyYjOTsmIzk7JiM5O0M0MiwxLjIsNDAuOCwwLDM5LjMzLDBMMzkuMzMsMHoiLz4mI3hhOwk8L2c+JiN4YTsJPGc+JiN4YTsJCTxwYXRoIGNsYXNzPSJzdDEiIGQ9Ik0zOS4zMywxSDIuNjdDMS43NSwxLDEsMS43NSwxLDIuNjd2MzYuNjdDMSw0MC4yNSwxLjc1LDQxLDIuNjcsNDFoMzYuNjdjMC45MiwwLDEuNjctMC43NSwxLjY3LTEuNjdWMi42NyYjMTA7JiM5OyYjOTsmIzk7QzQxLDEuNzUsNDAuMjUsMSwzOS4zMywxeiBNMzkuNTIsMzkuMzNjMCwwLjEtMC4wOCwwLjE5LTAuMTksMC4xOUgyLjY3Yy0wLjEsMC0wLjE5LTAuMDgtMC4xOS0wLjE5VjIuNjcmIzEwOyYjOTsmIzk7JiM5O2MwLTAuMSwwLjA4LTAuMTksMC4xOS0wLjE5aDM2LjY3YzAuMSwwLDAuMTksMC4wOCwwLjE5LDAuMTlWMzkuMzN6Ii8+JiN4YTsJCTxwYXRoIGNsYXNzPSJzdDEiIGQ9Ik02LjU2LDM1LjQ0aDI5LjA3di04Ljg5SDYuNTZWMzUuNDR6IE04LjA0LDI4LjA0aDI2LjExdjUuOTNIOC4wNFYyOC4wNHoiLz4mI3hhOwkJPGNpcmNsZSBjbGFzcz0ic3QxIiBjeD0iMzAuODEiIGN5PSIzMSIgcj0iMS4xMSIvPiYjeGE7CQk8cGF0aCBjbGFzcz0ic3QxIiBkPSJNMTUuNDQsNi41Nkg2LjU2djguODloOC44OVY2LjU2eiBNMTMuOTYsMTMuOTZIOC4wNFY4LjA0aDUuOTNWMTMuOTZ6Ii8+JiN4YTsJCTxwYXRoIGNsYXNzPSJzdDEiIGQ9Ik0yNS40NCw2LjU2aC04Ljg5djguODloOC44OVY2LjU2eiBNMjMuOTYsMTMuOTZoLTUuOTNWOC4wNGg1LjkzVjEzLjk2eiIvPiYjeGE7CQk8cGF0aCBjbGFzcz0ic3QxIiBkPSJNMTUuNDQsMTYuNTZINi41NnY4Ljg5aDguODlWMTYuNTZ6IE0xMy45NiwyMy45Nkg4LjA0di01LjkzaDUuOTNWMjMuOTZ6Ii8+JiN4YTsJCTxwYXRoIGNsYXNzPSJzdDEiIGQ9Ik0yNS40NCwxNi41NmgtOC44OXY4Ljg5aDguODlWMTYuNTZ6IE0yMy45NiwyMy45NmgtNS45M3YtNS45M2g1LjkzVjIzLjk2eiIvPiYjeGE7CQk8cGF0aCBjbGFzcz0ic3QxIiBkPSJNMzUuNDQsNi41NmgtOC44OXY4Ljg5aDguODlWNi41NnogTTMzLjk2LDEzLjk2aC01LjkzVjguMDRoNS45M1YxMy45NnoiLz4mI3hhOwkJPHBhdGggY2xhc3M9InN0MSIgZD0iTTM1LjQ0LDE2LjU2aC04Ljg5djguODloOC44OVYxNi41NnogTTMzLjk2LDIzLjk2aC01Ljkzdi01LjkzaDUuOTNWMjMuOTZ6Ii8+JiN4YTsJPC9nPiYjeGE7PC9nPiYjeGE7PC9zdmc+;fontColor=#312D2A;strokeColor=#9E9892;fillColor=#FCFBFA;container=0;" parent="ZklWYCbI00s5IHxO9I_W-74" vertex="1">
                    <mxGeometry x="10" y="10" width="60.88" height="60.88" as="geometry"/>
                </mxCell>
                <mxCell id="ZklWYCbI00s5IHxO9I_W-73" value="" style="shape=image;verticalLabelPosition=bottom;verticalAlign=top;imageAspect=0;aspect=fixed;image=data:image/svg+xml,PHN2ZyB4bWxucz0iaHR0cDovL3d3dy53My5vcmcvMjAwMC9zdmciIHhtbG5zOnhsaW5rPSJodHRwOi8vd3d3LnczLm9yZy8xOTk5L3hsaW5rIiB2ZXJzaW9uPSIxLjEiIGlkPSJMYXllcl8xIiB4PSIwcHgiIHk9IjBweCIgdmlld0JveD0iMCAwIDQyIDQyIiBzdHlsZT0iZW5hYmxlLWJhY2tncm91bmQ6bmV3IDAgMCA0MiA0MjsiIHhtbDpzcGFjZT0icHJlc2VydmUiIHdpZHRoPSI0MiIgaGVpZ2h0PSI0MiI+JiN4YTs8c3R5bGUgdHlwZT0idGV4dC9jc3MiPiYjeGE7CS5zdDB7ZmlsbDojRkZGRkZGO30mI3hhOwkuc3Qxe2ZpbGw6IzJDNTk2Nzt9JiN4YTs8L3N0eWxlPiYjeGE7PGc+JiN4YTsJPGc+JiN4YTsJCTxwYXRoIGNsYXNzPSJzdDAiIGQ9Ik0yLjY3LDQxLjVjLTEuMTksMC0yLjE3LTAuOTctMi4xNy0yLjE3VjIuNjdjMC0xLjE5LDAuOTctMi4xNywyLjE3LTIuMTdoMzYuNjdjMS4xOSwwLDIuMTcsMC45NywyLjE3LDIuMTcmIzEwOyYjOTsmIzk7JiM5O3YzNi42N2MwLDEuMTktMC45NywyLjE3LTIuMTcsMi4xN0gyLjY3eiIvPiYjeGE7CQk8cGF0aCBjbGFzcz0ic3QwIiBkPSJNMzkuMzMsMUM0MC4yNSwxLDQxLDEuNzUsNDEsMi42N3YzNi42N2MwLDAuOTItMC43NSwxLjY3LTEuNjcsMS42N0gyLjY3QzEuNzUsNDEsMSw0MC4yNSwxLDM5LjMzVjIuNjcmIzEwOyYjOTsmIzk7JiM5O0MxLDEuNzUsMS43NSwxLDIuNjcsMUgzOS4zMyBNMzkuMzMsMEgyLjY3QzEuMiwwLDAsMS4yLDAsMi42N3YzNi42N0MwLDQwLjgsMS4yLDQyLDIuNjcsNDJoMzYuNjdDNDAuOCw0Miw0Miw0MC44LDQyLDM5LjMzVjIuNjcmIzEwOyYjOTsmIzk7JiM5O0M0MiwxLjIsNDAuOCwwLDM5LjMzLDBMMzkuMzMsMHoiLz4mI3hhOwk8L2c+JiN4YTsJPGc+JiN4YTsJCTxwYXRoIGNsYXNzPSJzdDEiIGQ9Ik0zOS4zMywxSDIuNjdDMS43NSwxLDEsMS43NSwxLDIuNjd2MzYuNjdDMSw0MC4yNSwxLjc1LDQxLDIuNjcsNDFoMzYuNjdjMC45MiwwLDEuNjctMC43NSwxLjY3LTEuNjdWMi42NyYjMTA7JiM5OyYjOTsmIzk7QzQxLDEuNzUsNDAuMjUsMSwzOS4zMywxeiBNMzkuNTIsMzkuMzNjMCwwLjEtMC4wOCwwLjE5LTAuMTksMC4xOUgyLjY3Yy0wLjEsMC0wLjE5LTAuMDgtMC4xOS0wLjE5VjIuNjcmIzEwOyYjOTsmIzk7JiM5O2MwLTAuMSwwLjA4LTAuMTksMC4xOS0wLjE5aDM2LjY3YzAuMSwwLDAuMTksMC4wOCwwLjE5LDAuMTlWMzkuMzN6Ii8+JiN4YTsJCTxwYXRoIGNsYXNzPSJzdDEiIGQ9Ik02LjU2LDM1LjQ0aDI5LjA3di04Ljg5SDYuNTZWMzUuNDR6IE04LjA0LDI4LjA0aDI2LjExdjUuOTNIOC4wNFYyOC4wNHoiLz4mI3hhOwkJPGNpcmNsZSBjbGFzcz0ic3QxIiBjeD0iMzAuODEiIGN5PSIzMSIgcj0iMS4xMSIvPiYjeGE7CQk8cGF0aCBjbGFzcz0ic3QxIiBkPSJNMTUuNDQsNi41Nkg2LjU2djguODloOC44OVY2LjU2eiBNMTMuOTYsMTMuOTZIOC4wNFY4LjA0aDUuOTNWMTMuOTZ6Ii8+JiN4YTsJCTxwYXRoIGNsYXNzPSJzdDEiIGQ9Ik0yNS40NCw2LjU2aC04Ljg5djguODloOC44OVY2LjU2eiBNMjMuOTYsMTMuOTZoLTUuOTNWOC4wNGg1LjkzVjEzLjk2eiIvPiYjeGE7CQk8cGF0aCBjbGFzcz0ic3QxIiBkPSJNMTUuNDQsMTYuNTZINi41NnY4Ljg5aDguODlWMTYuNTZ6IE0xMy45NiwyMy45Nkg4LjA0di01LjkzaDUuOTNWMjMuOTZ6Ii8+JiN4YTsJCTxwYXRoIGNsYXNzPSJzdDEiIGQ9Ik0yNS40NCwxNi41NmgtOC44OXY4Ljg5aDguODlWMTYuNTZ6IE0yMy45NiwyMy45NmgtNS45M3YtNS45M2g1LjkzVjIzLjk2eiIvPiYjeGE7CQk8cGF0aCBjbGFzcz0ic3QxIiBkPSJNMzUuNDQsNi41NmgtOC44OXY4Ljg5aDguODlWNi41NnogTTMzLjk2LDEzLjk2aC01LjkzVjguMDRoNS45M1YxMy45NnoiLz4mI3hhOwkJPHBhdGggY2xhc3M9InN0MSIgZD0iTTM1LjQ0LDE2LjU2aC04Ljg5djguODloOC44OVYxNi41NnogTTMzLjk2LDIzLjk2aC01Ljkzdi01LjkzaDUuOTNWMjMuOTZ6Ii8+JiN4YTsJPC9nPiYjeGE7PC9nPiYjeGE7PC9zdmc+;fontColor=#312D2A;strokeColor=#9E9892;fillColor=#FCFBFA;container=0;" parent="ZklWYCbI00s5IHxO9I_W-74" vertex="1">
                    <mxGeometry x="20" y="20" width="60.88" height="60.88" as="geometry"/>
                </mxCell>
                <mxCell id="HhmFAeyS2S2euJ_gTcu7-524" value="&lt;font size=&quot;1&quot;&gt;&lt;b style=&quot;font-size: 12px&quot;&gt;Internet&lt;/b&gt;&lt;/font&gt;" style="rounded=1;whiteSpace=wrap;html=1;labelBackgroundColor=none;gradientColor=none;fontFamily=Oracle Sans;fontSize=11;align=center;fillColor=#F5F4F2;strokeColor=#9E9892;arcSize=19;verticalAlign=top;fontColor=#312D2A;spacingRight=5;" parent="1" vertex="1">
                    <mxGeometry x="-870" y="5920" width="810" height="74.87" as="geometry"/>
                </mxCell>
                <mxCell id="eChJDwyTb9s3T-vj8w6D-31" style="edgeStyle=orthogonalEdgeStyle;rounded=0;jumpStyle=arc;jumpSize=10;html=1;exitX=1;exitY=0.75;exitDx=0;exitDy=0;fontColor=default;endArrow=open;endFill=0;" edge="1" parent="1" source="HhmFAeyS2S2euJ_gTcu7-525" target="HhmFAeyS2S2euJ_gTcu7-520">
                    <mxGeometry relative="1" as="geometry"/>
                </mxCell>
                <mxCell id="HhmFAeyS2S2euJ_gTcu7-525" value="" style="shape=image;verticalLabelPosition=bottom;labelBackgroundColor=default;verticalAlign=top;aspect=fixed;imageAspect=0;image=data:image/png,iVBORw0KGgoAAAANSUhEUgAAAFQAAABwCAMAAAC3iKfTAAAAAXNSR0IArs4c6QAAAARnQU1BAACxjwv8YQUAAAGhUExURQAAAAAAAAAAAP///wAAAP///wAAAP///wAAAP///////wAAAP///wAAAP///////wAAAP///wAAAP///////////////////////////wAAAP///////////wAAAP///////////////////////////////wAAAP///////////////wAAAP///////////////////////////////////////wAAAP///////wAAAP///////wAAAP///////////////////////////wAAAAAAAP///////wAAAP///////////////wAAAP///////////wAAAP///////////////wAAAP///////////wAAAP///////////wAAAP////////////////j6+v////L19fj6+v///wAAAC1ZZzRebDpjcUFpdUduek5zf1V4hFt+iGKDjWiIkm+Nl3aSnHyYoIOdpYmiqpCnr5ass5yxt6O2vKm7wbDAxrbGyr3Lz8TQ1MrV2dHa3tfg4t7l5+Xq7Ovv8fL19fj6+v///3WP7/IAAABpdFJOUwAECAgKEBUYGh8gISgsLjA2ODw9QERGSFBVWFhdYGJlaHB0eH1+gISEh4uMjY+TlJeen6Klp6mvr7Cysre/v8DCw8XHy8zNz9HS1dfd3+Hi5Obn5+jq7O7v8fP09Pf4+fn6+/z9/f7+/ozJZD0AAAAJcEhZcwAAFxEAABcRAcom8z8AAAi8SURBVGhD7Vn7Q1xHGV1KMJpGkRoNWoOh6iqaaHzEIkaqYhO1Uh8xltpsWzU0sHdfLNtlWXYX2GVf81d7zjffvXfu3DUQ8Dc5P8DcuTNnvvfM3M2chtn57P1Vwf1s9vUbM9p9fswuPsgZD2tLc/r2PLi+tE6SQbe1X7VoNlvdPro+XL49rYNeDjfWMHurf1DJeyjtHY2NeZK9qgPPjtkHYOw1ykrko9oamY/vXdPBZ8PVHxuz2S4qQz6/s2P/ByX7HwgaQ2OWzy7tzFLObB6pkJX9zokZ46HMjs64226EBqkPzD9u6pzTMAv39KoyrbBHtxizD8l6/QB/5XlwoCvWhuYnZ/LY/IYZ1GTKTgcOIXp4aBrTYZ929RsFDikemz+eIcAWwSHGrPTsdCPKCxnX2rd9xgwbHJXfG5tbOvW/YRoeOoSa+UJL5wKYbdUeYbXgRPqIvihUPjHf0NmTcXXNbIkAn8K1IU7wfGCbh2ju2qagS52CY/OGzp+E6TXzCVcvHOkkAXrKaklD/x31u92RPg/ZAdbvKsME3DefMFyKsYYABY0WYQQISnvKi8B4Ies3zdYuhpQHdrgCgu5oE1aNox+OFxwx0o7N15XEw01xSX4nVM3iGF2R5EOJ+0K1KvHUtp3HwvrhxJy9viGBWA3Np0CC1rRpTB0DrIQ9hFmgKtF9hcEj5XExs256WLLkuJ2gRSNB+VBURcYQOjSLCGO+r0wO7poBozCKeAUMUtWmtY5aEitAhHB0Ey+a/06l1tWc5EtHR4UYw3hxfLGsaBPA+ChDEFlB7+9+GbgnCd7QMRGgWDE2MmSL7Uvx6to0A7wqj7+lZIpZswUblTwniZuiZDdjzIxojGm5lqFZG+8rm2LZHKE3kUjEAJ2O57BERZvAp8hmbQKI8MI4UVrmzHN4yZmgwPpuJx1lCyzA6oJ6GGIINVp/UT7BGnXJd/V9DAjjzBNtouxizLr5vEfzf1UJgevmObzs+CAEehMrMUB2xR4jciZmMIhbf1ZGIJtMxggYFyR8N2SpK9Rb7T02SqkiUTZxsq5TFycCQ8AmbvUEpIAqCp4UjMluVK0QT0mjC/oHTQR7HFAWorbAmsEFhjf+oJzYlroYlNSlE9a4csuvBq06TwF7+ugA2VDZDLPqAWMlrplAn3U1RKAlLsYYvRPcStFGX7Gc0zkDsXQXEnQQc/BDrblnTybYMZOAoumglkLR+YUlnZVoiIIaFifnrpa4Az74YsHRgTZdoLv+vq1Vr0uVjYVh3BTictWntF71YmolfSBAtKAe/5RmXTIHeNB+gBtkoqyCNSzyijaGpPJvVKdSQX30W5DeZzbG9aaPN8nw4hbqVCeANckn7UfxMvhZJrNK2eIIgdgVzzFUS5sWLAKH2lbwbIQtkcJWtj6XeWRQSmPnQ1k3EoghRibSh8HjmRkLB+ga8xzQegtJCsFrzRDojPahEHBdPACQaqJtBQS1sqBa7Ty1pAkkd36A1el0WGdCi8JW5jEFcZGsTAQ8eQZYWVjajJW0rJeaKqPS36eZQSV9bwF/RDMsom0Xxq38C6SYEx9HsYJzNhWMsFBy/8Igz/vIhyKzkunY+JsNqXhzxls/KxlBSTujw4vTIUQt7DVpqOJwCUUKfoh5GC5JscaQK04Ogrusn6Y8/QmC46c88CC2nLoPtxUTNRRBEp7wFCzyKW8ObL0s9j7+QiZzm1nnFB2KWnVYkWKeoKxABW26QIyXD03uS8j9OVnY0Qb+i8uUFCmvnkgqa9MFcqK59SOp/TOyQbtZJ7FeaXS6x81dWqrgpxic6e2IAti+Gx5TH3GJxKAWVolRdgq4BauxNh2gvgXjbytpljYKEjEzjBOzuJ/K2mQFigCz1Uz44eKGeQ4lvarTb1Z5wC+FV0kXTIb0GYlntNYT5cxMb1CfCUZCqHlut6Bi6bV4RDv5uXLyxMugSmuJ4JrQK16esEPDexXzZaWk/lQodYyWU27qzAogPfzyYAcf5pSRWOcyQeockywKEbijp09zcFNx/D0lJG6JQdJRktxmQyBx0r1jiv/PxFXikdxaUstTJr9wiPwT1y+Ol5XOYl7O52nrI0dSAUn7e/GH5aHp/qb3nWZVMj7llUn6Y2AqJnj/K430HBXB3nnsBwgHNLWf+FAp5T0ar+sLyksPS17ZFyFRvwXcBvy1Web2jXc3A67nxAC+WXEZ8EINCvmDTlB/yuNfK5OLebPFM4J/SvddRUE9g8hN+eTpxK9pWfOMBdnLFYhfcEVF1fDq8xDrIhz0CO1j2b5PeoF+dXoYucn9Sr5WdMwPlcTH9DsSbvlaogJBXyco4DjnWg3Il7GO+Y1/LY9wbcOOSX5GcT3DCEnYp00pXsSZydzcsNoU3SygazSB+bHHPbyO6dpTOBFY75hnchrbdUIRua5fu8jhFIgjuqBweAonttZVs8l4zQfNSCJ+dhBf8QYbXwHt59CdofnVKZzAXUymYfOldmha3hsQm7y2RB8v7NdDxnBWJ74Qt3Pm2YHs0UFdD5WQCSch2sXud8M2LQ+r9M70+ZSYW4NLGnQrph10IRsNUONti3V0cKj7dxkF8Aenqx5ifh1zo+Mz7pNsgzhoNeT+QewgQp6c9ZO0xeJjsznhG3+IoAY7/OnW2cW0mMnmjNkatt37tKLcYEX53byOfCnM3OZvEmbUadZYaIhqtdZsy6a1fENHvTyuLS6nfo/hLzIvZ8oJmFu8u/rYsj1eXb2Xnb/4b0eX+P/FnW3g4RW0FrbfxN+pFfydWtne/uAz8v5cuAPCqZWPvkjS7a9Z0qkVdL4mK50PJLXiLfz+l7LAm5lX3wP7RSCkmdcg6sLDz4OMpK+8S0NcAJaUsi08vIIHK/SFLOqR4p+Q4vnCjgLJX6n+lcydDz4rpKS9AKvaFAwkffW97yipCH9eCKk1JFsLH739PyKdWqGqQvrKu0gBCdE7F1GfGSXCCanNK+SBzbJLXOISl7hEjEzmPz391cVTjjjsAAAAAElFTkSuQmCC;" parent="1" vertex="1">
                    <mxGeometry x="-740" y="5970" width="52.5" height="70" as="geometry"/>
                </mxCell>
                <mxCell id="eChJDwyTb9s3T-vj8w6D-5" style="edgeStyle=orthogonalEdgeStyle;rounded=0;html=1;exitX=1;exitY=0.5;exitDx=0;exitDy=0;entryX=0.5;entryY=0;entryDx=0;entryDy=0;endArrow=open;endFill=0;" edge="1" parent="1" source="HhmFAeyS2S2euJ_gTcu7-526" target="HhmFAeyS2S2euJ_gTcu7-525">
                    <mxGeometry relative="1" as="geometry"/>
                </mxCell>
                <mxCell id="HhmFAeyS2S2euJ_gTcu7-526" value="" style="shape=image;verticalLabelPosition=bottom;labelBackgroundColor=default;verticalAlign=top;aspect=fixed;imageAspect=0;image=data:image/png,iVBORw0KGgoAAAANSUhEUgAAAEMAAAB0CAMAAADpa39UAAAAAXNSR0IArs4c6QAAAARnQU1BAACxjwv8YQUAAAEvUExURQAAAAAAAAAAAP///wAAAP///wAAAP///////wAAAP///////wAAAP///wAAAP///////////wAAAP///////wAAAP///////////wAAAP///////wAAAP///////////////wAAAAAAAP///wAAAP///////////wAAAP///////wAAAP///////////////wAAAAAAAP///////////wAAAP///////////wAAAP///wAAAPj6+v///+Xq7Ovv8fL19fj6+v///wAAAC1ZZzRebDpjcUFpdUduek5zf1V4hFt+iGKDjWiIkm+Nl3aSnHyYoIOdpYmiqpCnr5ass5yxt6O2vKm7wbDAxrbGyr3Lz8TQ1MrV2dHa3tfg4t7l5+Xq7Ovv8fL19fj6+v///4c7r9IAAABDdFJOUwAECAgKEBUYICEoMDY4PEBIUFhYYGJocHiAgIeNj5efp66vr7K3v8fNz9HV19jf4OHn5+jq7u/w8/T3+f39/v7+/v4T7IvgAAAACXBIWXMAABcRAAAXEQHKJvM/AAAE3UlEQVRYR+2Xa18aRxTGUTRe0miNaUxWEFMFQ0tpSxvS0qSK3FZuiizgBXCV8/0/Q58zexTWvbC2fdHmx/8FMLPnnJ05c2bmIeTHc02LJ4CmrUvPE1nfSdOYbGxT+oOzfgDHm267zrQ7Q7TSG/IsGKt7CHB+UhyjtxDm4IU8D8BGjg7PxXnMqUn0WiymohF1y5ZfvX5uYD5Wo9Q+pp2wGPkTo/yp8jm9uFP5JLq7tHoaRxQPEkSjoxrbN28kgIXZ5M4Tk2Ji58MG5TlE+Vp8xwwq6NePaEssPVnNEQ9btw/CwqziST1P0wpujzo85PtE2BnxCFuUFFsPNuiwhIlgFV251RFkOGU2SWrBqi8uTgZ4Q4MyfmvzNQ0RoikObnDpXfmWWkwNgzeHF7dYnAYlxN6NLGHCp2LuDlJeytOiODhZpwGGcSnW7twoi1fi4UQjA28ZibUH2M1nPsUao7NisSa2XiCrdZ+ExAk79ExsvUBCdEqJh5MkD7Qttl5cYLqUFQ8nGcLKdcTWiz6SSiQeTlK8tIbYenHJMXLi4SQRJB9dzkdaPJzEeN83xNaLNi+d97ps88KVxdYLDLVJu+LhZJOuMVnvXcvcwqJHb8TDSTiXx3l+LtbuYGmLt7QsHi7EOSGlWzF3Y4TzsOZTYqHQa7rCa/wGglUpdmlb7N0IZzhlJa+j0Do+TvK5JbF3ZUsdZB5HMuAb74qiYu1OOKWuBq8a4ZOw9vkX32HwifqJb5Gm6yHCIfTD6Rf3Nv3J91nVmZM7nkhp6FNfD+zRkC/9cufRUHocunRNBwEu7cUkmUq96A/XPl/8PMOiPqS0T3mNWUzQkbrkcegZvX6/f2FIs3ZIyUAhQJToWr3Xhn55TLvBJAzzKkPHPXuUk+4n+ui91VwIax9RlL2mUjPFWqPLyxSdUhcOlrSUlU4hvRMoE6tvdhMsSym7qtrLW4lEjttQys9Vz6KSvcnEnuaqMsPahCxOuqcunJDnIOOc2VaG59+oKy1muqu/cJxGXDnV+lkP+clptpsbJUF9LmUL3VX9LSJEQyywTldEqYkULaceqsoCQeKPh/rix8kQoG5S9kHeIVNKN8IXstjguoAu/M2mupZjmCuPtGxAOFulUx7cZz8UPlAyC7eTJYDu2KKEK/PXHXnN0iYiHF/wVhTRaeKWUTswbeUkSiY/rTyoWrXJiyeq/R3+Av3AP27UPKCThQFnt3xDe+olOeIXNybOv5GlzvX2vdI1O2on241YulU/E1dOVJ3lFfsRem354MX4C3S/cXQsxSRcB10eSDjLoqPokOcdK8tjKsbj89FEFivHtAQdxyqtJd2T9FvjMJWW2w3aw5M+9F1UCXSPG2XQvzQM46rv8XiEtWhhMnFCdVWl86lAAlZxcSY5Nf6y1htI0Qq0mdJgbukIAosAaDMifE/TYF7MYtiZxbAzi2FnFsPOLIadLzLGP+ZfiTHjf8I37xfwObf/rdX8W/wHY6x8KBReohEpFH5/hq+3kUKwyOMY8z+9DM2/WwhF4BhBb6Tw1jKZyjjGygceRGjl56+sD44TjIm5RAp/wH2twOAXjycYtpxGCu8X1jiQagSOYblwLhjMR6b0lBhz+zwQnvsafBBRdcx//+wJMXgCBWsN+QfGMLev0vGkGDNmzPjSCYX+AlR8tRmi7iAHAAAAAElFTkSuQmCC;" parent="1" vertex="1">
                    <mxGeometry x="-803.6700000000001" y="5927.43" width="34.66" height="60" as="geometry"/>
                </mxCell>
                <mxCell id="eChJDwyTb9s3T-vj8w6D-28" style="edgeStyle=orthogonalEdgeStyle;rounded=0;jumpStyle=arc;jumpSize=10;html=1;exitX=0;exitY=0.5;exitDx=0;exitDy=0;entryX=1;entryY=0.75;entryDx=0;entryDy=0;fontColor=default;endArrow=open;endFill=0;" edge="1" parent="1" source="eChJDwyTb9s3T-vj8w6D-2" target="ZklWYCbI00s5IHxO9I_W-62">
                    <mxGeometry relative="1" as="geometry"/>
                </mxCell>
                <mxCell id="eChJDwyTb9s3T-vj8w6D-29" style="edgeStyle=orthogonalEdgeStyle;rounded=0;jumpStyle=arc;jumpSize=10;html=1;exitX=1;exitY=0.5;exitDx=0;exitDy=0;entryX=0;entryY=0.75;entryDx=0;entryDy=0;fontColor=default;endArrow=open;endFill=0;" edge="1" parent="1" source="eChJDwyTb9s3T-vj8w6D-2" target="ZklWYCbI00s5IHxO9I_W-61">
                    <mxGeometry relative="1" as="geometry"/>
                </mxCell>
                <mxCell id="eChJDwyTb9s3T-vj8w6D-2" value="" style="shape=image;verticalLabelPosition=bottom;labelBackgroundColor=default;verticalAlign=top;aspect=fixed;imageAspect=0;image=data:image/png,iVBORw0KGgoAAAANSUhEUgAAAIMAAACFCAMAAABPGrtJAAAAAXNSR0IArs4c6QAAAARnQU1BAACxjwv8YQUAAAHFUExURQAAAAAAAAAAAP///wAAAP///wAAAP///////wAAAP///////wAAAAAAAP///wAAAP///////////wAAAP///////wAAAP///////////wAAAAAAAAAAAP///////wAAAP///////////////////////wAAAAAAAP///wAAAP///////////////////////////////////////////wAAAP///////////////wAAAP///////////////////////////wAAAP///////////wAAAP///////////////////wAAAP///////////////////wAAAP///////9bf4f///////wAAAMPP0////9bf4evv8fj6+v///8PP0////7zKztfg4t7l5/L19XuXn6/AxrzLz9Ha3tfg4uvv8fL19fj6+v///5yxt6O2vLbGyuXq7PL19fj6+v///wAAAC1ZZzRebDpjcUFpdUduek5zf1V4hFt+iGKDjWiIkm+Nl3aSnHyYoIOdpYmiqpCnr5ass5yxt6O2vKm7wbDAxrbGyr3Lz8TQ1MrV2dHa3tfg4t7l5+Xq7Ovv8fL19fj6+v///+YqjrQAAAB1dFJOUwAECAgKEBUYICEoMDY3ODxASFBYWGBiaHB4eXyAgIeNj5OXn6Knq6+vsrK3uLm/wMHDxcfJzc/Q0dTV1dfY2tvf4OHh4+Xn5+jp6uvu7/Dx8vP09PX29/j5+fn6+vr6+/v8/Pz8/f39/f39/f39/v7+/v7+/u6ZSugAAAAJcEhZcwAAFxEAABcRAcom8z8AAApnSURBVHhe7VqLWxvHET9bUZCRy6uGQGtsCnXBpXUfJDStSYPtpiRtSFq7FS1t6fvdtPWDA4RAGLB4CxDS/L39zezc6e50AsSd4/T79Ps+y/u63d/Ozs7M7mK9XKQGE5qKEYnuwTs/ffdOf6vmT0fqHn07bhKJvg9I8c1zsAAFiptE69tEJ1sbq6sbRaLZXi2tC1A42oyZROfHVN5csAW5Q6IbWl4HTGHRXo+VRNsMHS8bBowC0ZDWhMJQsO2NGEm0vE9F7tO2lQg679a6EDgUbHutEheJxBgdc5+LhQpRMcedv6CZlNbWoErBtvNxkeilCs8/W5JdUXnOnRfpTa0NQimAKutPTCRaMsTDKgVgjXNl6tJ6PxwKJbTZjY3ELTpCXwvYDYpyFvlNelvrfUi/LxRWnzwGB/oLRAESX9PKCyNNxCqwowQYh8zpJEwQLdOiOvmn9DcQIfolkyAa0OqLYoj2MGROhzfgtQkXRD/9Js8UaN+2n6MlSOzSR2mtvSCgDSyGfTO44gTTgyA6tY0X3VQpPKUJ2uLNMzJOv41OweoTya/o4A42UVYIN1RdGaL+AVbcPepNjhM9qLuLz4tJ2QZ+MZBo6TLNhip8Z6bfGqMl2y5BUMnxycgU2kTuSzBOfqyCxDFd01Z+YNDpX8OkEbVYVjIyBesG7WC0LR25CtbTAo1oqyBaWSXX6APNRsSEzNg1Ty4qkA4WI6nNAuijF0xxVLPR0EplGawW+VMWA8xh3Iv0hmajoZfY3r7Qcb3g8u06LryN/gh1qLA6xIAhWsdYVTNdRRnleXqg7fwYoIKNCOZbmo2ISRbqgg7rBzvGCoVpfUvmKXbmQUxLkaQnmC7sfgjYTB2GKsQA7xps53iWoosOMFKYOohDgEKEeCPj5LbrbtwG0c8LW2MkDU5Qs07j2tKDUdbXhcpsVC+huCUesqyjBoAoYpk+1pZV9NI/oQ2FyP7awThLFTY3FPAj0NaglWrN0AbIVebi0QbLyjxDQBL0mQ5gCiGigMQTE6IoB7GJoUUWnUORMLAjOQoEU0mE4DCs6/SDOla8YXRK7IATTSiKqNsn37GvdZIeQ01WKr9r05LIeEMs8p6OGQTLyL85u6blLLRUYmbpW7GIol/WPMxSC1C36bECraNYHyzE4hF9FRSm6W4cJIy38G3NI08OUl9zDURqgOgJdgROFvQgaaWmce5+J3r8Ag7soXVEwdHicjWWgCvJGQOR6kXc+HQL68BHzPEWKzWJU8Y6vRedxB0JYHREAaaePdY0Vy5x/HpninM7sEyiwGOQwiT9G5l85b3IxnKMp5qV8RR8hsJ6G7ANNany3nOWgZ1H1RACXYTTcwju7Xz5UVQSkzJvM4ziCCWLBybNq79X3C4UeMWAleIz+sg40uQozfKeypUfdUhBg+hwMUW1ZrIEEguGBPuzKtb2PyGauqafdk7SzB42Se5kLuwkdBakfwX6DkYPJb4H2OVUlcPi+l5N9E/07AAksqW58AP6qUDnLtB/rhjAPi/9Nsbg2uVCYa8IC3K8rQtSg+zRaXc2dSCzPxPYAMxBBKKXM3WA43LDJC7AgejwxYoprwHfnfRr1+dGYC2ymqwCWimOjGvXikVnq9aCd/KFKAR1siZ84KHFl3LCYHW79iQWhYLV72Ka96bfPngoeDgAuQLTGNUv+/tHhAJb9gtQ8CDERnkoiEPbXF3lvSrYPCG6odcB6WmmkIOHi0bBhJM+f+GlIBwk4WzMhUKZvi/RS2wUQnzWNvIOBRPUzsFjApV92Rcw4zPYiKlpjvTioIDQnucHCbso56oUmGCW7xhaOwfZc+7LosB4IYgaok92Y6GgMYzrqxllzx0hxlyhu6Zpx2CGnu1C/vZGhUcGCbSITkFjOfWStYA3WKOva1srNUL0mPVnVa5wh9AgBgp6+8CuIQzmsPdlbQt0TNC/+AItT48QP43GQkFj+00dMwgT93sHQtQgktuk7ySsRJ07mgbRKnNd0zGD4PPUTuCSYdDcCezSl7QgOjJsKMNuoxi8Tw+Cl9Y3ZLvUucO9ECbktkXHDMLE/cHIeZSeILhdo+9qPjJGJG4N80cA6GXpkbZ0kZyURdqv87zROAZE4E6M4EcFNWv0DW1ZRVuGLVsuNkF0ifKv66h+cM1W2CPjAP1dBBHPlZiVlPvYoPc2CFVJRkuGPUme7mk+KsbFa4UqhLklCjvM9Ykgjimm87/cdoYqRAW7dpWmtJ0PiSmCEy2c9Rh8XnTJTUeYQnD5Vp0bnwH23Fn6kWYjor5CsDksUfhBLk3/QO1RndqGMc5iDbsGQZS3XGsdFKJGO3Hdi5k3lA0duAp+TCp4naYPfaxGoReoF0Fa3pIWa06TvBRH9Z4vrDb6Pa/gLKdjuKeckHguGEMwsZU6b2qpic5E5k/4SC4vh6K/qUGsbP79T6zGQO2Hr3cKp/7OMdaXfcgJ4dS9yCRS5qnZf29egWtcqlDY38Wkp+g/lZlx9qoFGhiiPxxQdEmMiCCWfRrBIV6BbwBrkJ6mP/MLN7/zrlOGfrW4UIxOQt/cvc+LJ7CR4W/uyWn6KxrDqP1Xbk9+zicdir5BRuQhZcET4rMP2aQJrfeh2xzF1vndPwsp4LdEP4t8O5eekefmrHs7ygEUtCHcNzskSnyBFxcFtlMldGbn9MDFkbNdrPtqpyR4R8dHwUq8Q3y7ZS/xaedQzpU7NFtXz7pnhIQgLgo4vMzKTgCLVVZPMVmnnB46XRLxUbCsa0R82ahY2Dvjr0scEqAQ+e8vqug1N7SCXPGMPxMTEhAcFOjH0Q11Fd0/wcFqfcFezrPFPDNCYhI4+8dKAee+N2VTMO6eIzYBCYqbAtA1NMsMRs8XHYFE/BSAREfH+aOBzomXQaGJJl4Vbg5rwg+3uE59OBpqbFk988AvroZ8duk2iupyuPnWa5oKQaMctK/PJgfBp8/h5vz8w9etHvxjIXDRzWEsFjfx1AscDryWXHX5vmnHbYYjcJB/b712+f6w8JAsBuC8t960N/9zO66/9JWrunj8obA6P0Qn0R/6v/LDq5b8tM9/8cPPV4e12g0ht55hOFy+j3ZWO3Rayy7fv86JBjlU5dDOdHiP6ESqHMy+qdZzpXxnGF0BY14LzIWT+tX54eWg3UOorgr4ODj1jAAHmT/KonIw3wM9Dz/3IXfpcFDlcOsZykGKsFbCT9YiGodLt5G+/L3XeU49Zuo+nXTqTXvzHasg1zOZdtGri+hklQOvgZhMFLl78zrvNX+9ac+6IePNz7MaQrcffkE+RL6nMQ5NNPH/B94RnzJk0/Fuc/AqOGCTt897LeKr4SBe2MEr44DFcKIS5uCmHbPJSwYr6f6H8hipylrAIlejEm+EAk25Iv6MW10Xfpzk8hghOslzlgz3rxN00/hRF+pGNVwXI7i7S7fFHRoyPK43zT8aSrhRjZTHB5kS5ulEJdy/N+3j4HrRl8PBiUrcIb0cnLVwopqXwIGjFe7fRCXeCEU5SDjTPuxGNXFz4CVG125Uwv170/LDoQp0xolqYubQRBNNNNFEE018dmBZ/wO19vzCHHk/bgAAAABJRU5ErkJggg==;" vertex="1" parent="1">
                    <mxGeometry x="-486" y="6154.88" width="88.65" height="90" as="geometry"/>
                </mxCell>
                <mxCell id="eChJDwyTb9s3T-vj8w6D-10" style="edgeStyle=orthogonalEdgeStyle;rounded=0;html=1;exitX=0.5;exitY=1;exitDx=0;exitDy=0;entryX=0.508;entryY=-0.013;entryDx=0;entryDy=0;endArrow=open;endFill=0;entryPerimeter=0;" edge="1" parent="1" source="eChJDwyTb9s3T-vj8w6D-8" target="eChJDwyTb9s3T-vj8w6D-21">
                    <mxGeometry relative="1" as="geometry">
                        <mxPoint x="-577.8800000000001" y="6310" as="targetPoint"/>
                    </mxGeometry>
                </mxCell>
                <mxCell id="eChJDwyTb9s3T-vj8w6D-12" style="edgeStyle=orthogonalEdgeStyle;rounded=0;html=1;exitX=0.5;exitY=1;exitDx=0;exitDy=0;entryX=0.964;entryY=0.522;entryDx=0;entryDy=0;endArrow=open;endFill=0;entryPerimeter=0;" edge="1" parent="1" source="eChJDwyTb9s3T-vj8w6D-11" target="eChJDwyTb9s3T-vj8w6D-21">
                    <mxGeometry relative="1" as="geometry">
                        <mxPoint x="-547.44" y="6340.44" as="targetPoint"/>
                        <Array as="points">
                            <mxPoint x="-244" y="6338"/>
                            <mxPoint x="-559" y="6338"/>
                        </Array>
                    </mxGeometry>
                </mxCell>
                <mxCell id="eChJDwyTb9s3T-vj8w6D-14" value="" style="group" vertex="1" connectable="0" parent="1">
                    <mxGeometry x="-290" y="6155" width="90" height="85.88000000000011" as="geometry"/>
                </mxCell>
                <mxCell id="ZklWYCbI00s5IHxO9I_W-61" value="" style="shape=image;verticalLabelPosition=bottom;verticalAlign=top;imageAspect=0;aspect=fixed;image=data:image/svg+xml,PHN2ZyB4bWxucz0iaHR0cDovL3d3dy53My5vcmcvMjAwMC9zdmciIHhtbG5zOnhsaW5rPSJodHRwOi8vd3d3LnczLm9yZy8xOTk5L3hsaW5rIiB2ZXJzaW9uPSIxLjEiIGlkPSJMYXllcl8xIiB4PSIwcHgiIHk9IjBweCIgdmlld0JveD0iMCAwIDQyIDQyIiBzdHlsZT0iZW5hYmxlLWJhY2tncm91bmQ6bmV3IDAgMCA0MiA0MjsiIHhtbDpzcGFjZT0icHJlc2VydmUiIHdpZHRoPSI0MiIgaGVpZ2h0PSI0MiI+JiN4YTs8c3R5bGUgdHlwZT0idGV4dC9jc3MiPiYjeGE7CS5zdDB7ZmlsbDojRkZGRkZGO30mI3hhOwkuc3Qxe2ZpbGw6IzJDNTk2Nzt9JiN4YTs8L3N0eWxlPiYjeGE7PGc+JiN4YTsJPGc+JiN4YTsJCTxwYXRoIGNsYXNzPSJzdDAiIGQ9Ik0yLjY3LDQxLjVjLTEuMTksMC0yLjE3LTAuOTctMi4xNy0yLjE3VjIuNjdjMC0xLjE5LDAuOTctMi4xNywyLjE3LTIuMTdoMzYuNjdjMS4xOSwwLDIuMTcsMC45NywyLjE3LDIuMTcmIzEwOyYjOTsmIzk7JiM5O3YzNi42N2MwLDEuMTktMC45NywyLjE3LTIuMTcsMi4xN0gyLjY3eiIvPiYjeGE7CQk8cGF0aCBjbGFzcz0ic3QwIiBkPSJNMzkuMzMsMUM0MC4yNSwxLDQxLDEuNzUsNDEsMi42N3YzNi42N2MwLDAuOTItMC43NSwxLjY3LTEuNjcsMS42N0gyLjY3QzEuNzUsNDEsMSw0MC4yNSwxLDM5LjMzVjIuNjcmIzEwOyYjOTsmIzk7JiM5O0MxLDEuNzUsMS43NSwxLDIuNjcsMUgzOS4zMyBNMzkuMzMsMEgyLjY3QzEuMiwwLDAsMS4yLDAsMi42N3YzNi42N0MwLDQwLjgsMS4yLDQyLDIuNjcsNDJoMzYuNjdDNDAuOCw0Miw0Miw0MC44LDQyLDM5LjMzVjIuNjcmIzEwOyYjOTsmIzk7JiM5O0M0MiwxLjIsNDAuOCwwLDM5LjMzLDBMMzkuMzMsMHoiLz4mI3hhOwk8L2c+JiN4YTsJPGc+JiN4YTsJCTxwYXRoIGNsYXNzPSJzdDEiIGQ9Ik0zOS4zMywxSDIuNjdDMS43NSwxLDEsMS43NSwxLDIuNjd2MzYuNjdDMSw0MC4yNSwxLjc1LDQxLDIuNjcsNDFoMzYuNjdjMC45MiwwLDEuNjctMC43NSwxLjY3LTEuNjdWMi42NyYjMTA7JiM5OyYjOTsmIzk7QzQxLDEuNzUsNDAuMjUsMSwzOS4zMywxeiBNMzkuNTIsMzkuMzNjMCwwLjEtMC4wOCwwLjE5LTAuMTksMC4xOUgyLjY3Yy0wLjEsMC0wLjE5LTAuMDgtMC4xOS0wLjE5VjIuNjcmIzEwOyYjOTsmIzk7JiM5O2MwLTAuMSwwLjA4LTAuMTksMC4xOS0wLjE5aDM2LjY3YzAuMSwwLDAuMTksMC4wOCwwLjE5LDAuMTlWMzkuMzN6Ii8+JiN4YTsJCTxwYXRoIGNsYXNzPSJzdDEiIGQ9Ik02LjU2LDM1LjQ0aDI5LjA3di04Ljg5SDYuNTZWMzUuNDR6IE04LjA0LDI4LjA0aDI2LjExdjUuOTNIOC4wNFYyOC4wNHoiLz4mI3hhOwkJPGNpcmNsZSBjbGFzcz0ic3QxIiBjeD0iMzAuODEiIGN5PSIzMSIgcj0iMS4xMSIvPiYjeGE7CQk8cGF0aCBjbGFzcz0ic3QxIiBkPSJNMTUuNDQsNi41Nkg2LjU2djguODloOC44OVY2LjU2eiBNMTMuOTYsMTMuOTZIOC4wNFY4LjA0aDUuOTNWMTMuOTZ6Ii8+JiN4YTsJCTxwYXRoIGNsYXNzPSJzdDEiIGQ9Ik0yNS40NCw2LjU2aC04Ljg5djguODloOC44OVY2LjU2eiBNMjMuOTYsMTMuOTZoLTUuOTNWOC4wNGg1LjkzVjEzLjk2eiIvPiYjeGE7CQk8cGF0aCBjbGFzcz0ic3QxIiBkPSJNMTUuNDQsMTYuNTZINi41NnY4Ljg5aDguODlWMTYuNTZ6IE0xMy45NiwyMy45Nkg4LjA0di01LjkzaDUuOTNWMjMuOTZ6Ii8+JiN4YTsJCTxwYXRoIGNsYXNzPSJzdDEiIGQ9Ik0yNS40NCwxNi41NmgtOC44OXY4Ljg5aDguODlWMTYuNTZ6IE0yMy45NiwyMy45NmgtNS45M3YtNS45M2g1LjkzVjIzLjk2eiIvPiYjeGE7CQk8cGF0aCBjbGFzcz0ic3QxIiBkPSJNMzUuNDQsNi41NmgtOC44OXY4Ljg5aDguODlWNi41NnogTTMzLjk2LDEzLjk2aC01LjkzVjguMDRoNS45M1YxMy45NnoiLz4mI3hhOwkJPHBhdGggY2xhc3M9InN0MSIgZD0iTTM1LjQ0LDE2LjU2aC04Ljg5djguODloOC44OVYxNi41NnogTTMzLjk2LDIzLjk2aC01Ljkzdi01LjkzaDUuOTNWMjMuOTZ6Ii8+JiN4YTsJPC9nPiYjeGE7PC9nPiYjeGE7PC9zdmc+;fontColor=#312D2A;strokeColor=#9E9892;fillColor=#FCFBFA;container=0;" parent="eChJDwyTb9s3T-vj8w6D-14" vertex="1">
                    <mxGeometry x="18.629999999999995" width="60.88" height="60.88" as="geometry"/>
                </mxCell>
                <mxCell id="eChJDwyTb9s3T-vj8w6D-11" value="&lt;span style=&quot;color: rgb(49, 45, 42); font-family: Helvetica; font-size: 12px; font-style: normal; font-variant-ligatures: normal; font-variant-caps: normal; font-weight: 400; letter-spacing: normal; orphans: 2; text-indent: 0px; text-transform: none; widows: 2; word-spacing: 0px; -webkit-text-stroke-width: 0px; text-decoration-thickness: initial; text-decoration-style: initial; text-decoration-color: initial; float: none; display: inline !important;&quot;&gt;Webapp&lt;/span&gt;" style="text;whiteSpace=wrap;html=1;align=center;labelBackgroundColor=none;" vertex="1" parent="eChJDwyTb9s3T-vj8w6D-14">
                    <mxGeometry y="60.88000000000011" width="90" height="25" as="geometry"/>
                </mxCell>
                <mxCell id="eChJDwyTb9s3T-vj8w6D-17" value="" style="group" vertex="1" connectable="0" parent="1">
                    <mxGeometry x="-622.88" y="6155" width="90" height="85.4399999999996" as="geometry"/>
                </mxCell>
                <mxCell id="ZklWYCbI00s5IHxO9I_W-62" value="" style="shape=image;verticalLabelPosition=bottom;verticalAlign=top;imageAspect=0;aspect=fixed;image=data:image/svg+xml,PHN2ZyB4bWxucz0iaHR0cDovL3d3dy53My5vcmcvMjAwMC9zdmciIHhtbG5zOnhsaW5rPSJodHRwOi8vd3d3LnczLm9yZy8xOTk5L3hsaW5rIiB2ZXJzaW9uPSIxLjEiIGlkPSJMYXllcl8xIiB4PSIwcHgiIHk9IjBweCIgdmlld0JveD0iMCAwIDQyIDQyIiBzdHlsZT0iZW5hYmxlLWJhY2tncm91bmQ6bmV3IDAgMCA0MiA0MjsiIHhtbDpzcGFjZT0icHJlc2VydmUiIHdpZHRoPSI0MiIgaGVpZ2h0PSI0MiI+JiN4YTs8c3R5bGUgdHlwZT0idGV4dC9jc3MiPiYjeGE7CS5zdDB7ZmlsbDojRkZGRkZGO30mI3hhOwkuc3Qxe2ZpbGw6IzJDNTk2Nzt9JiN4YTs8L3N0eWxlPiYjeGE7PGc+JiN4YTsJPGc+JiN4YTsJCTxwYXRoIGNsYXNzPSJzdDAiIGQ9Ik0yLjY3LDQxLjVjLTEuMTksMC0yLjE3LTAuOTctMi4xNy0yLjE3VjIuNjdjMC0xLjE5LDAuOTctMi4xNywyLjE3LTIuMTdoMzYuNjdjMS4xOSwwLDIuMTcsMC45NywyLjE3LDIuMTcmIzEwOyYjOTsmIzk7JiM5O3YzNi42N2MwLDEuMTktMC45NywyLjE3LTIuMTcsMi4xN0gyLjY3eiIvPiYjeGE7CQk8cGF0aCBjbGFzcz0ic3QwIiBkPSJNMzkuMzMsMUM0MC4yNSwxLDQxLDEuNzUsNDEsMi42N3YzNi42N2MwLDAuOTItMC43NSwxLjY3LTEuNjcsMS42N0gyLjY3QzEuNzUsNDEsMSw0MC4yNSwxLDM5LjMzVjIuNjcmIzEwOyYjOTsmIzk7JiM5O0MxLDEuNzUsMS43NSwxLDIuNjcsMUgzOS4zMyBNMzkuMzMsMEgyLjY3QzEuMiwwLDAsMS4yLDAsMi42N3YzNi42N0MwLDQwLjgsMS4yLDQyLDIuNjcsNDJoMzYuNjdDNDAuOCw0Miw0Miw0MC44LDQyLDM5LjMzVjIuNjcmIzEwOyYjOTsmIzk7JiM5O0M0MiwxLjIsNDAuOCwwLDM5LjMzLDBMMzkuMzMsMHoiLz4mI3hhOwk8L2c+JiN4YTsJPGc+JiN4YTsJCTxwYXRoIGNsYXNzPSJzdDEiIGQ9Ik0zOS4zMywxSDIuNjdDMS43NSwxLDEsMS43NSwxLDIuNjd2MzYuNjdDMSw0MC4yNSwxLjc1LDQxLDIuNjcsNDFoMzYuNjdjMC45MiwwLDEuNjctMC43NSwxLjY3LTEuNjdWMi42NyYjMTA7JiM5OyYjOTsmIzk7QzQxLDEuNzUsNDAuMjUsMSwzOS4zMywxeiBNMzkuNTIsMzkuMzNjMCwwLjEtMC4wOCwwLjE5LTAuMTksMC4xOUgyLjY3Yy0wLjEsMC0wLjE5LTAuMDgtMC4xOS0wLjE5VjIuNjcmIzEwOyYjOTsmIzk7JiM5O2MwLTAuMSwwLjA4LTAuMTksMC4xOS0wLjE5aDM2LjY3YzAuMSwwLDAuMTksMC4wOCwwLjE5LDAuMTlWMzkuMzN6Ii8+JiN4YTsJCTxwYXRoIGNsYXNzPSJzdDEiIGQ9Ik02LjU2LDM1LjQ0aDI5LjA3di04Ljg5SDYuNTZWMzUuNDR6IE04LjA0LDI4LjA0aDI2LjExdjUuOTNIOC4wNFYyOC4wNHoiLz4mI3hhOwkJPGNpcmNsZSBjbGFzcz0ic3QxIiBjeD0iMzAuODEiIGN5PSIzMSIgcj0iMS4xMSIvPiYjeGE7CQk8cGF0aCBjbGFzcz0ic3QxIiBkPSJNMTUuNDQsNi41Nkg2LjU2djguODloOC44OVY2LjU2eiBNMTMuOTYsMTMuOTZIOC4wNFY4LjA0aDUuOTNWMTMuOTZ6Ii8+JiN4YTsJCTxwYXRoIGNsYXNzPSJzdDEiIGQ9Ik0yNS40NCw2LjU2aC04Ljg5djguODloOC44OVY2LjU2eiBNMjMuOTYsMTMuOTZoLTUuOTNWOC4wNGg1LjkzVjEzLjk2eiIvPiYjeGE7CQk8cGF0aCBjbGFzcz0ic3QxIiBkPSJNMTUuNDQsMTYuNTZINi41NnY4Ljg5aDguODlWMTYuNTZ6IE0xMy45NiwyMy45Nkg4LjA0di01LjkzaDUuOTNWMjMuOTZ6Ii8+JiN4YTsJCTxwYXRoIGNsYXNzPSJzdDEiIGQ9Ik0yNS40NCwxNi41NmgtOC44OXY4Ljg5aDguODlWMTYuNTZ6IE0yMy45NiwyMy45NmgtNS45M3YtNS45M2g1LjkzVjIzLjk2eiIvPiYjeGE7CQk8cGF0aCBjbGFzcz0ic3QxIiBkPSJNMzUuNDQsNi41NmgtOC44OXY4Ljg5aDguODlWNi41NnogTTMzLjk2LDEzLjk2aC01LjkzVjguMDRoNS45M1YxMy45NnoiLz4mI3hhOwkJPHBhdGggY2xhc3M9InN0MSIgZD0iTTM1LjQ0LDE2LjU2aC04Ljg5djguODloOC44OVYxNi41NnogTTMzLjk2LDIzLjk2aC01Ljkzdi01LjkzaDUuOTNWMjMuOTZ6Ii8+JiN4YTsJPC9nPiYjeGE7PC9nPiYjeGE7PC9zdmc+;fontColor=#312D2A;strokeColor=#9E9892;fillColor=#FCFBFA;container=0;" parent="eChJDwyTb9s3T-vj8w6D-17" vertex="1">
                    <mxGeometry x="14.559999999999945" width="60.88" height="60.88" as="geometry"/>
                </mxCell>
                <mxCell id="eChJDwyTb9s3T-vj8w6D-8" value="&lt;span style=&quot;color: rgb(49, 45, 42); font-family: Helvetica; font-size: 12px; font-style: normal; font-variant-ligatures: normal; font-variant-caps: normal; font-weight: 400; letter-spacing: normal; orphans: 2; text-indent: 0px; text-transform: none; widows: 2; word-spacing: 0px; -webkit-text-stroke-width: 0px; text-decoration-thickness: initial; text-decoration-style: initial; text-decoration-color: initial; float: none; display: inline !important;&quot;&gt;Webapp&lt;/span&gt;" style="text;whiteSpace=wrap;html=1;align=center;labelBackgroundColor=none;" vertex="1" parent="eChJDwyTb9s3T-vj8w6D-17">
                    <mxGeometry y="60.4399999999996" width="90" height="25" as="geometry"/>
                </mxCell>
                <mxCell id="eChJDwyTb9s3T-vj8w6D-23" value="" style="group" vertex="1" connectable="0" parent="1">
                    <mxGeometry x="-623.52" y="6315" width="90" height="68.71000000000004" as="geometry"/>
                </mxCell>
                <mxCell id="eChJDwyTb9s3T-vj8w6D-21" style="vsdxID=16;fillColor=#2d5967;gradientColor=none;shape=stencil(lVjLctswDPwaXzkkwec5Tf4j0zi1p26ccZI2/fuClUgRIEVFN1sGscACC1A+wN3b6fH1eNDy7f12/Xn8c356Px3g20Hr88vpeDu/46cD3B/g7vl6O/64XT9enqbvr4/JMn36df2dPHxO55SU6YyWf+fvWsT/Dx4m6+8ft8lccfv5gRZ+evCppwfOCzObzE/mE58wfTVRxDhbQG2xAgla2EBBJYWUFG8JCejv0M/xcn6pGKF8BC/sKDjGRszmJTaM3msaX+FwwEi2WYFFkrWj0ItXDpNxq+CAm0A/XUrNVrPss6aNGI2AQOzdRivWJzItIIDxH7XQgfLgrHCUh6CFs5QJZNj5EbxXIioGH4VXTA1SREfhvcyeRw2AVhaGsggisvSTZ0fxtV+sdInSRdYH2E6qzV8P829Uibxaxr7NThZ0LBEFr2ygVD4M2rA6MNNnxiJVtjCeY0XGgQ0uqEjI4cscyBKtFApouIvVmlpBSEPxa88zWDDCMfw6Sihdn2uc8Xn6lK1tYe213xIudiYM+egoF8+ETeEaJSSjo6NcA0KNO7dVrrFCMeV0lGtc9jxSLvqKw8nRUW7yzCZHR7kpSiaejnIxfzmeXI1yE7GawrfKxbA9F0Mj3VT7HcpVUei90tUmnxlJF7E865WOdBerr0u39rwu3RTltnSb/Le02Ghr9wF2/0PmDDngRRgyolnvIBuRslH3d+5cEVjjdoQznqFcsTnMAsuvWVaEQDFxWHhWgDCcU7ppPsUuWUi4Zbh4z2EyqY1W7qCdEVmOZOhlcy4j0gIDt41IO1lj1YfonkFr2cyHpt9xhGyXGB0NgTujMTk27WiMDF4uVtVoNG3eG5cawwteEbo6GrE0DLydjFsVr06ocoIl7psxo6rKLEmWGZAvk8N7+uYI2GtPR0zqv0js02ofl0ELyfSOgtBszji1WGVF2PJeNOjCWPbo19uw9ry+oeso1zf0dv7Nho64u9i8a9sw5DoP2nD8htcsaHxZkHsXtIesstGC9rbRTLufi9HX13Pld3071yGub+cm+WbZlhN9cjtT3bHX9lSz9pXVspsnll+zeFFWkbGV+ooIET8sf/w8ny+X6X+j+nf+RxE+mv5kgvt/);strokeColor=none;spacingTop=-3;spacingBottom=-3;spacingLeft=-3;spacingRight=-3;points=[];labelBackgroundColor=none;rounded=0;html=1;whiteSpace=wrap;dashed=1;dashPattern=1 1;fontFamily=Helvetica;fontSize=12;fontColor=#312D2A;align=center;" vertex="1" parent="eChJDwyTb9s3T-vj8w6D-23">
                    <mxGeometry x="25.029999999999973" width="39.94" height="45" as="geometry"/>
                </mxCell>
                <mxCell id="eChJDwyTb9s3T-vj8w6D-22" value="&lt;span style=&quot;color: rgb(49, 45, 42); font-family: Helvetica; font-size: 12px; font-style: normal; font-variant-ligatures: normal; font-variant-caps: normal; font-weight: 400; letter-spacing: normal; orphans: 2; text-indent: 0px; text-transform: none; widows: 2; word-spacing: 0px; -webkit-text-stroke-width: 0px; text-decoration-thickness: initial; text-decoration-style: initial; text-decoration-color: initial; float: none; display: inline !important;&quot;&gt;Kasm DB/Redis&lt;/span&gt;" style="text;whiteSpace=wrap;html=1;align=center;labelBackgroundColor=none;" vertex="1" parent="eChJDwyTb9s3T-vj8w6D-23">
                    <mxGeometry y="43.710000000000036" width="90" height="25" as="geometry"/>
                </mxCell>
                <mxCell id="eChJDwyTb9s3T-vj8w6D-26" value="" style="group" vertex="1" connectable="0" parent="1">
                    <mxGeometry x="-487" y="6051" width="90" height="77" as="geometry"/>
                </mxCell>
                <UserObject label="Internet Gateway" placeholders="1" name="Variable" id="HhmFAeyS2S2euJ_gTcu7-519">
                    <mxCell style="text;html=1;strokeColor=none;fillColor=#F5F4F2;align=center;verticalAlign=middle;whiteSpace=wrap;overflow=hidden;container=0;fontColor=default;labelBackgroundColor=none;" parent="eChJDwyTb9s3T-vj8w6D-26" vertex="1">
                        <mxGeometry y="29.923076923077133" width="90" height="47.07692307692307" as="geometry"/>
                    </mxCell>
                </UserObject>
                <mxCell id="HhmFAeyS2S2euJ_gTcu7-520" value="" style="shape=image;aspect=fixed;image=data:image/svg+xml,PHN2ZyB4bWxucz0iaHR0cDovL3d3dy53My5vcmcvMjAwMC9zdmciIHZpZXdCb3g9IjAgMCAzOS4zMSA0Mi44MyI+PGRlZnM+PHN0eWxlPi5jbHMtMXtmaWxsOiNmZmY7fS5jbHMtMntmaWxsOiMyYzU5Njc7fTwvc3R5bGU+PC9kZWZzPjx0aXRsZT5kcmF3aW9Bc3NldCAxPC90aXRsZT48ZyBpZD0iTGF5ZXJfMiIgZGF0YS1uYW1lPSJMYXllciAyIj48ZyBpZD0iTGF5ZXJfMS0yIiBkYXRhLW5hbWU9IkxheWVyIDEiPjxwYXRoIGNsYXNzPSJjbHMtMSIgZD0iTTE1LjU1LDM4LDE3LDM2LjU5Yy0uMy0uMDUtLjYtLjExLS45LS4xOWwtLjM5LS4wOWMtLjI3LS4wNy0uNTMtLjE1LS43OS0uMjRhNSw1LDAsMCwxLS41MS0uMTdsLS42My0uMjUtLjYzLS4yNy0uNDEtLjJjLS4zMS0uMTYtLjU2LS4yOS0uOC0uNDNsLS4yOS0uMThjLS4zMS0uMTktLjU4LS4zNi0uODMtLjU0bC0uNDMtLjMxLS40My0uMzItLjQxLS4zNCwwLDBBMTUuNDgsMTUuNDgsMCwwLDEsOCwzMS41M0g4bC0uMzYtLjQxLS4zMi0uNDNMNywzMC4yN2MtLjE4LS4yNi0uMzUtLjUyLS41Mi0uNzlsLS4yLS4zNGMtLjE0LS4yNC0uMjctLjQ4LS40LS43M3MtLjE3LS4zMy0uMjMtLjQ3LS4xOS0uNDItLjI3LS42My0uMTgtLjQyLS4yNS0uNjNBNCw0LDAsMCwxLDUsMjYuMjNjLS4xMS0uMzItLjE5LS41OC0uMjYtLjg1TDQuNjYsMjVjLS4wNy0uMy0uMTQtLjYxLS4xOS0uOTJsLS4wOC0uNWMwLS4xOC0uMDYtLjM2LS4wOC0uNTVsMC0uNDhILjVWMjAuMjlINC4yOGwwLS40OGMwLS4xOS4wNS0uMzcuMDgtLjU1bC4wOC0uNWMwLS4zMS4xMi0uNjIuMi0uOTNsLjA5LS4zOGMuMDctLjI3LjE1LS41My4yNC0uOHMuMTEtLjMzLjE2LS41LjE3LS40My4yNi0uNjQuMTctLjQxLjI3LS42MmwuMjEtLjQzYy4xNS0uMjkuMjgtLjU0LjQyLS43N2wuMjEtLjM1cS4yNC0uMzkuNTEtLjc4bC4zMS0uNDJjLjEtLjE1LjIxLS4zLjMyLS40NEw4LDExLjI4bDAsMEExNC40NCwxNC40NCwwLDAsMSw5LjU1LDkuNzloMGwuNC0uMzUuNDUtLjMzLjQtLjNjLjI2LS4xOC41My0uMzUuNzktLjUxbC4zNC0uMjEuNzMtLjQuMSwwLC4zOC0uMTlxLjMxLS4xNS42My0uMjdsLjYzLS4yNi40NS0uMTUuODUtLjI1LjM4LS4xTDE3LDYuMjMsMTUuNTUsNC44MWw0LjEtNC4xLDQuMSw0LjFMMjIuMzMsNi4yM2wuOS4xOS4zOS4xYy4yNy4wNy41My4xNS43OS4yNGwuNTEuMTYuNjMuMjYuNjMuMjcuMzkuMTkuODEuNDQuMy4xOGMuMzEuMTkuNTcuMzYuODMuNTRsLjQzLjMxLjQzLjMyLjQxLjM0LDAsMGExNS4yNywxNS4yNywwLDAsMSwxLjUxLDEuNWgwbC4zNi40Mi4zMy40NC4zLjQycS4yNy4zOS41MS43OGwuMjEuMzRjLjE0LjI1LjI3LjQ5LjM5LjczbC4yNC40OHEuMTUuMzEuMjcuNjNjLjA5LjIxLjE4LjQyLjI1LjYzcy4xMS4zMS4xNi40Ny4xOC41Ni4yNS44M2wuMDkuMzljLjA4LjMuMTQuNjEuMi45MmwuMDguNWE0Ljg2LDQuODYsMCwwLDEsLjA3LjU1bDAsLjQ4aDMuNzd2Mi4yNUgzNUwzNSwyM2E1LDUsMCwwLDEtLjA3LjU0bC0uMDguNTFjLS4wNi4zMS0uMTIuNjItLjIuOTJsLS4wOS4zOWMtLjA3LjI3LS4xNS41My0uMjQuNzlhNSw1LDAsMCwxLS4xNy41MWMtLjA3LjIxLS4xNi40Mi0uMjUuNjNzLS4xNy40Mi0uMjcuNjNsLS4yMi40NGMtLjE0LjI4LS4yNy41Mi0uNDEuNzZsLS4yMS4zNGMtLjE2LjI3LS4zMy41My0uNTEuNzlsLS4zLjRhNC44NCw0Ljg0LDAsMCwxLS4zMy40NmwtLjM1LjQzLDAsMEExNS4yNywxNS4yNywwLDAsMSwyOS43NiwzM2gwbC0uNC4zNS0uNDMuMzEtLjQzLjMyYy0uMjYuMTgtLjUyLjM1LS43OS41MWwtLjM0LjIxYy0uMjQuMTQtLjQ4LjI3LS43My4zOWwtLjQ3LjI0LS42My4yNy0uNjMuMjUtLjUxLjE3Yy0uMjYuMDktLjUyLjE3LS43OS4yNGwtLjM5LjA5Yy0uMy4wOC0uNi4xNC0uOS4xOUwyMy43NSwzOGwtNC4xLDQuMVptNS4yMy0uMTlMMjIsMzYuNjVsLS4xNSwwYTUsNSwwLDAsMS0uNTQuMDdsLS40OCwwWm0tMi4yNSwwdi0xbC0uNDgsMGE0Ljg2LDQuODYsMCwwLDEtLjU1LS4wN2wtLjE0LDBaTTIxLjI2LDYuMDdsLjU0LjA4LjE1LDBMMjAuNzgsNVY2Wm0tMy45LjEuMTQsMCwuNTUtLjA4TDE4LjUzLDZWNVoiLz48cGF0aCBjbGFzcz0iY2xzLTEiIGQ9Ik0xOS42NSwxLjQxbDEuNTEsMS41MS4wNS4wNSwxLjg0LDEuODQtLjg4Ljg4LTEtMS0uOTMtLjk0VjYuNTJsLjkzLjA3djBsLjcyLjExLjMsMGMuMywwLC41OS4xMi44OS4xOWwuMzcuMDkuNzcuMjMuNDkuMTYuNjEuMjVMMjYsNy45bC40Ni4yM2MuMjQuMTIuNDcuMjQuNy4zOGwuMzMuMmMuMjYuMTYuNTIuMzIuNzcuNWwuMjMuMThjLjIuMTQuNC4yOC41OS40M2gwYTE1LjI1LDE1LjI1LDAsMCwxLDIuMiwyLjJoMGMuMTUuMTkuMjkuMzkuNDMuNThsLjE4LjI0Yy4xOC4yNS4zNC41MS41Ljc3cy4xMy4yMS4yLjMzLjI2LjQ2LjM4LjcuMTUuMzEuMjMuNDYuMTguNC4yNi42MS4xNy40LjI0LjYxLjExLjMzLjE3LjQ5LjE2LjUxLjIzLjc3bC4wOS4zN2MuMDcuMy4xMy41OS4xOS44OSwwLC4xLDAsLjIsMCwuM3MuMDguNDguMTEuNzJoMHEwLC40Ny4wNi45M2gzLjc3VjIySDM0LjU0cTAsLjQ3LS4wNi45M2gwYzAsLjI0LS4wNy40OC0uMTEuNzJzMCwuMiwwLC4zYy0uMDYuMy0uMTIuNTktLjE5Ljg5bC0uMDkuMzdjLS4wNy4yNi0uMTUuNTEtLjIzLjc3cy0uMTEuMzItLjE3LjQ5LS4xNi40MS0uMjQuNjEtLjE3LjQxLS4yNi42MWwtLjIzLjQ2LS4zOC43LS4yLjMzYy0uMTYuMjYtLjMyLjUxLS41Ljc2bC0uMTguMjVjLS4xNC4xOS0uMjguMzktLjQzLjU4aDBBMTUuMjUsMTUuMjUsMCwwLDEsMjksMzNoMGMtLjE5LjE1LS4zOS4yOS0uNTkuNDNsLS4yMy4xOGMtLjI1LjE4LS41MS4zNC0uNzcuNWwtLjMzLjJjLS4yMy4xMy0uNDYuMjYtLjcuMzhsLS40Ni4yMy0uNjEuMjYtLjYxLjI0LS40OS4xNy0uNzcuMjMtLjM3LjA5LS44OS4xOS0uMywwLS43Mi4xMXYwcS0uNDcsMC0uOTMuMDZWMzlsLjkzLS45MywxLTEsLjg4Ljg4LTEuODQsMS44NC0uNjguNjctLjg4Ljg4LS44OC0uODgtLjY3LS42N0wxNi4yNiwzOGwuODgtLjg4LDEsMUwxOSwzOVYzNi4zcS0uNDcsMC0uOTMtLjA2djBsLS43Mi0uMTEtLjMsMC0uODktLjE5LS4zNy0uMDktLjc3LS4yMy0uNDktLjE3Yy0uMjEtLjA3LS40MS0uMTYtLjYxLS4yNGwtLjYxLS4yNi0uNDYtLjIzYy0uMjQtLjEyLS40Ny0uMjUtLjctLjM4bC0uMzMtLjJjLS4yNi0uMTYtLjUyLS4zMi0uNzctLjVsLS4yMy0uMThjLS4yLS4xNC0uNC0uMjgtLjU5LS40M2gwYTE1LjI1LDE1LjI1LDAsMCwxLTIuMi0yLjJoMGMtLjE1LS4xOS0uMjktLjM5LS40My0uNTlzLS4xMi0uMTUtLjE4LS4yNGMtLjE4LS4yNS0uMzQtLjUtLjUtLjc2LS4wNy0uMTEtLjE0LS4yMi0uMi0uMzNzLS4yNi0uNDctLjM4LS43bC0uMjMtLjQ2Yy0uMDktLjItLjE4LS40MS0uMjYtLjYxcy0uMTctLjQxLS4yNS0uNjEtLjExLS4zMy0uMTYtLjQ5LS4xNi0uNTEtLjIzLS43N2wtLjA5LS4zN2MtLjA3LS4zLS4xMy0uNTktLjE5LS45LDAtLjA5LDAtLjE5LDAtLjI5cy0uMDgtLjQ4LS4xMS0uNzJoMGMwLS4zMSwwLS42Mi0uMDctLjkzSDFWMjAuNzlINC43NmMwLS4zMSwwLS42Mi4wNy0uOTNoMGMwLS4yNC4wNy0uNDguMTEtLjcyczAtLjIsMC0uM2MuMDYtLjMuMTItLjU5LjE5LS44OWwuMDktLjM3Yy4wNy0uMjYuMTUtLjUyLjIzLS43N2wuMTYtLjQ5Yy4wOC0uMjEuMTYtLjQxLjI1LS42MXMuMTctLjQxLjI2LS42MS4xNS0uMzEuMjMtLjQ2LjI0LS40Ny4zOC0uN0EzLjc5LDMuNzksMCwwLDEsNywxMy42Yy4xNi0uMjUuMzItLjUxLjUtLjc2bC4xOC0uMjRjLjE0LS4xOS4yOC0uMzkuNDMtLjU4aDBhMTUuMjUsMTUuMjUsMCwwLDEsMi4yLTIuMmgwbC41OC0uNDMuMjQtLjE4Yy4yNS0uMTguNTEtLjM0Ljc3LS41YTMuNjIsMy42MiwwLDAsMSwuMzMtLjJjLjIzLS4xMy40Ni0uMjYuNy0uMzhsLjQ2LS4yM0wxNCw3LjY0bC42MS0uMjUuNDktLjE2TDE1LjgyLDdsLjM3LS4wOWMuMy0uMDcuNTktLjE0Ljg5LS4xOWwuMywwLC43Mi0uMTF2MEwxOSw2LjUyVjMuNzlsLS45My45NC0xLDEtLjg4LS44OEwxOC4xLDNsMC0uMDUsMS41LTEuNTFtMC0xLjQxTDE5LC43MWwtMS41LDEuNS0uMDYsMEwxNS41NSw0LjFsLS43LjcxLjcuNzEuNDIuNDFoMGwtLjExLDBMMTUuNTYsNmwtLjgyLjI1LS4wNSwwLS40Ny4xNS0uNjYuMjZMMTIuOTIsN2wtLjQyLjIxLS4wNywwYy0uMjYuMTMtLjUxLjI2LS43NS40bC0uMjYuMTYtLjEuMDZjLS4yNy4xNy0uNTQuMzQtLjgxLjUzYTEuMDksMS4wOSwwLDAsMC0uMTcuMTNsLS4wOS4wNi0uMTYuMTJMOS42Myw5bC0uODUuNjksMCwwYy0uMjguMjYtLjU1LjUyLS44MS44bDAsMC0uNzEuODQtLjM0LjQ1TDYuODIsMTJsLS4wNi4wOWExLjA5LDEuMDksMCwwLDAtLjEzLjE3Yy0uMTkuMjctLjM2LjU0LS41My44MWwwLC4wOS0uMTcuMjdjLS4xNC4yNC0uMjcuNDktLjQuNzVzLS4xNy4zMy0uMjUuNDktLjE5LjQzLS4yOC42NC0uMTcuNDQtLjI1LjY2LS4xMS4zMS0uMTYuNDZsMCwuMDZjLS4wOS4yNy0uMTcuNTQtLjI1LjgyLDAsLjEsMCwuMi0uMDcuM2wwLC4xYy0uMDguMzEtLjE1LjYzLS4yLDFsMCwuMjEsMCwuMSwwLC4yMWMwLC4xOS0uMDYuMzctLjA4LjU3djBIMFYyM0gzLjgxdjBjMCwuMTkuMDUuMzguMDguNTdsMCwuMkw0LDI0bDAsLjJjLjA1LjMzLjEyLjY0LjIsMWwwLC4xYzAsLjEsMCwuMi4wNy4zLjA4LjI4LjE2LjU1LjI1LjgybDAsMCwuMTUuNDhjLjA5LjIyLjE3LjQ0LjI2LjY1cy4xOC40NC4yOC42NWwuMjMuNDVjLjE1LjI5LjI4LjU1LjQyLjc5bC4xNi4yNi4wNi4xYy4xNy4yNy4zNC41NC41My44MWwuMTMuMTguMDYuMDguMTIuMTZjLjExLjE2LjIyLjMxLjM0LjQ2bC43Ljg1LDAsMHEuMzkuNDIuODEuODFsMCwwLC44My43LjQ1LjM0LjE3LjEyLjA5LjA3LjE2LjEyYy4yNy4xOS41NS4zNi44Mi41M2wuMDkuMDUuMjYuMTZjLjI1LjE1LjUuMjguNzYuNDFsLjA1LDAsLjQ0LjIyLjY1LjI4LjY1LjI2LjQ3LjE2LjA1LDBjLjI3LjA5LjU0LjE3LjgyLjI0bC4zLjA4LjEsMGgwbC0uNDIuNDItLjcuNzEuNy43MSwxLjg0LDEuODQuNjguNjcuODguODguNy43MS43MS0uNzEuODgtLjg4LjY4LS42NywxLjgzLTEuODQuNzEtLjcxLS43MS0uNzEtLjQyLS40MmgwbC4xLDAsLjMtLjA4Yy4yOC0uMDcuNTUtLjE1LjgyLS4yNGwuNTEtLjE3LjY3LS4yN2MuMjEtLjA4LjQzLS4xOC42NC0uMjhzLjI5LS4xNC40My0uMjFsLjA2LDBjLjI1LS4xMy41MS0uMjYuNzUtLjQxTDI3LjksMzUsMjgsMzVjLjI3LS4xNy41NC0uMzQuODEtLjUzbC4xOC0uMTMuMDgtLjA2LjE2LS4xMi40Ni0uMzQuODQtLjY5LDAsMGMuMjctLjI2LjU0LS41Mi44LS44bDAsMCwuNzItLjg1Yy4xMi0uMTUuMjMtLjMxLjM1LS40N2wuMTEtLjE1LjA2LS4wOC4xMy0uMThjLjE5LS4yNy4zNi0uNTQuNTMtLjgxbDAtLjA5LjE2LS4yNmMuMTUtLjI1LjI4LS41MS40MS0uNzZzLjE3LS4zNC4yNC0uNDkuMi0uNDMuMjgtLjY1LjE4LS40My4yNi0uNjUuMTEtLjMyLjE2LS40OGwwLS4wNXEuMTQtLjM5LjI0LS44MWMwLS4xLDAtLjIuMDgtLjNsMC0uMWMuMDgtLjMyLjE1LS42My4yLS45NWwwLS4yMiwwLS4xLDAtLjJjMC0uMTkuMDYtLjM4LjA4LS41N3YwaDMuODFWMTkuNzlIMzUuNDl2MGMwLS4yLS4wNS0uMzgtLjA4LS41N2wwLS4yLDAtLjEsMC0uMjJjMC0uMzItLjEyLS42My0uMi0xbDAtLjExYzAtLjEsMC0uMTktLjA3LS4yOS0uMDctLjI4LS4xNS0uNTUtLjI0LS44MmwwLS4wNWMtLjA1LS4xNi0uMS0uMzEtLjE2LS40N3MtLjE3LS40NC0uMjYtLjY1LS4xOC0uNDQtLjI4LS42NS0uMTQtLjMtLjIyLS40NWMtLjE1LS4zLS4yOC0uNTUtLjQyLS43OWwtLjE2LS4yNi0uMDYtLjFjLS4xNy0uMjctLjM0LS41NC0uNTMtLjgxbC0uMTMtLjE3TDMyLjQ5LDEybC0uMTItLjE2Yy0uMTEtLjE2LS4yMi0uMzEtLjM0LS40NmwtLjctLjg2LDAsMGMtLjI2LS4yOC0uNTMtLjU1LS44LS44bDAsMEwyOS42OCw5bC0uNDYtLjM0LS4xNi0uMTJMMjksOC41MmwtLjE4LS4xM2MtLjI3LS4xOS0uNTQtLjM2LS44Mi0uNTNsLS4wOC0uMDUtLjI3LS4xN2MtLjI0LS4xNC0uNS0uMjctLjc1LS40bC0uMDYsMEwyNi4zOSw3bC0uNjUtLjI4LS42NS0uMjUtLjQ3LS4xNi0uMDUsMEwyMy43NSw2LDIzLjQ1LDZsLS4xLDBoMGwuNDItLjQxLjcxLS43MS0uNzEtLjcxTDIxLjkyLDIuMjZsLS4wNSwwTDIwLjM2LjcxLDE5LjY1LDBaIi8+PHBhdGggY2xhc3M9ImNscy0yIiBkPSJNMjEuMjEsMzV2MS4yNkExNSwxNSwwLDAsMCwzNC41LDIzSDMzLjI1QTEzLjcxLDEzLjcxLDAsMCwxLDIxLjIxLDM1WiIvPjxwYXRoIGNsYXNzPSJjbHMtMiIgZD0iTTYuMDYsMjNINC44MUExNSwxNSwwLDAsMCwxOC4xLDM2LjI2VjM1QTEzLjcxLDEzLjcxLDAsMCwxLDYuMDYsMjNaIi8+PHBhdGggY2xhc3M9ImNscy0yIiBkPSJNMzMuMjUsMTkuODZIMzQuNUExNSwxNSwwLDAsMCwyMS4yMSw2LjU3VjcuODJBMTMuNzMsMTMuNzMsMCwwLDEsMzMuMjUsMTkuODZaIi8+PHBhdGggY2xhc3M9ImNscy0yIiBkPSJNMTguMSw3LjgyVjYuNTdBMTUsMTUsMCwwLDAsNC44MSwxOS44Nkg2LjA2QTEzLjczLDEzLjczLDAsMCwxLDE4LjEsNy44MloiLz48cG9seWdvbiBjbGFzcz0iY2xzLTIiIHBvaW50cz0iMjAuMjggMy43OSAyMS4yMSA0LjczIDIyLjE3IDUuNjkgMjMuMDUgNC44MSAyMS4yMSAyLjk3IDIxLjE2IDIuOTIgMTkuNjUgMS40MSAxOC4xNSAyLjkyIDE4LjEgMi45NyAxNi4yNiA0LjgxIDE3LjE0IDUuNjkgMTguMSA0LjczIDE5LjAzIDMuNzkgMTkuMDMgMzkuMDMgMTguMSAzOC4xIDE3LjE0IDM3LjE0IDE2LjI2IDM4LjAyIDE4LjEgMzkuODYgMTguNzcgNDAuNTMgMTkuNjUgNDEuNDEgMjAuNTMgNDAuNTMgMjEuMjEgMzkuODYgMjMuMDUgMzguMDIgMjIuMTcgMzcuMTQgMjEuMjEgMzguMSAyMC4yOCAzOS4wMyAyMC4yOCAzLjc5Ii8+PHBvbHlnb24gY2xhc3M9ImNscy0yIiBwb2ludHM9IjIyLjcxIDIwLjc5IDIzLjY0IDE5Ljg2IDI0LjYgMTguOSAyMy43MiAxOC4wMiAyMS44OCAxOS44NiAyMC4zMyAyMS40MSAyMS44OCAyMi45NyAyMy43MiAyNC44MSAyNC42IDIzLjkzIDIzLjY0IDIyLjk3IDIyLjcxIDIyLjA0IDM4LjMxIDIyLjA0IDM4LjMxIDIwLjc5IDIyLjcxIDIwLjc5Ii8+PHBvbHlnb24gY2xhc3M9ImNscy0yIiBwb2ludHM9IjE2LjYgMjIuMDQgMTUuNjcgMjIuOTcgMTQuNzEgMjMuOTMgMTUuNTkgMjQuODEgMTguMSAyMi4yOSAxOC45OCAyMS40MSAxOC4xIDIwLjU0IDE1LjU5IDE4LjAyIDE0LjcxIDE4LjkgMTUuNjcgMTkuODYgMTYuNiAyMC43OSAxIDIwLjc5IDEgMjIuMDQgMTYuNiAyMi4wNCIvPjwvZz48L2c+PC9zdmc+;" parent="eChJDwyTb9s3T-vj8w6D-26" vertex="1">
                    <mxGeometry x="25.52235294117645" width="38.18051054384017" height="41.50055493895671" as="geometry"/>
                </mxCell>
                <mxCell id="eChJDwyTb9s3T-vj8w6D-30" style="edgeStyle=orthogonalEdgeStyle;rounded=0;jumpStyle=arc;jumpSize=10;html=1;exitX=0.5;exitY=1;exitDx=0;exitDy=0;fontColor=default;endArrow=open;endFill=0;" edge="1" parent="1" source="HhmFAeyS2S2euJ_gTcu7-519" target="eChJDwyTb9s3T-vj8w6D-2">
                    <mxGeometry relative="1" as="geometry"/>
                </mxCell>
                <mxCell id="eChJDwyTb9s3T-vj8w6D-32" style="edgeStyle=orthogonalEdgeStyle;rounded=0;jumpStyle=arc;jumpSize=10;html=1;exitX=1;exitY=0.5;exitDx=0;exitDy=0;entryX=0.5;entryY=1;entryDx=0;entryDy=0;fontColor=default;endArrow=open;endFill=0;" edge="1" parent="1" source="ZklWYCbI00s5IHxO9I_W-73" target="eChJDwyTb9s3T-vj8w6D-2">
                    <mxGeometry relative="1" as="geometry"/>
                </mxCell>
                <mxCell id="eChJDwyTb9s3T-vj8w6D-33" style="edgeStyle=orthogonalEdgeStyle;rounded=0;jumpStyle=arc;jumpSize=10;html=1;exitX=1;exitY=0.5;exitDx=0;exitDy=0;fontColor=default;endArrow=open;endFill=0;" edge="1" parent="1" source="ZklWYCbI00s5IHxO9I_W-68" target="eChJDwyTb9s3T-vj8w6D-2">
                    <mxGeometry relative="1" as="geometry"/>
                </mxCell>
                <mxCell id="eChJDwyTb9s3T-vj8w6D-34" value="https://kasm.contoso.com" style="text;html=1;strokeColor=none;fillColor=none;align=center;verticalAlign=middle;whiteSpace=wrap;rounded=0;labelBackgroundColor=none;fontColor=default;" vertex="1" parent="1">
                    <mxGeometry x="-710" y="5950" width="160" height="30" as="geometry"/>
                </mxCell>
                <mxCell id="xFwBFLtgpOlnCdHzjLZo-1" value="&lt;u style=&quot;font-size: 16px;&quot;&gt;OCI Multi-Server (Single Region) Terraform Deployment&lt;/u&gt;" style="text;html=1;strokeColor=none;fillColor=none;align=center;verticalAlign=middle;whiteSpace=wrap;rounded=0;dashed=1;labelBackgroundColor=none;strokeWidth=2;fontSize=16;fontColor=#000000;" vertex="1" parent="1">
                    <mxGeometry x="-670" y="5870" width="410" height="30" as="geometry"/>
                </mxCell>
            </root>
        </mxGraphModel>
    </diagram>
</mxfile>